<?xml version="1.0" encoding="utf-8"?>
<!-- Generator: Adobe Illustrator 16.0.0, SVG Export Plug-In . SVG Version: 6.00 Build 0)  -->
<!DOCTYPE svg PUBLIC "-//W3C//DTD SVG 1.1//EN" "http://www.w3.org/Graphics/SVG/1.1/DTD/svg11.dtd">
<svg version="1.1" id="Capa_1" xmlns="http://www.w3.org/2000/svg" xmlns:xlink="http://www.w3.org/1999/xlink" x="0px" y="0px"
	 width="41.1px" height="205.51px" viewBox="0 0 41.1 205.51" enable-background="new 0 0 41.1 205.51" xml:space="preserve">
<g>
	<path d="M41.1,195.149c0,11.059-9.201,10.279-20.549,10.279l0,0C9.202,205.429,0,206.208,0,195.149V10.36
		C0-0.698,9.202,0.081,20.55,0.081l0,0C31.898,0.081,41.1-0.698,41.1,10.36V195.149z"/>
	<path fill="#444242" d="M38.648,189.685c0,10.189-0.463,12.639-9.727,12.639H12.179c-9.263,0-9.727-2.449-9.727-12.639V15.826
		c0-10.191,0.464-12.64,9.727-12.64h16.743c9.264,0,9.727,2.448,9.727,12.64V189.685z"/>
	<path fill="#87868A" d="M35.631,10.592c0,0.547-0.363,0.99-0.809,0.99H6.277c-0.446,0-0.808-0.443-0.808-0.99l0,0
		c0-0.547,0.361-0.99,0.808-0.99h28.545C35.268,9.602,35.631,10.045,35.631,10.592L35.631,10.592z"/>
	<path fill="#87868A" d="M35.631,194.915c0,0.549-0.363,0.992-0.809,0.992H6.277c-0.446,0-0.808-0.443-0.808-0.992l0,0
		c0-0.547,0.361-0.988,0.808-0.988h28.545C35.268,193.927,35.631,194.368,35.631,194.915L35.631,194.915z"/>
	<path fill="#87868A" d="M30.258,185.702c0,0.297-0.232,0.537-0.52,0.537H11.363c-0.288,0-0.521-0.24-0.521-0.537l0,0
		c0-0.297,0.233-0.539,0.521-0.539h18.375C30.025,185.163,30.258,185.405,30.258,185.702L30.258,185.702z"/>
	<path fill="#87868A" d="M30.258,176.485c0,0.297-0.232,0.537-0.52,0.537H11.363c-0.288,0-0.521-0.24-0.521-0.537l0,0
		c0-0.297,0.233-0.539,0.521-0.539h18.375C30.025,175.946,30.258,176.188,30.258,176.485L30.258,176.485z"/>
	<path fill="#87868A" d="M30.258,167.269c0,0.297-0.232,0.537-0.52,0.537H11.363c-0.288,0-0.521-0.24-0.521-0.537l0,0
		c0-0.297,0.233-0.539,0.521-0.539h18.375C30.025,166.729,30.258,166.972,30.258,167.269L30.258,167.269z"/>
	<path fill="#87868A" d="M30.258,158.054c0,0.297-0.232,0.537-0.52,0.537H11.363c-0.288,0-0.521-0.24-0.521-0.537l0,0
		c0-0.297,0.233-0.539,0.521-0.539h18.375C30.025,157.515,30.258,157.757,30.258,158.054L30.258,158.054z"/>
	<path fill="#87868A" d="M30.258,148.837c0,0.297-0.232,0.537-0.52,0.537H11.363c-0.288,0-0.521-0.24-0.521-0.537l0,0
		c0-0.297,0.233-0.539,0.521-0.539h18.375C30.025,148.298,30.258,148.54,30.258,148.837L30.258,148.837z"/>
	<path fill="#87868A" d="M30.258,139.62c0,0.297-0.232,0.537-0.52,0.537H11.363c-0.288,0-0.521-0.24-0.521-0.537l0,0
		c0-0.297,0.233-0.539,0.521-0.539h18.375C30.025,139.081,30.258,139.323,30.258,139.62L30.258,139.62z"/>
	<path fill="#87868A" d="M30.258,130.405c0,0.297-0.232,0.537-0.52,0.537H11.363c-0.288,0-0.521-0.24-0.521-0.537l0,0
		c0-0.297,0.233-0.539,0.521-0.539h18.375C30.025,129.866,30.258,130.108,30.258,130.405L30.258,130.405z"/>
	<path fill="#87868A" d="M30.258,121.188c0,0.297-0.232,0.537-0.52,0.537H11.363c-0.288,0-0.521-0.24-0.521-0.537l0,0
		c0-0.297,0.233-0.539,0.521-0.539h18.375C30.025,120.649,30.258,120.892,30.258,121.188L30.258,121.188z"/>
	<path fill="#87868A" d="M30.258,111.972c0,0.297-0.232,0.537-0.52,0.537H11.363c-0.288,0-0.521-0.24-0.521-0.537l0,0
		c0-0.297,0.233-0.539,0.521-0.539h18.375C30.025,111.433,30.258,111.675,30.258,111.972L30.258,111.972z"/>
	<path fill="#87868A" d="M30.258,102.755c0,0.297-0.232,0.538-0.52,0.538H11.363c-0.288,0-0.521-0.241-0.521-0.538l0,0
		c0-0.297,0.233-0.539,0.521-0.539h18.375C30.025,102.216,30.258,102.458,30.258,102.755L30.258,102.755z"/>
	<path fill="#87868A" d="M33.309,93.706c0,0.315-0.307,0.57-0.682,0.57H8.476c-0.377,0-0.684-0.255-0.684-0.57l0,0
		c0-0.315,0.307-0.573,0.684-0.573h24.151C33.002,93.133,33.309,93.39,33.309,93.706L33.309,93.706z"/>
	<path fill="#87868A" d="M30.258,84.323c0,0.297-0.232,0.537-0.52,0.537H11.363c-0.288,0-0.521-0.24-0.521-0.537l0,0
		c0-0.297,0.233-0.539,0.521-0.539h18.375C30.025,83.784,30.258,84.026,30.258,84.323L30.258,84.323z"/>
	<path fill="#87868A" d="M30.258,75.106c0,0.297-0.232,0.537-0.52,0.537H11.363c-0.288,0-0.521-0.24-0.521-0.537l0,0
		c0-0.297,0.233-0.539,0.521-0.539h18.375C30.025,74.567,30.258,74.81,30.258,75.106L30.258,75.106z"/>
	<path fill="#87868A" d="M30.258,65.89c0,0.297-0.232,0.537-0.52,0.537H11.363c-0.288,0-0.521-0.24-0.521-0.537l0,0
		c0-0.297,0.233-0.539,0.521-0.539h18.375C30.025,65.351,30.258,65.593,30.258,65.89L30.258,65.89z"/>
	<path fill="#87868A" d="M30.258,56.674c0,0.297-0.232,0.537-0.52,0.537H11.363c-0.288,0-0.521-0.24-0.521-0.537l0,0
		c0-0.297,0.233-0.539,0.521-0.539h18.375C30.025,56.135,30.258,56.377,30.258,56.674L30.258,56.674z"/>
	<path fill="#87868A" d="M30.258,47.458c0,0.297-0.232,0.537-0.52,0.537H11.363c-0.288,0-0.521-0.24-0.521-0.537l0,0
		c0-0.297,0.233-0.539,0.521-0.539h18.375C30.025,46.919,30.258,47.161,30.258,47.458L30.258,47.458z"/>
	<path fill="#87868A" d="M30.258,38.242c0,0.297-0.232,0.537-0.52,0.537H11.363c-0.288,0-0.521-0.24-0.521-0.537l0,0
		c0-0.297,0.233-0.539,0.521-0.539h18.375C30.025,37.703,30.258,37.945,30.258,38.242L30.258,38.242z"/>
	<path fill="#87868A" d="M30.258,29.025c0,0.297-0.232,0.537-0.52,0.537H11.363c-0.288,0-0.521-0.24-0.521-0.537l0,0
		c0-0.297,0.233-0.539,0.521-0.539h18.375C30.025,28.486,30.258,28.729,30.258,29.025L30.258,29.025z"/>
	<path fill="#87868A" d="M30.258,19.81c0,0.297-0.232,0.537-0.52,0.537H11.363c-0.288,0-0.521-0.24-0.521-0.537l0,0
		c0-0.297,0.233-0.539,0.521-0.539h18.375C30.025,19.271,30.258,19.513,30.258,19.81L30.258,19.81z"/>
	<rect x="16.491" y="11.546" fill="#87868A" width="8.119" height="182.416"/>
	<rect x="18.564" y="11.546" width="3.973" height="182.38"/>
</g>
</svg>
