<?xml version="1.0" encoding="utf-8"?>
<!-- Generator: Adobe Illustrator 16.0.0, SVG Export Plug-In . SVG Version: 6.00 Build 0)  -->
<!DOCTYPE svg PUBLIC "-//W3C//DTD SVG 1.1//EN" "http://www.w3.org/Graphics/SVG/1.1/DTD/svg11.dtd">
<svg version="1.1" id="Capa_1" xmlns="http://www.w3.org/2000/svg" xmlns:xlink="http://www.w3.org/1999/xlink" x="0px" y="0px"
	 width="205.51px" height="41.1px" viewBox="0 0 205.51 41.1" enable-background="new 0 0 205.51 41.1" xml:space="preserve">
<g>
	<path d="M194.928,0.001c11.059,0,10.279,9.201,10.279,20.549l0,0c0,11.348,0.779,20.549-10.279,20.549H10.138
		C-0.92,41.1-0.142,31.898-0.142,20.55l0,0c0-11.348-0.779-20.549,10.279-20.549H194.928z"/>
	<path fill="#444242" d="M189.463,2.452c10.189,0,12.639,0.463,12.639,9.727v16.743c0,9.263-2.449,9.727-12.639,9.727H15.604
		c-10.191,0-12.64-0.464-12.64-9.727V12.179c0-9.264,2.448-9.727,12.64-9.727H189.463z"/>
	<path fill="#87868A" d="M10.37,5.47c0.547,0,0.99,0.363,0.99,0.809v28.545c0,0.446-0.443,0.808-0.99,0.808l0,0
		c-0.547,0-0.99-0.361-0.99-0.808V6.278C9.38,5.833,9.823,5.47,10.37,5.47L10.37,5.47z"/>
	<path fill="#87868A" d="M194.693,5.47c0.549,0,0.992,0.363,0.992,0.809v28.545c0,0.446-0.443,0.808-0.992,0.808l0,0
		c-0.547,0-0.988-0.361-0.988-0.808V6.278C193.705,5.833,194.146,5.47,194.693,5.47L194.693,5.47z"/>
	<path fill="#87868A" d="M185.48,10.843c0.297,0,0.537,0.232,0.537,0.52v18.375c0,0.287-0.24,0.521-0.537,0.521l0,0
		c-0.297,0-0.539-0.233-0.539-0.521V11.362C184.941,11.075,185.184,10.843,185.48,10.843L185.48,10.843z"/>
	<path fill="#87868A" d="M176.264,10.843c0.297,0,0.537,0.232,0.537,0.52v18.375c0,0.287-0.24,0.521-0.537,0.521l0,0
		c-0.297,0-0.539-0.233-0.539-0.521V11.362C175.725,11.075,175.967,10.843,176.264,10.843L176.264,10.843z"/>
	<path fill="#87868A" d="M167.047,10.843c0.297,0,0.537,0.232,0.537,0.52v18.375c0,0.287-0.24,0.521-0.537,0.521l0,0
		c-0.297,0-0.539-0.233-0.539-0.521V11.362C166.508,11.075,166.75,10.843,167.047,10.843L167.047,10.843z"/>
	<path fill="#87868A" d="M157.832,10.843c0.297,0,0.537,0.232,0.537,0.52v18.375c0,0.287-0.24,0.521-0.537,0.521l0,0
		c-0.297,0-0.539-0.233-0.539-0.521V11.362C157.293,11.075,157.535,10.843,157.832,10.843L157.832,10.843z"/>
	<path fill="#87868A" d="M148.615,10.843c0.297,0,0.537,0.232,0.537,0.52v18.375c0,0.287-0.24,0.521-0.537,0.521l0,0
		c-0.297,0-0.539-0.233-0.539-0.521V11.362C148.076,11.075,148.318,10.843,148.615,10.843L148.615,10.843z"/>
	<path fill="#87868A" d="M139.398,10.843c0.297,0,0.537,0.232,0.537,0.52v18.375c0,0.287-0.24,0.521-0.537,0.521l0,0
		c-0.297,0-0.539-0.233-0.539-0.521V11.362C138.859,11.075,139.102,10.843,139.398,10.843L139.398,10.843z"/>
	<path fill="#87868A" d="M130.184,10.843c0.297,0,0.537,0.232,0.537,0.52v18.375c0,0.287-0.24,0.521-0.537,0.521l0,0
		c-0.297,0-0.539-0.233-0.539-0.521V11.362C129.645,11.075,129.887,10.843,130.184,10.843L130.184,10.843z"/>
	<path fill="#87868A" d="M120.967,10.843c0.297,0,0.537,0.232,0.537,0.52v18.375c0,0.287-0.24,0.521-0.537,0.521l0,0
		c-0.297,0-0.539-0.233-0.539-0.521V11.362C120.428,11.075,120.67,10.843,120.967,10.843L120.967,10.843z"/>
	<path fill="#87868A" d="M111.75,10.843c0.297,0,0.537,0.232,0.537,0.52v18.375c0,0.287-0.24,0.521-0.537,0.521l0,0
		c-0.297,0-0.539-0.233-0.539-0.521V11.362C111.211,11.075,111.453,10.843,111.75,10.843L111.75,10.843z"/>
	<path fill="#87868A" d="M102.533,10.843c0.297,0,0.538,0.232,0.538,0.52v18.375c0,0.287-0.241,0.521-0.538,0.521l0,0
		c-0.297,0-0.539-0.233-0.539-0.521V11.362C101.994,11.075,102.236,10.843,102.533,10.843L102.533,10.843z"/>
	<path fill="#87868A" d="M93.483,7.792c0.315,0,0.57,0.307,0.57,0.682v24.151c0,0.377-0.255,0.684-0.57,0.684l0,0
		c-0.315,0-0.573-0.307-0.573-0.684V8.474C92.911,8.099,93.168,7.792,93.483,7.792L93.483,7.792z"/>
	<path fill="#87868A" d="M84.101,10.843c0.297,0,0.537,0.232,0.537,0.52v18.375c0,0.287-0.24,0.521-0.537,0.521l0,0
		c-0.297,0-0.539-0.233-0.539-0.521V11.362C83.562,11.075,83.804,10.843,84.101,10.843L84.101,10.843z"/>
	<path fill="#87868A" d="M74.884,10.843c0.297,0,0.537,0.232,0.537,0.52v18.375c0,0.287-0.24,0.521-0.537,0.521l0,0
		c-0.297,0-0.539-0.233-0.539-0.521V11.362C74.345,11.075,74.587,10.843,74.884,10.843L74.884,10.843z"/>
	<path fill="#87868A" d="M65.668,10.843c0.297,0,0.537,0.232,0.537,0.52v18.375c0,0.287-0.24,0.521-0.537,0.521l0,0
		c-0.297,0-0.539-0.233-0.539-0.521V11.362C65.129,11.075,65.371,10.843,65.668,10.843L65.668,10.843z"/>
	<path fill="#87868A" d="M56.452,10.843c0.297,0,0.537,0.232,0.537,0.52v18.375c0,0.287-0.24,0.521-0.537,0.521l0,0
		c-0.297,0-0.539-0.233-0.539-0.521V11.362C55.913,11.075,56.155,10.843,56.452,10.843L56.452,10.843z"/>
	<path fill="#87868A" d="M47.236,10.843c0.297,0,0.537,0.232,0.537,0.52v18.375c0,0.287-0.24,0.521-0.537,0.521l0,0
		c-0.297,0-0.539-0.233-0.539-0.521V11.362C46.697,11.075,46.939,10.843,47.236,10.843L47.236,10.843z"/>
	<path fill="#87868A" d="M38.02,10.843c0.297,0,0.537,0.232,0.537,0.52v18.375c0,0.287-0.24,0.521-0.537,0.521l0,0
		c-0.297,0-0.539-0.233-0.539-0.521V11.362C37.48,11.075,37.723,10.843,38.02,10.843L38.02,10.843z"/>
	<path fill="#87868A" d="M28.803,10.843c0.297,0,0.537,0.232,0.537,0.52v18.375c0,0.287-0.24,0.521-0.537,0.521l0,0
		c-0.297,0-0.539-0.233-0.539-0.521V11.362C28.264,11.075,28.506,10.843,28.803,10.843L28.803,10.843z"/>
	<path fill="#87868A" d="M19.587,10.843c0.297,0,0.537,0.232,0.537,0.52v18.375c0,0.287-0.24,0.521-0.537,0.521l0,0
		c-0.297,0-0.539-0.233-0.539-0.521V11.362C19.048,11.075,19.291,10.843,19.587,10.843L19.587,10.843z"/>
	<rect x="11.324" y="16.491" fill="#87868A" width="182.416" height="8.118"/>
	<rect x="11.324" y="18.563" width="182.381" height="3.973"/>
</g>
</svg>
