<svg height="512pt" viewBox="0 0 512 512" width="512pt" xmlns="http://www.w3.org/2000/svg"><path d="m504.5 27.5v457c0 11.050781-8.949219 20-20 20h-457c-11.050781 0-20-8.949219-20-20v-457c0-11.050781 8.949219-20 20-20h457c11.050781 0 20 8.949219 20 20zm0 0" fill="#22d0ff"/><path d="m504.5 27.5v457c0 11.050781-8.949219 20-20 20h-135.148438c138.457032-91.46875 115.199219-389.511719 101.796876-497h33.351562c11.050781 0 20 8.949219 20 20zm0 0" fill="#06b9ff"/><path d="m102.628906 127.910156v85.925782c0 10.882812 9.125 19.703124 20.382813 19.703124 5.632812 0 10.726562-2.199218 14.421875-5.769531.117187-.113281.226562-.226562.332031-.339843 3.496094-3.53125 5.636719-8.320313 5.636719-13.589844v-38.355469l65.335937 63.15625c7.964844 7.691406 20.871094 7.691406 28.835938 0 7.957031-7.699219 7.957031-20.175781 0-27.871094l-65.339844-63.148437 39.679687-.007813c11.265626.007813 20.390626-8.816406 20.390626-19.703125 0-10.878906-9.125-19.707031-20.390626-19.707031h-88.902343c-.648438 0-1.285157.027344-1.914063.085937-10.359375.929688-18.46875 9.367188-18.46875 19.621094zm0 0" fill="#e8e6ed"/><path d="m102.628906 127.910156v85.925782c0 10.882812 9.125 19.703124 20.382813 19.703124 5.632812 0 10.726562-2.199218 14.421875-5.769531.117187-.113281.226562-.226562.332031-.339843-22.738281-41.628907-25.628906-87.359376-16.667969-119.136719-10.359375.925781-18.46875 9.363281-18.46875 19.617187zm0 0" fill="#d1d0d8"/><path d="m409.371094 127.910156v85.925782c0 10.882812-9.125 19.703124-20.382813 19.703124-5.632812 0-10.726562-2.199218-14.421875-5.769531-.117187-.113281-.226562-.226562-.332031-.339843-3.496094-3.53125-5.636719-8.320313-5.636719-13.589844v-38.355469l-65.335937 63.15625c-7.964844 7.691406-20.871094 7.691406-28.835938 0-7.957031-7.699219-7.957031-20.175781 0-27.871094l65.339844-63.148437-39.679687-.007813c-11.265626.007813-20.390626-8.816406-20.390626-19.703125 0-10.878906 9.125-19.707031 20.390626-19.707031h88.902343c.648438 0 1.285157.027344 1.914063.085937 10.359375.929688 18.46875 9.367188 18.46875 19.621094zm0 0" fill="#d1d0d8"/><path d="m409.371094 127.910156v85.925782c0 10.882812-9.125 19.703124-20.382813 19.703124-5.632812 0-10.726562-2.199218-14.421875-5.769531-.117187-.113281-.226562-.226562-.332031-.339843 22.738281-41.628907 25.628906-87.359376 16.667969-119.136719 10.359375.925781 18.46875 9.363281 18.46875 19.617187zm0 0" fill="#bdbcc4"/><path d="m409.371094 384.089844v-85.925782c0-10.882812-9.125-19.703124-20.382813-19.703124-5.632812 0-10.726562 2.199218-14.421875 5.769531-.117187.113281-.226562.226562-.332031.339843-3.496094 3.535157-5.636719 8.324219-5.636719 13.59375v38.351563l-65.335937-63.152344c-7.964844-7.691406-20.871094-7.691406-28.835938 0-7.957031 7.695313-7.957031 20.171875 0 27.871094l65.339844 63.148437-39.679687.003907c-11.265626-.003907-20.390626 8.816406-20.390626 19.703125 0 10.882812 9.125 19.710937 20.390626 19.710937h88.902343c.648438 0 1.285157-.03125 1.914063-.089843 10.359375-.929688 18.46875-9.367188 18.46875-19.621094zm0 0" fill="#e8e6ed"/><path d="m409.371094 384.089844v-85.925782c0-10.882812-9.125-19.703124-20.382813-19.703124-5.632812 0-10.726562 2.199218-14.421875 5.769531-.117187.113281-.226562.226562-.332031.339843 22.738281 41.628907 25.628906 87.359376 16.667969 119.140626 10.359375-.929688 18.46875-9.367188 18.46875-19.621094zm0 0" fill="#d1d0d8"/><path d="m102.628906 384.089844v-85.925782c0-10.882812 9.125-19.703124 20.382813-19.703124 5.632812 0 10.726562 2.199218 14.421875 5.769531.117187.113281.226562.226562.332031.339843 3.496094 3.535157 5.636719 8.324219 5.636719 13.59375v38.351563l65.335937-63.152344c7.964844-7.691406 20.871094-7.691406 28.835938 0 7.957031 7.695313 7.957031 20.171875 0 27.871094l-65.339844 63.148437 39.679687.003907c11.265626-.003907 20.390626 8.816406 20.390626 19.703125 0 10.882812-9.125 19.710937-20.390626 19.710937h-88.902343c-.648438 0-1.285157-.03125-1.914063-.089843-10.359375-.929688-18.46875-9.367188-18.46875-19.621094zm0 0" fill="#d1d0d8"/><path d="m102.628906 384.089844v-85.925782c0-10.882812 9.125-19.703124 20.382813-19.703124 5.632812 0 10.726562 2.199218 14.421875 5.769531.117187.113281.226562.226562.332031.339843-22.738281 41.628907-25.628906 87.359376-16.667969 119.140626-10.359375-.929688-18.46875-9.367188-18.46875-19.621094zm0 0" fill="#bdbcc4"/><path d="m484.5 512h-321.117188c-4.140624 0-7.5-3.355469-7.5-7.5s3.359376-7.5 7.5-7.5h321.117188c6.894531 0 12.5-5.605469 12.5-12.5v-320.683594c0-4.140625 3.359375-7.5 7.5-7.5s7.5 3.359375 7.5 7.5v320.683594c0 15.164062-12.335938 27.5-27.5 27.5zm0 0"/><path d="m128.859375 512h-101.359375c-15.164062 0-27.5-12.335938-27.5-27.5v-457c0-15.164062 12.335938-27.5 27.5-27.5h302.351562c4.140626 0 7.5 3.355469 7.5 7.5s-3.359374 7.5-7.5 7.5h-302.351562c-6.894531 0-12.5 5.605469-12.5 12.5v457c0 6.894531 5.605469 12.5 12.5 12.5h101.359375c4.144531 0 7.5 3.355469 7.5 7.5s-3.355469 7.5-7.5 7.5zm0 0"/><path d="m504.5 136.796875c-4.140625 0-7.5-3.359375-7.5-7.5v-101.796875c0-6.894531-5.605469-12.5-12.5-12.5h-120.125c-4.144531 0-7.5-3.355469-7.5-7.5s3.355469-7.5 7.5-7.5h120.125c15.164062 0 27.5 12.335938 27.5 27.5v101.796875c0 4.140625-3.359375 7.5-7.5 7.5zm0 0"/><path d="m223.15625 251.875c-7.105469 0-14.214844-2.617188-19.628906-7.847656l-52.625-50.863282v20.671876c0 7.316406-2.933594 14.179687-8.257813 19.328124-5.257812 5.078126-12.226562 7.878907-19.625 7.878907-.003906 0-.003906 0-.007812 0-7.398438 0-14.371094-2.796875-19.625-7.878907-5.328125-5.148437-8.261719-12.011718-8.261719-19.328124v-85.925782c0-15 12.511719-27.207031 27.890625-27.207031h88.902344c15.378906 0 27.890625 12.207031 27.890625 27.207031 0 7.316406-2.933594 14.179688-8.261719 19.328125-5.253906 5.078125-12.226563 7.878907-19.625 7.878907h-.003906-21.128907l52 50.257812c5.328126 5.148438 8.261719 12.011719 8.261719 19.324219 0 7.316406-2.933593 14.183593-8.261719 19.328125-5.414062 5.230468-12.523437 7.847656-19.632812 7.847656zm-79.753906-83.890625c1.90625 0 3.785156.730469 5.210937 2.109375l65.339844 63.148438c5.074219 4.902343 13.332031 4.902343 18.410156 0 2.375-2.296876 3.683594-5.328126 3.683594-8.542969 0-3.210938-1.308594-6.246094-3.683594-8.539063l-65.339843-63.152344c-2.199219-2.121093-2.886719-5.367187-1.742188-8.203124 1.148438-2.832032 3.898438-4.6875 6.953125-4.6875h39.683594c3.488281 0 6.757812-1.300782 9.203125-3.664063 2.375-2.296875 3.683594-5.332031 3.683594-8.542969 0-6.730468-5.78125-12.207031-12.890626-12.207031h-88.902343c-7.105469 0-12.886719 5.476563-12.886719 12.207031v85.925782c0 3.210937 1.308594 6.246093 3.683594 8.542968 2.445312 2.363282 5.710937 3.664063 9.203125 3.664063h.003906c3.488281 0 6.757813-1.300781 9.203125-3.664063 2.375-2.296875 3.683594-5.328125 3.683594-8.542968v-38.351563c0-3.007813 1.796875-5.726563 4.570312-6.902344.945313-.402343 1.941406-.597656 2.929688-.597656zm0 0"/><path d="m288.84375 251.875c-7.109375 0-14.21875-2.617188-19.628906-7.847656-5.328125-5.144532-8.261719-12.011719-8.261719-19.328125 0-7.3125 2.933594-14.175781 8.261719-19.324219l51.996094-50.257812h-21.128907c-7.398437 0-14.371093-2.796876-19.628906-7.878907-5.324219-5.148437-8.257813-12.011719-8.257813-19.328125 0-15 12.511719-27.207031 27.890626-27.207031h88.902343c15.375 0 27.886719 12.207031 27.886719 27.207031v85.925782c0 7.316406-2.933594 14.179687-8.257812 19.328124-5.257813 5.078126-12.226563 7.878907-19.628907 7.878907 0 0-.003906-.003907-.007812 0-7.394531 0-14.367188-2.800781-19.621094-7.878907-5.328125-5.148437-8.261719-12.011718-8.261719-19.328124v-20.671876l-52.625 50.863282c-5.414062 5.230468-12.523437 7.847656-19.628906 7.847656zm11.238281-136.171875c-7.105469 0-12.886719 5.476563-12.886719 12.207031 0 3.210938 1.308594 6.246094 3.683594 8.542969 2.445313 2.363281 5.714844 3.664063 9.203125 3.664063h39.683594c3.054687 0 5.804687 1.855468 6.953125 4.6875 1.144531 2.835937.457031 6.082031-1.742188 8.203124l-65.339843 63.152344c-2.375 2.292969-3.683594 5.328125-3.683594 8.539063 0 3.214843 1.308594 6.246093 3.683594 8.542969 5.078125 4.902343 13.335937 4.902343 18.410156 0l65.339844-63.148438c2.164062-2.09375 5.371093-2.691406 8.140625-1.515625 2.773437 1.179687 4.570312 3.898437 4.570312 6.90625v38.351563c0 3.210937 1.308594 6.246093 3.683594 8.539062 2.445312 2.363281 5.714844 3.664062 9.203125 3.664062h.003906c3.492188 0 6.757813-1.300781 9.203125-3.660156 2.378906-2.296875 3.6875-5.332031 3.6875-8.542968v-85.925782c0-6.730468-5.785156-12.207031-12.890625-12.207031zm0 0"/><path d="m388.984375 411.296875h-88.902344c-15.378906 0-27.886719-12.207031-27.886719-27.207031 0-7.316406 2.933594-14.179688 8.257813-19.328125 5.257813-5.078125 12.226563-7.878907 19.625-7.878907h.003906 21.128907l-52-50.257812c-5.328126-5.148438-8.261719-12.011719-8.261719-19.324219 0-7.316406 2.933593-14.183593 8.261719-19.328125 10.824218-10.460937 28.433593-10.460937 39.257812 0l52.625 50.863282v-20.671876c0-7.316406 2.933594-14.179687 8.261719-19.328124 5.253906-5.078126 12.226562-7.878907 19.625-7.878907h.003906c7.398437 0 14.371094 2.796875 19.628906 7.878907 5.324219 5.148437 8.257813 12.011718 8.257813 19.328124v85.925782c.003906 15-12.507813 27.207031-27.886719 27.207031zm-88.902344-39.414063c-3.488281 0-6.757812 1.300782-9.203125 3.664063-2.375 2.296875-3.683594 5.332031-3.683594 8.542969 0 6.730468 5.78125 12.207031 12.890626 12.207031h88.902343c7.105469 0 12.886719-5.476563 12.886719-12.207031v-85.925782c0-3.210937-1.308594-6.246093-3.683594-8.542968-2.445312-2.363282-5.710937-3.664063-9.203125-3.664063 0 0 0 0-.003906 0-3.488281 0-6.757813 1.300781-9.203125 3.664063-2.375 2.296875-3.683594 5.328125-3.683594 8.542968v38.351563c0 3.007813-1.796875 5.726563-4.570312 6.902344-2.769532 1.175781-5.976563.582031-8.140625-1.511719l-65.339844-63.148438c-5.074219-4.90625-13.332031-4.90625-18.410156 0-2.375 2.296876-3.683594 5.328126-3.683594 8.542969 0 3.210938 1.308594 6.242188 3.683594 8.539063l65.339843 63.148437c2.199219 2.125 2.886719 5.371094 1.742188 8.203125-1.148438 2.835938-3.898438 4.691406-6.953125 4.691406zm0 0"/><path d="m211.917969 411.296875h-88.902344c-15.378906 0-27.890625-12.207031-27.890625-27.207031v-85.925782c0-7.316406 2.933594-14.179687 8.257812-19.328124 5.257813-5.078126 12.226563-7.878907 19.628907-7.878907h.007812c7.398438 0 14.367188 2.800781 19.625 7.878907 5.324219 5.148437 8.257813 12.011718 8.257813 19.328124v20.671876l52.625-50.863282c10.824218-10.460937 28.4375-10.460937 39.257812 0 5.328125 5.144532 8.261719 12.011719 8.261719 19.328125 0 7.3125-2.933594 14.175781-8.261719 19.324219l-52 50.257812h21.128906c7.402344 0 14.375 2.796876 19.632813 7.878907 5.324219 5.148437 8.257813 12.011719 8.257813 19.328125 0 15-12.511719 27.207031-27.886719 27.207031zm-88.902344-125.339844c-3.492187 0-6.761719 1.300781-9.207031 3.664063-2.375 2.296875-3.683594 5.332031-3.683594 8.542968v85.925782c0 6.730468 5.78125 12.207031 12.890625 12.207031h88.902344c7.105469 0 12.886719-5.476563 12.886719-12.207031 0-3.210938-1.308594-6.246094-3.683594-8.542969-2.445313-2.363281-5.714844-3.664063-9.203125-3.664063h-39.683594c-3.054687 0-5.804687-1.855468-6.953125-4.6875-1.144531-2.835937-.457031-6.082031 1.742188-8.203124l65.339843-63.152344c2.375-2.292969 3.683594-5.328125 3.683594-8.539063 0-3.214843-1.308594-6.246093-3.683594-8.542969-5.078125-4.902343-13.335937-4.902343-18.410156 0l-65.339844 63.148438c-2.164062 2.09375-5.371093 2.691406-8.140625 1.515625-2.773437-1.179687-4.570312-3.898437-4.570312-6.90625v-38.351563c0-3.210937-1.308594-6.246093-3.683594-8.539062-2.445312-2.363281-5.714844-3.664062-9.203125-3.664062 0-.003907 0-.003907 0-.003907zm0 0"/></svg>