<svg height="512pt" viewBox="0 0 512 512" width="512pt" xmlns="http://www.w3.org/2000/svg"><path d="m484.5 504.5h-457c-11.046875 0-20-8.953125-20-20v-457c0-11.046875 8.953125-20 20-20h457c11.046875 0 20 8.953125 20 20v457c0 11.046875-8.953125 20-20 20zm0 0" fill="#ffadad"/><path d="m504.5 27.5v457c0 11.050781-8.949219 20-20 20h-135.148438c138.457032-91.46875 115.199219-389.511719 101.796876-497h33.351562c11.050781 0 20 8.949219 20 20zm0 0" fill="#ff9293"/><path d="m243.542969 288.386719v88.902343c0 11.257813-9.128907 20.382813-20.382813 20.382813-5.632812 0-10.730468-2.277344-14.421875-5.96875-.117187-.117187-.226562-.234375-.332031-.351563-3.496094-3.65625-5.636719-8.609374-5.636719-14.0625v-39.683593l-65.335937 65.34375c-7.964844 7.957031-20.875 7.957031-28.835938 0-7.960937-7.964844-7.960937-20.871094 0-28.835938l65.339844-65.335937-39.679688-.003906c-11.265624.003906-20.394531-9.125-20.394531-20.386719 0-11.257813 9.128907-20.390625 20.394531-20.390625h88.902344c.644532 0 1.285156.03125 1.914063.089844 10.359375.960937 18.46875 9.6875 18.46875 20.300781zm0 0" fill="#d1d0d8"/><path d="m243.542969 288.386719v88.902343c0 11.257813-9.128907 20.382813-20.382813 20.382813-5.632812 0-10.730468-2.277344-14.421875-5.96875-.117187-.117187-.226562-.234375-.332031-.351563 22.738281-43.074218 25.628906-90.386718 16.667969-123.265624 10.359375.960937 18.46875 9.6875 18.46875 20.300781zm0 0" fill="#bdbcc4"/><path d="m268.457031 288.386719v88.902343c0 11.257813 9.128907 20.382813 20.382813 20.382813 5.632812 0 10.730468-2.277344 14.421875-5.96875.117187-.117187.226562-.234375.332031-.351563 3.496094-3.65625 5.636719-8.609374 5.636719-14.0625v-39.683593l65.335937 65.34375c7.964844 7.957031 20.875 7.957031 28.835938 0 7.960937-7.964844 7.960937-20.871094 0-28.835938l-65.339844-65.335937 39.679688-.003906c11.265624.003906 20.394531-9.125 20.394531-20.386719 0-11.257813-9.128907-20.390625-20.394531-20.390625h-88.902344c-.644532 0-1.285156.03125-1.914063.089844-10.359375.960937-18.46875 9.6875-18.46875 20.300781zm0 0" fill="#e8e6ed"/><path d="m268.457031 288.386719v88.902343c0 11.257813 9.128907 20.382813 20.382813 20.382813 5.632812 0 10.730468-2.277344 14.421875-5.96875.117187-.117187.226562-.234375.332031-.351563-22.738281-43.074218-25.628906-90.386718-16.667969-123.265624-10.359375.960937-18.46875 9.6875-18.46875 20.300781zm0 0" fill="#d1d0d8"/><path d="m268.457031 223.613281v-88.902343c0-11.257813 9.128907-20.382813 20.382813-20.382813 5.632812 0 10.730468 2.277344 14.421875 5.96875.117187.117187.226562.234375.332031.351563 3.496094 3.65625 5.636719 8.609374 5.636719 14.0625v39.683593l65.335937-65.34375c7.964844-7.957031 20.875-7.957031 28.835938 0 7.960937 7.964844 7.960937 20.871094 0 28.835938l-65.339844 65.335937 39.679688.003906c11.265624-.003906 20.394531 9.125 20.394531 20.386719 0 11.257813-9.128907 20.390625-20.394531 20.390625h-88.902344c-.644532 0-1.285156-.03125-1.914063-.089844-10.359375-.960937-18.46875-9.6875-18.46875-20.300781zm0 0" fill="#d1d0d8"/><path d="m268.457031 223.613281v-88.902343c0-11.257813 9.128907-20.382813 20.382813-20.382813 5.632812 0 10.730468 2.277344 14.421875 5.96875.117187.117187.226562.234375.332031.351563-22.738281 43.074218-25.628906 90.386718-16.667969 123.265624-10.359375-.960937-18.46875-9.6875-18.46875-20.300781zm0 0" fill="#bdbcc4"/><path d="m243.542969 223.613281v-88.902343c0-11.257813-9.128907-20.382813-20.382813-20.382813-5.632812 0-10.730468 2.277344-14.421875 5.96875-.117187.117187-.226562.234375-.332031.351563-3.496094 3.65625-5.636719 8.609374-5.636719 14.0625v39.683593l-65.335937-65.34375c-7.964844-7.957031-20.875-7.957031-28.835938 0-7.960937 7.964844-7.960937 20.871094 0 28.835938l65.339844 65.335937-39.679688.003906c-11.265624-.003906-20.394531 9.125-20.394531 20.386719 0 11.257813 9.128907 20.390625 20.394531 20.390625h88.902344c.644532 0 1.285156-.03125 1.914063-.089844 10.359375-.960937 18.46875-9.6875 18.46875-20.300781zm0 0" fill="#e8e6ed"/><path d="m243.542969 223.613281v-88.902343c0-11.257813-9.128907-20.382813-20.382813-20.382813-5.632812 0-10.730468 2.277344-14.421875 5.96875-.117187.117187-.226562.234375-.332031.351563 22.738281 43.074218 25.628906 90.386718 16.667969 123.265624 10.359375-.960937 18.46875-9.6875 18.46875-20.300781zm0 0" fill="#d1d0d8"/><path d="m484.5 512h-116.652344c-4.144531 0-7.5-3.355469-7.5-7.5s3.355469-7.5 7.5-7.5h116.652344c6.894531 0 12.5-5.605469 12.5-12.5v-457c0-6.894531-5.605469-12.5-12.5-12.5h-244.144531c-4.144531 0-7.5-3.355469-7.5-7.5s3.355469-7.5 7.5-7.5h244.144531c15.164062 0 27.5 12.335938 27.5 27.5v457c0 15.164062-12.335938 27.5-27.5 27.5zm0 0"/><path d="m333.324219 512h-305.824219c-15.164062 0-27.5-12.335938-27.5-27.5v-320.683594c0-4.140625 3.359375-7.5 7.5-7.5s7.5 3.359375 7.5 7.5v320.683594c0 6.894531 5.605469 12.5 12.5 12.5h305.824219c4.144531 0 7.5 3.355469 7.5 7.5s-3.355469 7.5-7.5 7.5zm0 0"/><path d="m7.5 136.796875c-4.140625 0-7.5-3.359375-7.5-7.5v-101.796875c0-15.164062 12.335938-27.5 27.5-27.5h178.332031c4.140625 0 7.5 3.355469 7.5 7.5s-3.359375 7.5-7.5 7.5h-178.332031c-6.894531 0-12.5 5.605469-12.5 12.5v101.796875c0 4.140625-3.359375 7.5-7.5 7.5zm0 0"/><path d="m123.015625 416.402344c-7.144531 0-14.285156-2.714844-19.722656-8.152344-5.265625-5.269531-8.167969-12.269531-8.167969-19.722656 0-7.449219 2.902344-14.453125 8.167969-19.71875l52.535156-52.535156h-21.574219c-7.449218 0-14.453125-2.902344-19.71875-8.167969-5.269531-5.265625-8.167968-12.269531-8.167968-19.722657 0-15.375 12.511718-27.886718 27.886718-27.886718h88.902344c15.378906 0 27.890625 12.511718 27.890625 27.886718v88.902344c0 7.449219-2.902344 14.453125-8.167969 19.722656-5.265625 5.265626-12.269531 8.167969-19.71875 8.167969 0 0-.003906 0-.007812 0-7.445313 0-14.445313-2.902343-19.710938-8.167969-5.269531-5.269531-8.171875-12.269531-8.167968-19.722656v-21.570312l-52.535157 52.535156c-5.441406 5.4375-12.582031 8.152344-19.722656 8.152344zm11.238281-140.90625c-7.105468 0-12.886718 5.78125-12.886718 12.890625 0 3.441406 1.339843 6.679687 3.773437 9.113281s5.671875 3.773438 9.113281 3.773438h39.679688c3.035156 0 5.769531 1.828124 6.929687 4.628906 1.160157 2.804687.519531 6.027344-1.625 8.175781l-65.339843 65.335937c-2.433594 2.4375-3.773438 5.671876-3.773438 9.113282 0 3.445312 1.339844 6.679687 3.773438 9.117187 5.027343 5.019531 13.203124 5.019531 18.230468-.003906l65.335938-65.335937c2.144531-2.148438 5.371094-2.785157 8.171875-1.625 2.804687 1.160156 4.632812 3.894531 4.632812 6.925781v39.683593c0 3.441407 1.339844 6.679688 3.773438 9.113282 2.433593 2.433594 5.667969 3.773437 9.109375 3.773437h.003906c3.441406 0 6.679688-1.339843 9.113281-3.773437 2.433594-2.433594 3.773438-5.671875 3.773438-9.117188v-88.898437c0-7.109375-5.78125-12.890625-12.886719-12.890625zm0 0"/><path d="m388.984375 416.40625c-7.140625 0-14.28125-2.71875-19.71875-8.15625l-52.535156-52.535156v21.574218c0 7.449219-2.902344 14.453126-8.167969 19.71875-5.265625 5.269532-12.269531 8.167969-19.714844 8.167969-.003906 0-.003906 0-.007812 0-7.445313 0-14.449219-2.898437-19.71875-8.167969-5.269532-5.269531-8.167969-12.269531-8.167969-19.722656v-88.898437c0-15.378907 12.511719-27.890625 27.886719-27.890625h88.902344c15.378906 0 27.890624 12.511718 27.890624 27.890625 0 7.449219-2.902343 14.453125-8.167968 19.71875-5.269532 5.269531-12.269532 8.167969-19.71875 8.167969h-.003906-21.570313l52.535156 52.535156c10.871094 10.875 10.871094 28.566406 0 39.441406-5.4375 5.4375-12.578125 8.15625-19.722656 8.15625zm-79.753906-86.300781c1.949219 0 3.867187.761719 5.304687 2.199219l65.335938 65.335937c5.023437 5.027344 13.203125 5.027344 18.230468 0 5.023438-5.023437 5.023438-13.199219 0-18.226563l-65.339843-65.339843c-2.144531-2.144531-2.785157-5.371094-1.625-8.171875 1.160156-2.804688 3.894531-4.628906 6.929687-4.628906h39.679688c3.445312 0 6.679687-1.339844 9.113281-3.777344 2.433594-2.433594 3.773437-5.667969 3.773437-9.113282 0-7.105468-5.78125-12.886718-12.886718-12.886718h-88.902344c-7.105469 0-12.890625 5.78125-12.890625 12.886718v88.902344c0 3.445313 1.34375 6.679688 3.777344 9.113282 2.433593 2.4375 5.667969 3.777343 9.109375 3.777343h.003906c3.441406 0 6.679688-1.339843 9.109375-3.777343 2.4375-2.433594 3.777344-5.667969 3.777344-9.113282v-39.679687c0-3.03125 1.828125-5.769531 4.628906-6.929688.929687-.382812 1.90625-.570312 2.871094-.570312zm0 0"/><path d="m377.746094 251.503906h-88.902344c-15.378906 0-27.890625-12.511718-27.890625-27.890625v-88.898437c0-7.449219 2.902344-14.453125 8.167969-19.722656 5.269531-5.269532 12.273437-8.167969 19.71875-8.167969h.007812c7.449219 0 14.449219 2.898437 19.714844 8.167969 5.269531 5.265624 8.167969 12.269531 8.167969 19.71875v21.574218l52.535156-52.535156c10.875-10.871094 28.566406-10.871094 39.441406 0 10.871094 10.875 10.871094 28.566406 0 39.441406l-52.535156 52.535156h21.574219c7.449218 0 14.453125 2.898438 19.71875 8.167969 5.269531 5.265625 8.167968 12.269531 8.167968 19.71875 0 15.378907-12.511718 27.890625-27.886718 27.890625zm-88.902344-129.679687c-3.445312 0-6.679688 1.339843-9.113281 3.773437-2.433594 2.433594-3.777344 5.671875-3.777344 9.113282v88.902343c0 7.105469 5.785156 12.890625 12.890625 12.890625h88.902344c7.105468 0 12.890625-5.78125 12.890625-12.890625 0-3.441406-1.34375-6.679687-3.777344-9.113281s-5.667969-3.773438-9.113281-3.773438h-39.679688c-3.03125 0-5.769531-1.828124-6.929687-4.628906-1.160157-2.804687-.519531-6.03125 1.625-8.175781l65.339843-65.339844c5.023438-5.023437 5.023438-13.199219 0-18.226562-5.023437-5.023438-13.203124-5.027344-18.226562 0l-65.339844 65.339843c-2.144531 2.144532-5.371094 2.785157-8.171875 1.625-2.804687-1.160156-4.632812-3.894531-4.632812-6.929687v-39.679687c0-3.441407-1.339844-6.679688-3.773438-9.113282-2.433593-2.4375-5.667969-3.773437-9.109375-3.773437zm0 0"/><path d="m223.15625 251.503906h-88.902344c-15.375 0-27.886718-12.511718-27.886718-27.890625 0-7.449219 2.898437-14.453125 8.167968-19.71875 5.265625-5.269531 12.269532-8.167969 19.71875-8.167969h21.574219l-52.535156-52.535156c-5.269531-5.269531-8.167969-12.269531-8.167969-19.722656 0-7.449219 2.902344-14.449219 8.167969-19.71875 10.875-10.875 28.566406-10.875 39.441406 0l52.535156 52.535156v-21.574218c0-7.449219 2.898438-14.453126 8.167969-19.722657 5.265625-5.265625 12.269531-8.164062 19.714844-8.164062h.003906c7.449219-.003907 14.453125 2.898437 19.71875 8.167969 5.269531 5.265624 8.167969 12.269531 8.167969 19.71875v88.902343c.003906 15.378907-12.507813 27.890625-27.886719 27.890625zm-88.902344-40.777344c-3.441406 0-6.679687 1.339844-9.113281 3.773438s-3.773437 5.671875-3.773437 9.113281c0 7.109375 5.78125 12.890625 12.890624 12.890625h88.902344c7.105469 0 12.886719-5.78125 12.886719-12.890625v-88.898437c0-3.445313-1.339844-6.683594-3.773437-9.117188-2.433594-2.433594-5.671876-3.773437-9.113282-3.773437 0 0 0 0-.003906 0-3.441406 0-6.675781 1.339843-9.109375 3.773437-2.4375 2.433594-3.777344 5.671875-3.777344 9.113282v39.683593c0 3.03125-1.824219 5.765625-4.628906 6.925781-2.800781 1.164063-6.027344.523438-8.171875-1.625l-65.339844-65.335937c-5.023437-5.027344-13.203125-5.027344-18.226562 0-2.433594 2.433594-3.773438 5.667969-3.773438 9.113281 0 3.441406 1.339844 6.679688 3.773438 9.113282l65.335937 65.335937c2.148438 2.148437 2.789063 5.371094 1.628907 8.175781-1.164063 2.800782-3.898438 4.628906-6.929688 4.628906zm116.792969-76.011718h.007813zm0 0"/></svg>