<?xml version="1.0" encoding="utf-8"?>
<!-- Generator: Adobe Illustrator 16.0.0, SVG Export Plug-In . SVG Version: 6.00 Build 0)  -->
<!DOCTYPE svg PUBLIC "-//W3C//DTD SVG 1.1//EN" "http://www.w3.org/Graphics/SVG/1.1/DTD/svg11.dtd">
<svg preserveAspectRatio="none" version="1.1" id="Capa_1" xmlns="http://www.w3.org/2000/svg" xmlns:xlink="http://www.w3.org/1999/xlink" x="0px" y="0px"
	 width="41.1px" height="205.51px" viewBox="0 0 41.1 205.51" enable-background="new 0 0 41.1 205.51" xml:space="preserve">
<g>
	<rect y="0" width="41.1" height="205.509"/>
	<rect x="2.917" y="3.061" fill="#444242" width="35.267" height="199.39"/>
	<rect x="16.276" y="11.044" fill="#87868A" width="8.119" height="183.369"/>
	<path fill="#87868A" d="M35.631,10.054c0,0.547-0.363,0.99-0.809,0.99H6.277c-0.446,0-0.808-0.443-0.808-0.99l0,0
		c0-0.547,0.361-0.99,0.808-0.99h28.545C35.268,9.064,35.631,9.507,35.631,10.054L35.631,10.054z"/>
	<path fill="#87868A" d="M35.631,195.149c0,0.549-0.363,0.992-0.809,0.992H6.276c-0.446,0-0.808-0.443-0.808-0.992l0,0
		c0-0.547,0.361-0.988,0.808-0.988h28.546C35.268,194.161,35.631,194.603,35.631,195.149L35.631,195.149z"/>
	<path fill="#87868A" d="M30.257,185.937c0,0.297-0.232,0.537-0.52,0.537H11.363c-0.288,0-0.521-0.24-0.521-0.537l0,0
		c0-0.297,0.233-0.539,0.521-0.539h18.375C30.024,185.397,30.257,185.64,30.257,185.937L30.257,185.937z"/>
	<path fill="#87868A" d="M30.257,176.72c0,0.297-0.232,0.537-0.52,0.537H11.363c-0.288,0-0.521-0.24-0.521-0.537l0,0
		c0-0.297,0.233-0.539,0.521-0.539h18.375C30.024,176.181,30.257,176.423,30.257,176.72L30.257,176.72z"/>
	<path fill="#87868A" d="M30.043,166.73c0,0.297-0.232,0.537-0.52,0.537H11.149c-0.288,0-0.521-0.24-0.521-0.537l0,0
		c0-0.297,0.233-0.539,0.521-0.539h18.375C29.811,166.191,30.043,166.434,30.043,166.73L30.043,166.73z"/>
	<path fill="#87868A" d="M30.043,157.516c0,0.297-0.232,0.537-0.52,0.537H11.149c-0.288,0-0.521-0.24-0.521-0.537l0,0
		c0-0.297,0.233-0.539,0.521-0.539h18.375C29.811,156.977,30.043,157.219,30.043,157.516L30.043,157.516z"/>
	<path fill="#87868A" d="M30.043,148.299c0,0.297-0.232,0.537-0.52,0.537H11.149c-0.288,0-0.521-0.24-0.521-0.537l0,0
		c0-0.297,0.233-0.539,0.521-0.539h18.375C29.811,147.76,30.043,148.002,30.043,148.299L30.043,148.299z"/>
	<path fill="#87868A" d="M30.043,139.082c0,0.297-0.232,0.537-0.52,0.537H11.149c-0.288,0-0.521-0.24-0.521-0.537l0,0
		c0-0.297,0.233-0.539,0.521-0.539h18.375C29.811,138.543,30.043,138.785,30.043,139.082L30.043,139.082z"/>
	<path fill="#87868A" d="M30.043,129.867c0,0.297-0.232,0.537-0.52,0.537H11.149c-0.288,0-0.521-0.24-0.521-0.537l0,0
		c0-0.297,0.233-0.539,0.521-0.539h18.375C29.811,129.328,30.043,129.57,30.043,129.867L30.043,129.867z"/>
	<path fill="#87868A" d="M30.043,120.65c0,0.297-0.232,0.537-0.52,0.537H11.149c-0.288,0-0.521-0.24-0.521-0.537l0,0
		c0-0.297,0.233-0.539,0.521-0.539h18.375C29.811,120.111,30.043,120.354,30.043,120.65L30.043,120.65z"/>
	<path fill="#87868A" d="M30.043,111.434c0,0.297-0.232,0.537-0.52,0.537H11.149c-0.288,0-0.521-0.24-0.521-0.537l0,0
		c0-0.297,0.233-0.539,0.521-0.539h18.375C29.811,110.895,30.043,111.137,30.043,111.434L30.043,111.434z"/>
	<path fill="#87868A" d="M30.258,102.217c0,0.297-0.233,0.538-0.52,0.538H11.363c-0.288,0-0.521-0.241-0.521-0.538l0,0
		c0-0.297,0.233-0.539,0.521-0.539h18.375C30.024,101.678,30.258,101.92,30.258,102.217L30.258,102.217z"/>
	<path fill="#87868A" d="M33.309,93.167c0,0.315-0.307,0.57-0.682,0.57H8.476c-0.377,0-0.684-0.255-0.684-0.57l0,0
		c0-0.315,0.307-0.573,0.684-0.573h24.151C33.002,92.595,33.309,92.852,33.309,93.167L33.309,93.167z"/>
	<path fill="#87868A" d="M30.258,83.785c0,0.297-0.233,0.537-0.52,0.537H11.363c-0.288,0-0.521-0.24-0.521-0.537l0,0
		c0-0.297,0.233-0.539,0.521-0.539h18.375C30.024,83.246,30.258,83.488,30.258,83.785L30.258,83.785z"/>
	<path fill="#87868A" d="M30.258,74.568c0,0.297-0.233,0.537-0.52,0.537H11.363c-0.288,0-0.521-0.24-0.521-0.537l0,0
		c0-0.297,0.233-0.539,0.521-0.539h18.375C30.024,74.029,30.258,74.271,30.258,74.568L30.258,74.568z"/>
	<path fill="#87868A" d="M30.258,65.352c0,0.297-0.233,0.537-0.52,0.537H11.363c-0.288,0-0.521-0.24-0.521-0.537l0,0
		c0-0.297,0.233-0.539,0.521-0.539h18.375C30.024,64.813,30.258,65.055,30.258,65.352L30.258,65.352z"/>
	<path fill="#87868A" d="M30.258,56.136c0,0.297-0.233,0.537-0.52,0.537H11.363c-0.288,0-0.521-0.24-0.521-0.537l0,0
		c0-0.297,0.233-0.539,0.521-0.539h18.375C30.024,55.597,30.258,55.839,30.258,56.136L30.258,56.136z"/>
	<path fill="#87868A" d="M30.258,46.92c0,0.297-0.233,0.537-0.52,0.537H11.363c-0.288,0-0.521-0.24-0.521-0.537l0,0
		c0-0.297,0.233-0.539,0.521-0.539h18.375C30.024,46.381,30.258,46.623,30.258,46.92L30.258,46.92z"/>
	<path fill="#87868A" d="M30.258,37.704c0,0.297-0.233,0.537-0.52,0.537H11.363c-0.288,0-0.521-0.24-0.521-0.537l0,0
		c0-0.297,0.233-0.539,0.521-0.539h18.375C30.024,37.165,30.258,37.407,30.258,37.704L30.258,37.704z"/>
	<path fill="#87868A" d="M30.258,28.487c0,0.297-0.233,0.537-0.52,0.537H11.363c-0.288,0-0.521-0.24-0.521-0.537l0,0
		c0-0.297,0.233-0.539,0.521-0.539h18.375C30.024,27.948,30.258,28.19,30.258,28.487L30.258,28.487z"/>
	<path fill="#87868A" d="M30.258,19.271c0,0.297-0.233,0.537-0.52,0.537H11.363c-0.288,0-0.521-0.24-0.521-0.537l0,0
		c0-0.297,0.233-0.539,0.521-0.539h18.375C30.024,18.732,30.258,18.975,30.258,19.271L30.258,19.271z"/>
	<rect x="18.35" y="11.044" width="3.972" height="183.117"/>
</g>
</svg>
