<?xml version="1.0" encoding="utf-8"?>
<!-- Generator: Adobe Illustrator 16.0.0, SVG Export Plug-In . SVG Version: 6.00 Build 0)  -->
<!DOCTYPE svg PUBLIC "-//W3C//DTD SVG 1.1//EN" "http://www.w3.org/Graphics/SVG/1.1/DTD/svg11.dtd">
<svg preserveAspectRatio="none" version="1.1" id="Capa_1" xmlns="http://www.w3.org/2000/svg" xmlns:xlink="http://www.w3.org/1999/xlink" x="0px" y="0px"
	 width="41.1px" height="13.04px" viewBox="0 0 41.1 13.04" enable-background="new 0 0 41.1 13.04" xml:space="preserve">
<g>
	<path fill="#D8D9DD" d="M35.603,9.521c0,0.918,0.08,3.496-3.072,3.496H8.569c-3.151,0-3.072-2.578-3.072-3.496v-5
		c0-3.588-0.081-4.496,3.072-4.496H32.53c3.154,0,3.072,0.908,3.072,4.496V9.521z"/>
	<g>
		<defs>
			<rect id="SVGID_1_" x="5.497" y="3.646" width="30.106" height="5.75"/>
		</defs>
		<clipPath id="SVGID_2_">
			<use xlink:href="#SVGID_1_"  overflow="visible"/>
		</clipPath>
		<path clip-path="url(#SVGID_2_)" fill="#87868A" d="M35.603,9.521c0,0.918,0.08,3.494-3.072,3.494H8.569
			c-3.151,0-3.072-2.576-3.072-3.494v-5c0-3.588-0.081-4.496,3.072-4.496H32.53c3.154,0,3.072,0.908,3.072,4.496V9.521z"/>
	</g>
</g>
</svg>
