<?xml version="1.0" encoding="utf-8"?>
<!-- Generator: Adobe Illustrator 16.0.0, SVG Export Plug-In . SVG Version: 6.00 Build 0)  -->
<!DOCTYPE svg PUBLIC "-//W3C//DTD SVG 1.1//EN" "http://www.w3.org/Graphics/SVG/1.1/DTD/svg11.dtd">
<svg preserveAspectRatio="none" version="1.1" id="Capa_1" xmlns="http://www.w3.org/2000/svg" xmlns:xlink="http://www.w3.org/1999/xlink" x="0px" y="0px"
	 width="13.04px" height="41.1px" viewBox="0 0 13.04 41.1" enable-background="new 0 0 13.04 41.1" xml:space="preserve">
<g>
	<path fill="#D8D9DD" d="M9.55,5.468c0.918,0,3.496-0.08,3.496,3.072v23.962c0,3.151-2.578,3.072-3.496,3.072h-5
		c-3.588,0-4.496,0.081-4.496-3.072V8.54c0-3.154,0.908-3.072,4.496-3.072H9.55z"/>
	<g>
		<defs>
			<rect id="SVGID_1_" x="3.675" y="5.468" width="5.75" height="30.106"/>
		</defs>
		<clipPath id="SVGID_2_">
			<use xlink:href="#SVGID_1_"  overflow="visible"/>
		</clipPath>
		<path clip-path="url(#SVGID_2_)" fill="#87868A" d="M9.55,5.468c0.918,0,3.494-0.08,3.494,3.072v23.962
			c0,3.151-2.576,3.072-3.494,3.072h-5c-3.588,0-4.496,0.081-4.496-3.072V8.54c0-3.154,0.908-3.072,4.496-3.072H9.55z"/>
	</g>
</g>
</svg>
