<?xml version="1.0" encoding="utf-8"?>
<!-- Generator: Adobe Illustrator 16.0.0, SVG Export Plug-In . SVG Version: 6.00 Build 0)  -->
<!DOCTYPE svg PUBLIC "-//W3C//DTD SVG 1.1//EN" "http://www.w3.org/Graphics/SVG/1.1/DTD/svg11.dtd">
<svg preserveAspectRatio="none" version="1.1" id="Capa_1" xmlns="http://www.w3.org/2000/svg" xmlns:xlink="http://www.w3.org/1999/xlink" x="0px" y="0px"
	 width="205.51px" height="41.1px" viewBox="0 0 205.51 41.1" enable-background="new 0 0 205.51 41.1" xml:space="preserve">
<g>
	<rect width="205.51" height="41.1"/>
	<rect x="3.061" y="2.916" fill="#444242" width="199.39" height="35.268"/>
	<rect x="11.044" y="16.704" fill="#87868A" width="183.369" height="8.119"/>
	<path fill="#87868A" d="M10.054,5.469c0.547,0,0.99,0.363,0.99,0.809v28.546c0,0.446-0.443,0.808-0.99,0.808l0,0
		c-0.547,0-0.99-0.361-0.99-0.808V6.277C9.063,5.832,9.507,5.469,10.054,5.469L10.054,5.469z"/>
	<path fill="#87868A" d="M195.149,5.469c0.549,0,0.992,0.363,0.992,0.809v28.546c0,0.446-0.443,0.808-0.992,0.808l0,0
		c-0.547,0-0.988-0.361-0.988-0.808V6.277C194.161,5.832,194.603,5.469,195.149,5.469L195.149,5.469z"/>
	<path fill="#87868A" d="M185.937,10.843c0.297,0,0.537,0.232,0.537,0.52v18.375c0,0.287-0.24,0.521-0.537,0.521l0,0
		c-0.297,0-0.539-0.233-0.539-0.521V11.362C185.397,11.075,185.64,10.843,185.937,10.843L185.937,10.843z"/>
	<path fill="#87868A" d="M176.72,10.843c0.297,0,0.537,0.232,0.537,0.52v18.375c0,0.287-0.24,0.521-0.537,0.521l0,0
		c-0.297,0-0.539-0.233-0.539-0.521V11.362C176.181,11.075,176.423,10.843,176.72,10.843L176.72,10.843z"/>
	<path fill="#87868A" d="M166.73,11.057c0.297,0,0.537,0.232,0.537,0.52v18.375c0,0.287-0.24,0.521-0.537,0.521l0,0
		c-0.297,0-0.539-0.233-0.539-0.521V11.576C166.191,11.289,166.434,11.057,166.73,11.057L166.73,11.057z"/>
	<path fill="#87868A" d="M157.516,11.057c0.297,0,0.537,0.232,0.537,0.52v18.375c0,0.287-0.24,0.521-0.537,0.521l0,0
		c-0.297,0-0.539-0.233-0.539-0.521V11.576C156.977,11.289,157.219,11.057,157.516,11.057L157.516,11.057z"/>
	<path fill="#87868A" d="M148.299,11.057c0.297,0,0.537,0.232,0.537,0.52v18.375c0,0.287-0.24,0.521-0.537,0.521l0,0
		c-0.297,0-0.539-0.233-0.539-0.521V11.576C147.76,11.289,148.002,11.057,148.299,11.057L148.299,11.057z"/>
	<path fill="#87868A" d="M139.082,11.057c0.297,0,0.537,0.232,0.537,0.52v18.375c0,0.287-0.24,0.521-0.537,0.521l0,0
		c-0.297,0-0.539-0.233-0.539-0.521V11.576C138.543,11.289,138.785,11.057,139.082,11.057L139.082,11.057z"/>
	<path fill="#87868A" d="M129.867,11.057c0.297,0,0.537,0.232,0.537,0.52v18.375c0,0.287-0.24,0.521-0.537,0.521l0,0
		c-0.297,0-0.539-0.233-0.539-0.521V11.576C129.328,11.289,129.57,11.057,129.867,11.057L129.867,11.057z"/>
	<path fill="#87868A" d="M120.65,11.057c0.297,0,0.537,0.232,0.537,0.52v18.375c0,0.287-0.24,0.521-0.537,0.521l0,0
		c-0.297,0-0.539-0.233-0.539-0.521V11.576C120.111,11.289,120.354,11.057,120.65,11.057L120.65,11.057z"/>
	<path fill="#87868A" d="M111.434,11.057c0.297,0,0.537,0.232,0.537,0.52v18.375c0,0.287-0.24,0.521-0.537,0.521l0,0
		c-0.297,0-0.539-0.233-0.539-0.521V11.576C110.895,11.289,111.137,11.057,111.434,11.057L111.434,11.057z"/>
	<path fill="#87868A" d="M102.216,10.842c0.297,0,0.538,0.233,0.538,0.52l0,18.375c0,0.288-0.241,0.521-0.538,0.521l0,0
		c-0.297,0-0.539-0.232-0.539-0.521l0-18.375C101.677,11.075,101.919,10.842,102.216,10.842L102.216,10.842z"/>
	<path fill="#87868A" d="M93.167,7.791c0.315,0,0.57,0.307,0.57,0.682v24.151c0,0.377-0.255,0.684-0.57,0.684l0,0
		c-0.315,0-0.572-0.307-0.572-0.684l0-24.151C92.594,8.098,92.852,7.791,93.167,7.791L93.167,7.791z"/>
	<path fill="#87868A" d="M83.784,10.842c0.297,0,0.537,0.233,0.537,0.52v18.375c0,0.288-0.24,0.521-0.537,0.521l0,0
		c-0.297,0-0.539-0.232-0.539-0.521V11.361C83.245,11.075,83.487,10.842,83.784,10.842L83.784,10.842z"/>
	<path fill="#87868A" d="M74.568,10.842c0.297,0,0.537,0.233,0.537,0.52v18.375c0,0.288-0.24,0.521-0.537,0.521l0,0
		c-0.297,0-0.539-0.232-0.539-0.521V11.361C74.029,11.075,74.271,10.842,74.568,10.842L74.568,10.842z"/>
	<path fill="#87868A" d="M65.352,10.842c0.297,0,0.537,0.233,0.537,0.52v18.375c0,0.288-0.24,0.521-0.537,0.521l0,0
		c-0.297,0-0.539-0.232-0.539-0.521V11.361C64.813,11.075,65.055,10.842,65.352,10.842L65.352,10.842z"/>
	<path fill="#87868A" d="M56.136,10.842c0.297,0,0.537,0.233,0.537,0.52v18.375c0,0.288-0.24,0.521-0.537,0.521l0,0
		c-0.297,0-0.539-0.232-0.539-0.521V11.361C55.597,11.075,55.839,10.842,56.136,10.842L56.136,10.842z"/>
	<path fill="#87868A" d="M46.919,10.842c0.297,0,0.537,0.233,0.537,0.52v18.375c0,0.288-0.24,0.521-0.537,0.521l0,0
		c-0.297,0-0.539-0.232-0.539-0.521V11.361C46.38,11.075,46.623,10.842,46.919,10.842L46.919,10.842z"/>
	<path fill="#87868A" d="M37.703,10.842c0.297,0,0.537,0.233,0.537,0.52v18.375c0,0.288-0.24,0.521-0.537,0.521l0,0
		c-0.297,0-0.539-0.232-0.539-0.521V11.361C37.164,11.075,37.406,10.842,37.703,10.842L37.703,10.842z"/>
	<path fill="#87868A" d="M28.487,10.842c0.297,0,0.537,0.233,0.537,0.52v18.375c0,0.288-0.24,0.521-0.537,0.521l0,0
		c-0.297,0-0.539-0.232-0.539-0.521V11.361C27.948,11.075,28.19,10.842,28.487,10.842L28.487,10.842z"/>
	<path fill="#87868A" d="M19.271,10.842c0.297,0,0.537,0.233,0.537,0.52v18.375c0,0.288-0.24,0.521-0.537,0.521l0,0
		c-0.297,0-0.539-0.232-0.539-0.521V11.361C18.732,11.075,18.974,10.842,19.271,10.842L19.271,10.842z"/>
	<rect x="11.044" y="18.777" width="183.117" height="3.973"/>
</g>
</svg>
