<?xml version="1.0" encoding="utf-8"?>
<!-- Generator: Adobe Illustrator 16.0.0, SVG Export Plug-In . SVG Version: 6.00 Build 0)  -->
<!DOCTYPE svg PUBLIC "-//W3C//DTD SVG 1.1//EN" "http://www.w3.org/Graphics/SVG/1.1/DTD/svg11.dtd">
<svg preserveAspectRatio="none" version="1.1" id="Capa_1" xmlns="http://www.w3.org/2000/svg" xmlns:xlink="http://www.w3.org/1999/xlink" x="0px" y="0px"
	 width="41.1px" height="205.51px" viewBox="0 0 41.1 205.51" enable-background="new 0 0 41.1 205.51" xml:space="preserve">
<g>
	<rect y="0.402" width="41.1" height="205.509"/>
	<rect x="2.917" y="3.462" fill="#444242" width="35.267" height="199.39"/>
</g>
<g>
	<rect x="15.098" y="11.914" fill="#87868A" width="10.904" height="182.414"/>
	<path fill="#87868A" d="M35.631,10.995c0,0.547-0.362,0.99-0.808,0.99H6.277c-0.446,0-0.808-0.443-0.808-0.99l0,0
		c0-0.547,0.362-0.99,0.808-0.99h28.546C35.269,10.005,35.631,10.448,35.631,10.995L35.631,10.995z"/>
	<path fill="#87868A" d="M35.631,195.316c0,0.549-0.362,0.992-0.808,0.992H6.277c-0.446,0-0.808-0.443-0.808-0.992l0,0
		c0-0.547,0.362-0.988,0.808-0.988h28.546C35.269,194.328,35.631,194.77,35.631,195.316L35.631,195.316z"/>
	<path fill="#87868A" d="M31.044,186.104c0,0.297-0.252,0.537-0.561,0.537H10.619c-0.311,0-0.563-0.24-0.563-0.537l0,0
		c0-0.297,0.252-0.539,0.563-0.539h19.865C30.792,185.564,31.044,185.807,31.044,186.104L31.044,186.104z"/>
	<path fill="#87868A" d="M31.044,176.887c0,0.297-0.252,0.537-0.561,0.537H10.619c-0.311,0-0.563-0.24-0.563-0.537l0,0
		c0-0.297,0.252-0.539,0.563-0.539h19.865C30.792,176.348,31.044,176.59,31.044,176.887L31.044,176.887z"/>
	<path fill="#87868A" d="M31.044,167.671c0,0.297-0.252,0.537-0.561,0.537H10.619c-0.311,0-0.563-0.24-0.563-0.537l0,0
		c0-0.297,0.252-0.539,0.563-0.539h19.865C30.792,167.132,31.044,167.374,31.044,167.671L31.044,167.671z"/>
	<path fill="#87868A" d="M31.044,158.455c0,0.297-0.252,0.537-0.561,0.537H10.619c-0.311,0-0.563-0.24-0.563-0.537l0,0
		c0-0.297,0.252-0.539,0.563-0.539h19.865C30.792,157.916,31.044,158.158,31.044,158.455L31.044,158.455z"/>
	<path fill="#87868A" d="M31.044,149.238c0,0.297-0.252,0.537-0.561,0.537H10.619c-0.311,0-0.563-0.24-0.563-0.537l0,0
		c0-0.297,0.252-0.539,0.563-0.539h19.865C30.792,148.699,31.044,148.941,31.044,149.238L31.044,149.238z"/>
	<path fill="#87868A" d="M31.044,140.022c0,0.297-0.252,0.537-0.561,0.537H10.619c-0.311,0-0.563-0.24-0.563-0.537l0,0
		c0-0.297,0.252-0.539,0.563-0.539h19.865C30.792,139.483,31.044,139.726,31.044,140.022L31.044,140.022z"/>
	<path fill="#87868A" d="M31.044,130.807c0,0.297-0.252,0.537-0.561,0.537H10.619c-0.311,0-0.563-0.24-0.563-0.537l0,0
		c0-0.297,0.252-0.539,0.563-0.539h19.865C30.792,130.268,31.044,130.51,31.044,130.807L31.044,130.807z"/>
	<path fill="#87868A" d="M31.044,121.59c0,0.297-0.252,0.537-0.561,0.537H10.619c-0.311,0-0.563-0.24-0.563-0.537l0,0
		c0-0.297,0.252-0.539,0.563-0.539h19.865C30.792,121.051,31.044,121.293,31.044,121.59L31.044,121.59z"/>
	<path fill="#87868A" d="M31.044,112.374c0,0.297-0.252,0.537-0.561,0.537H10.619c-0.311,0-0.563-0.24-0.563-0.537l0,0
		c0-0.297,0.252-0.539,0.563-0.539h19.865C30.792,111.835,31.044,112.077,31.044,112.374L31.044,112.374z"/>
	<path fill="#87868A" d="M31.044,103.158c0,0.297-0.252,0.538-0.561,0.538H10.619c-0.311,0-0.563-0.241-0.563-0.538l0,0
		c0-0.297,0.252-0.539,0.563-0.539h19.865C30.792,102.619,31.044,102.861,31.044,103.158L31.044,103.158z"/>
	<path fill="#87868A" d="M31.044,93.941c0,0.297-0.252,0.537-0.561,0.537H10.619c-0.311,0-0.563-0.24-0.563-0.537l0,0
		c0-0.297,0.252-0.539,0.563-0.539h19.865C30.792,93.402,31.044,93.645,31.044,93.941L31.044,93.941z"/>
	<path fill="#87868A" d="M31.044,84.726c0,0.297-0.252,0.537-0.561,0.537H10.619c-0.311,0-0.563-0.24-0.563-0.537l0,0
		c0-0.297,0.252-0.539,0.563-0.539h19.865C30.792,84.187,31.044,84.429,31.044,84.726L31.044,84.726z"/>
	<path fill="#87868A" d="M31.044,75.509c0,0.297-0.252,0.537-0.561,0.537H10.619c-0.311,0-0.563-0.24-0.563-0.537l0,0
		c0-0.297,0.252-0.539,0.563-0.539h19.865C30.792,74.97,31.044,75.212,31.044,75.509L31.044,75.509z"/>
	<path fill="#87868A" d="M31.044,66.293c0,0.297-0.252,0.537-0.561,0.537H10.619c-0.311,0-0.563-0.24-0.563-0.537l0,0
		c0-0.297,0.252-0.539,0.563-0.539h19.865C30.792,65.754,31.044,65.996,31.044,66.293L31.044,66.293z"/>
	<path fill="#87868A" d="M31.044,57.077c0,0.297-0.252,0.537-0.561,0.537H10.619c-0.311,0-0.563-0.24-0.563-0.537l0,0
		c0-0.297,0.252-0.539,0.563-0.539h19.865C30.792,56.538,31.044,56.78,31.044,57.077L31.044,57.077z"/>
	<path fill="#87868A" d="M31.044,47.861c0,0.297-0.252,0.537-0.561,0.537H10.619c-0.311,0-0.563-0.24-0.563-0.537l0,0
		c0-0.297,0.252-0.539,0.563-0.539h19.865C30.792,47.322,31.044,47.564,31.044,47.861L31.044,47.861z"/>
	<path fill="#87868A" d="M31.044,38.645c0,0.297-0.252,0.537-0.561,0.537H10.619c-0.311,0-0.563-0.24-0.563-0.537l0,0
		c0-0.297,0.252-0.539,0.563-0.539h19.865C30.792,38.105,31.044,38.348,31.044,38.645L31.044,38.645z"/>
	<path fill="#87868A" d="M31.044,29.428c0,0.297-0.252,0.537-0.561,0.537H10.619c-0.311,0-0.563-0.24-0.563-0.537l0,0
		c0-0.297,0.252-0.539,0.563-0.539h19.865C30.792,28.889,31.044,29.131,31.044,29.428L31.044,29.428z"/>
	<path fill="#87868A" d="M31.044,20.212c0,0.297-0.252,0.537-0.561,0.537H10.619c-0.311,0-0.563-0.24-0.563-0.537l0,0
		c0-0.297,0.252-0.539,0.563-0.539h19.865C30.792,19.673,31.044,19.916,31.044,20.212L31.044,20.212z"/>
	<rect x="17.882" y="11.914" width="5.335" height="181.154"/>
</g>
</svg>
