<?xml version="1.0" encoding="utf-8"?>
<!-- Generator: Adobe Illustrator 16.0.0, SVG Export Plug-In . SVG Version: 6.00 Build 0)  -->
<!DOCTYPE svg PUBLIC "-//W3C//DTD SVG 1.1//EN" "http://www.w3.org/Graphics/SVG/1.1/DTD/svg11.dtd">
<svg preserveAspectRatio="none" version="1.1" id="Capa_1" xmlns="http://www.w3.org/2000/svg" xmlns:xlink="http://www.w3.org/1999/xlink" x="0px" y="0px"
	 width="205.51px" height="41.1px" viewBox="0 0 205.51 41.1" enable-background="new 0 0 205.51 41.1" xml:space="preserve">
<g>
	<g>
		<rect x="0.072" y="0.055" width="205.51" height="41.1"/>
		<rect x="3.133" y="2.971" fill="#444242" width="199.39" height="35.268"/>
	</g>
	<g>
		<rect x="11.584" y="15.152" fill="#87868A" width="182.415" height="10.904"/>
		<path fill="#87868A" d="M10.666,5.523c0.547,0,0.99,0.362,0.99,0.808v28.546c0,0.446-0.443,0.809-0.99,0.809l0,0
			c-0.547,0-0.99-0.362-0.99-0.809V6.331C9.675,5.886,10.119,5.523,10.666,5.523L10.666,5.523z"/>
		<path fill="#87868A" d="M194.987,5.523c0.549,0,0.992,0.362,0.992,0.808v28.546c0,0.446-0.443,0.809-0.992,0.809l0,0
			c-0.547,0-0.988-0.362-0.988-0.809V6.331C193.999,5.886,194.44,5.523,194.987,5.523L194.987,5.523z"/>
		<path fill="#87868A" d="M185.774,10.11c0.297,0,0.537,0.252,0.537,0.561v19.865c0,0.311-0.24,0.563-0.537,0.563l0,0
			c-0.297,0-0.539-0.252-0.539-0.563V10.671C185.235,10.362,185.478,10.11,185.774,10.11L185.774,10.11z"/>
		<path fill="#87868A" d="M176.558,10.11c0.297,0,0.537,0.252,0.537,0.561v19.865c0,0.311-0.24,0.563-0.537,0.563l0,0
			c-0.297,0-0.539-0.252-0.539-0.563V10.671C176.019,10.362,176.261,10.11,176.558,10.11L176.558,10.11z"/>
		<path fill="#87868A" d="M167.342,10.11c0.297,0,0.537,0.252,0.537,0.561v19.865c0,0.311-0.24,0.563-0.537,0.563l0,0
			c-0.297,0-0.539-0.252-0.539-0.563V10.671C166.803,10.362,167.045,10.11,167.342,10.11L167.342,10.11z"/>
		<path fill="#87868A" d="M158.126,10.11c0.297,0,0.537,0.252,0.537,0.561v19.865c0,0.311-0.24,0.563-0.537,0.563l0,0
			c-0.297,0-0.539-0.252-0.539-0.563V10.671C157.587,10.362,157.829,10.11,158.126,10.11L158.126,10.11z"/>
		<path fill="#87868A" d="M148.909,10.11c0.297,0,0.537,0.252,0.537,0.561v19.865c0,0.311-0.24,0.563-0.537,0.563l0,0
			c-0.297,0-0.539-0.252-0.539-0.563V10.671C148.37,10.362,148.612,10.11,148.909,10.11L148.909,10.11z"/>
		<path fill="#87868A" d="M139.693,10.11c0.297,0,0.537,0.252,0.537,0.561v19.865c0,0.311-0.24,0.563-0.537,0.563l0,0
			c-0.297,0-0.539-0.252-0.539-0.563V10.671C139.154,10.362,139.396,10.11,139.693,10.11L139.693,10.11z"/>
		<path fill="#87868A" d="M130.478,10.11c0.297,0,0.537,0.252,0.537,0.561v19.865c0,0.311-0.24,0.563-0.537,0.563l0,0
			c-0.297,0-0.539-0.252-0.539-0.563V10.671C129.938,10.362,130.181,10.11,130.478,10.11L130.478,10.11z"/>
		<path fill="#87868A" d="M121.261,10.11c0.297,0,0.537,0.252,0.537,0.561v19.865c0,0.311-0.24,0.563-0.537,0.563l0,0
			c-0.297,0-0.539-0.252-0.539-0.563V10.671C120.722,10.362,120.964,10.11,121.261,10.11L121.261,10.11z"/>
		<path fill="#87868A" d="M112.045,10.11c0.297,0,0.537,0.252,0.537,0.561v19.865c0,0.311-0.24,0.563-0.537,0.563l0,0
			c-0.297,0-0.539-0.252-0.539-0.563V10.671C111.506,10.362,111.748,10.11,112.045,10.11L112.045,10.11z"/>
		<path fill="#87868A" d="M102.828,10.11c0.297,0,0.538,0.252,0.538,0.561l0,19.865c0,0.311-0.241,0.563-0.538,0.563l0,0
			c-0.297,0-0.539-0.252-0.539-0.563l0-19.865C102.289,10.362,102.531,10.11,102.828,10.11L102.828,10.11z"/>
		<path fill="#87868A" d="M93.612,10.11c0.297,0,0.537,0.252,0.537,0.561l0,19.865c0,0.311-0.24,0.563-0.537,0.563l0,0
			c-0.297,0-0.539-0.252-0.539-0.563l0-19.865C93.073,10.362,93.315,10.11,93.612,10.11L93.612,10.11z"/>
		<path fill="#87868A" d="M84.396,10.11c0.297,0,0.537,0.252,0.537,0.561v19.865c0,0.311-0.24,0.563-0.537,0.563l0,0
			c-0.297,0-0.539-0.252-0.539-0.563V10.671C83.857,10.362,84.099,10.11,84.396,10.11L84.396,10.11z"/>
		<path fill="#87868A" d="M75.18,10.11c0.297,0,0.537,0.252,0.537,0.561v19.865c0,0.311-0.24,0.563-0.537,0.563l0,0
			c-0.297,0-0.539-0.252-0.539-0.563V10.671C74.641,10.362,74.883,10.11,75.18,10.11L75.18,10.11z"/>
		<path fill="#87868A" d="M65.963,10.11c0.297,0,0.537,0.252,0.537,0.561l0,19.865c0,0.311-0.24,0.563-0.537,0.563l0,0
			c-0.297,0-0.539-0.252-0.539-0.563l0-19.865C65.424,10.362,65.667,10.11,65.963,10.11L65.963,10.11z"/>
		<path fill="#87868A" d="M56.748,10.11c0.297,0,0.537,0.252,0.537,0.561v19.865c0,0.311-0.24,0.563-0.537,0.563l0,0
			c-0.297,0-0.539-0.252-0.539-0.563V10.671C56.208,10.362,56.451,10.11,56.748,10.11L56.748,10.11z"/>
		<path fill="#87868A" d="M47.531,10.11c0.297,0,0.537,0.252,0.537,0.561v19.865c0,0.311-0.24,0.563-0.537,0.563l0,0
			c-0.297,0-0.539-0.252-0.539-0.563V10.671C46.992,10.362,47.234,10.11,47.531,10.11L47.531,10.11z"/>
		<path fill="#87868A" d="M38.315,10.11c0.297,0,0.537,0.252,0.537,0.561v19.865c0,0.311-0.24,0.563-0.537,0.563l0,0
			c-0.297,0-0.539-0.252-0.539-0.563V10.671C37.776,10.362,38.018,10.11,38.315,10.11L38.315,10.11z"/>
		<path fill="#87868A" d="M29.099,10.11c0.297,0,0.537,0.252,0.537,0.561v19.865c0,0.311-0.24,0.563-0.537,0.563l0,0
			c-0.297,0-0.539-0.252-0.539-0.563V10.671C28.56,10.362,28.802,10.11,29.099,10.11L29.099,10.11z"/>
		<path fill="#87868A" d="M19.883,10.11c0.297,0,0.537,0.252,0.537,0.561v19.865c0,0.311-0.24,0.563-0.537,0.563l0,0
			c-0.297,0-0.539-0.252-0.539-0.563V10.671C19.344,10.362,19.586,10.11,19.883,10.11L19.883,10.11z"/>
		<rect x="11.584" y="17.937" width="181.155" height="5.336"/>
	</g>
</g>
</svg>
