<?xml version="1.0"?>
<svg xmlns:rdf="http://www.w3.org/1999/02/22-rdf-syntax-ns#" xmlns="http://www.w3.org/2000/svg" xmlns:cc="http://web.resource.org/cc/" xmlns:xlink="http://www.w3.org/1999/xlink" xmlns:dc="http://purl.org/dc/elements/1.1/" xmlns:svg="http://www.w3.org/2000/svg" id="svg2" viewBox="0 0 400 400" version="1.0">
  <defs id="defs4">
    <linearGradient id="linearGradient3153">
      <stop id="stop3155" stop-color="#fff" offset="0"/>
      <stop id="stop3157" stop-color="#fff" stop-opacity="0" offset="1"/>
    </linearGradient>
    <filter id="filter3315">
      <feGaussianBlur id="feGaussianBlur3317" stdDeviation="3.7000001"/>
    </filter>
    <radialGradient id="radialGradient3328" xlink:href="#linearGradient3153" gradientUnits="userSpaceOnUse" cy="209.67" cx="289.43" gradientTransform="matrix(-.86959 .86959 -1.9615 -1.9615 681.51 178.14)" r="92.5"/>
    <radialGradient id="radialGradient3331" xlink:href="#linearGradient3153" gradientUnits="userSpaceOnUse" cy="209.67" cx="289.43" gradientTransform="matrix(.86959 -.86959 1.9615 1.9615 -281.51 221.86)" r="92.5"/>
    <radialGradient id="radialGradient3349" gradientUnits="userSpaceOnUse" cy="192.84" cx="199.28" gradientTransform="matrix(0 2.8729 -1 0 392.84 -372.51)" r="53.688">
      <stop id="stop3265" stop-color="#f7f7f7" offset="0"/>
      <stop id="stop3267" stop-color="#e1e1e1" offset="1"/>
    </radialGradient>
    <radialGradient id="radialGradient3352" gradientUnits="userSpaceOnUse" cy="192.84" cx="199.28" gradientTransform="matrix(0 2.7782 -.82388 0 358.88 -353.65)" r="68.844">
      <stop id="stop3275" stop-color="#6c6c6c" offset="0"/>
      <stop id="stop3277" stop-color="#3e3e3e" offset="1"/>
    </radialGradient>
  </defs>
  <g id="layer2" fill-rule="evenodd">
    <path id="path3309" filter="url(#filter3315)" d="m202.71 19c-102.12 0-185 82.88-185 185 0.004 102.12 82.88 185 185 185s185-82.88 185-185-82.88-185-185-185zm0 179.81c2.87 0 5.19 2.32 5.19 5.19s-2.32 5.19-5.19 5.19c-2.86 0-5.18-2.32-5.18-5.19s2.32-5.19 5.18-5.19z" style="color:#000000" fill-opacity=".50857"/>
    <path id="path3191" style="color:#000000" d="m200 15c-102.12 0-185 82.88-185 185s82.88 185 185 185 185-82.88 185-185-82.88-185-185-185zm0 179.81c2.87 0 5.19 2.32 5.19 5.19s-2.32 5.19-5.19 5.19-5.19-2.32-5.19-5.19 2.32-5.19 5.19-5.19z"/>
    <path id="path3271" d="m200 132.66c-37.16 0-67.34 30.18-67.34 67.34s30.18 67.34 67.34 67.34 67.34-30.18 67.34-67.34-30.18-67.34-67.34-67.34zm0 62.9c2.45 0 4.44 1.99 4.44 4.44s-1.99 4.44-4.44 4.44-4.44-1.99-4.44-4.44 1.99-4.44 4.44-4.44z" style="color:#000000" fill="#333"/>
    <path id="path3176" style="color:#000000" d="m200 15c-102.12 0-185 82.88-185 185s82.88 185 185 185 185-82.88 185-185-82.88-185-185-185zm0 3.594c100.15 0 181.44 81.257 181.44 181.41s-81.29 181.44-181.44 181.44-181.44-81.29-181.44-181.44c0.003-100.15 81.291-181.41 181.44-181.41z"/>
    <path id="path3151" d="m293.56 200c0 51.65-41.91 93.59-93.56 93.59v87.85c100.15 0 181.44-81.29 181.44-181.44h-87.88z" style="color:#000000" fill="url(#radialGradient3331)"/>
    <path id="path3193" d="m106.44 200c0-51.65 41.91-93.59 93.56-93.59v-87.848c-100.15 0-181.44 81.289-181.44 181.44h87.88z" style="color:#000000" fill="url(#radialGradient3328)"/>
    <path id="path3215" d="m248.68 151.32c-26.87-26.87-70.49-26.87-97.36 0s-26.87 70.49 0 97.36 70.49 26.87 97.36 0 26.87-70.49 0-97.36zm-2.14 2.14c25.68 25.69 25.68 67.39 0 93.08-25.69 25.68-67.39 25.68-93.08 0-25.68-25.69-25.68-67.39 0-93.08 25.69-25.68 67.39-25.68 93.08 0z" style="color:#000000" fill="url(#radialGradient3352)"/>
    <path id="path3223" d="m237.96 162.04c-20.95-20.96-54.97-20.96-75.92 0-20.96 20.95-20.96 54.97 0 75.92 20.95 20.96 54.97 20.96 75.92 0 20.96-20.95 20.96-54.97 0-75.92zm-34.29 34.29c2.03 2.03 2.03 5.31 0 7.34s-5.31 2.03-7.34 0-2.03-5.31 0-7.34c2.03-2.02 5.31-2.02 7.34 0z" style="color:#000000" fill="url(#radialGradient3349)"/>
    <path id="path3230" opacity=".74257" d="m243.95 156.05c-7.06-7.06-15.41-12.05-24.28-15.01l-1.24 3.72c8.31 2.76 16.12 7.46 22.74 14.07 8.05 8.06 13.25 17.89 15.6 28.24l3.82-0.86c-2.5-11.05-8.04-21.56-16.64-30.16z" style="color:#000000" fill="#fff"/>
    <path id="path3232" opacity=".74257" d="m142.61 190.26l-3.89-0.67c-3.23 19.18 2.54 39.58 17.33 54.36 14.74 14.75 35.07 20.53 54.2 17.35l-0.64-3.87c-17.92 2.98-36.96-2.45-50.78-16.26-13.85-13.86-19.25-32.95-16.22-50.91z" style="color:#000000" fill="#fff"/>
  </g>
  <metadata>
    <rdf:RDF>
      <cc:Work>
        <dc:format>image/svg+xml</dc:format>
        <dc:type rdf:resource="http://purl.org/dc/dcmitype/StillImage"/>
        <cc:license rdf:resource="http://creativecommons.org/licenses/publicdomain/"/>
        <dc:publisher>
          <cc:Agent rdf:about="http://openclipart.org/">
            <dc:title>Openclipart</dc:title>
          </cc:Agent>
        </dc:publisher>
        <dc:title>Vinyl records</dc:title>
        <dc:date>2007-10-30T17:35:05</dc:date>
        <dc:description>Remember, it was a vinyl records before CD revolution!</dc:description>
        <dc:source>http://openclipart.org/detail/7645/vinyl-records-by-benbois</dc:source>
        <dc:creator>
          <cc:Agent>
            <dc:title>BenBois</dc:title>
          </cc:Agent>
        </dc:creator>
        <dc:subject>
          <rdf:Bag>
            <rdf:li>clip art</rdf:li>
            <rdf:li>clipart</rdf:li>
            <rdf:li>disk</rdf:li>
            <rdf:li>image</rdf:li>
            <rdf:li>media</rdf:li>
            <rdf:li>music</rdf:li>
            <rdf:li>png</rdf:li>
            <rdf:li>public domain</rdf:li>
            <rdf:li>records</rdf:li>
            <rdf:li>sound support</rdf:li>
            <rdf:li>svg</rdf:li>
            <rdf:li>vinyl</rdf:li>
          </rdf:Bag>
        </dc:subject>
      </cc:Work>
      <cc:License rdf:about="http://creativecommons.org/licenses/publicdomain/">
        <cc:permits rdf:resource="http://creativecommons.org/ns#Reproduction"/>
        <cc:permits rdf:resource="http://creativecommons.org/ns#Distribution"/>
        <cc:permits rdf:resource="http://creativecommons.org/ns#DerivativeWorks"/>
      </cc:License>
    </rdf:RDF>
  </metadata>
</svg>
