<?xml version="1.0" encoding="UTF-8" standalone="no"?>
<!DOCTYPE svg PUBLIC "-//W3C//DTD SVG 1.1//EN"
 "http://www.w3.org/Graphics/SVG/1.1/DTD/svg11.dtd">
<!-- Generated by graphviz version 2.40.1 (20161225.0304)
 -->
<!-- Title: dependencies Pages: 1 -->
<svg width="988pt" height="284pt"
 viewBox="0.00 0.00 988.00 284.00" xmlns="http://www.w3.org/2000/svg" xmlns:xlink="http://www.w3.org/1999/xlink">
<g id="graph0" class="graph" transform="scale(1 1) rotate(0) translate(4 280)">
<title>dependencies</title>
<polygon fill="#ffffff" stroke="transparent" points="-4,4 -4,-280 984,-280 984,4 -4,4"/>
<text text-anchor="start" x="469.0091" y="-42.4" font-family="sans-serif" font-weight="bold" font-size="14.00" fill="#000000">Legend</text>
<polygon fill="#ffffb3" stroke="transparent" points="256,-10 256,-30 276,-30 276,-10 256,-10"/>
<text text-anchor="start" x="279.629" y="-15.4" font-family="sans-serif" font-size="14.00" fill="#000000"> &#160;Declarations</text>
<polygon fill="#8dd3c7" stroke="transparent" points="369,-10 369,-30 389,-30 389,-10 369,-10"/>
<text text-anchor="start" x="392.7251" y="-15.4" font-family="sans-serif" font-size="14.00" fill="#000000"> &#160;Module</text>
<polygon fill="#80b1d3" stroke="transparent" points="455,-10 455,-30 475,-30 475,-10 455,-10"/>
<text text-anchor="start" x="478.7812" y="-15.4" font-family="sans-serif" font-size="14.00" fill="#000000"> &#160;Bootstrap</text>
<polygon fill="#fdb462" stroke="transparent" points="552,-10 552,-30 572,-30 572,-10 552,-10"/>
<text text-anchor="start" x="575.6732" y="-15.4" font-family="sans-serif" font-size="14.00" fill="#000000"> &#160;Providers</text>
<polygon fill="#fb8072" stroke="transparent" points="648,-10 648,-30 668,-30 668,-10 648,-10"/>
<text text-anchor="start" x="671.7258" y="-15.4" font-family="sans-serif" font-size="14.00" fill="#000000"> &#160;Exports</text>
<g id="clust1" class="cluster">
<title>cluster_AppModule</title>
<polygon fill="none" stroke="#000000" stroke-dasharray="1,5" points="8,-70 8,-268 972,-268 972,-70 8,-70"/>
</g>
<g id="clust2" class="cluster">
<title>cluster_AppModule_declarations</title>
<polygon fill="none" stroke="#000000" points="168,-78 168,-130 964,-130 964,-78 168,-78"/>
</g>
<g id="clust8" class="cluster">
<title>cluster_AppModule_imports</title>
<polygon fill="none" stroke="#000000" points="16,-78 16,-130 160,-130 160,-78 16,-78"/>
</g>
<g id="clust10" class="cluster">
<title>cluster_AppModule_bootstrap</title>
<polygon fill="none" stroke="#000000" points="462,-208 462,-260 586,-260 586,-208 462,-208"/>
</g>
<!-- AppComponent -->
<g id="node1" class="node">
<title>AppComponent</title>
<polygon fill="#ffffb3" stroke="#000000" points="955.9399,-122 850.0601,-122 850.0601,-86 955.9399,-86 955.9399,-122"/>
<text text-anchor="middle" x="903" y="-99.8" font-family="Times,serif" font-size="14.00" fill="#000000">AppComponent</text>
</g>
<!-- AppModule -->
<g id="node6" class="node">
<title>AppModule</title>
<polygon fill="#8dd3c7" stroke="#000000" points="565.6571,-187 562.6571,-191 541.6571,-191 538.6571,-187 482.3429,-187 482.3429,-151 565.6571,-151 565.6571,-187"/>
<text text-anchor="middle" x="524" y="-164.8" font-family="Times,serif" font-size="14.00" fill="#000000">AppModule</text>
</g>
<!-- AppComponent&#45;&gt;AppModule -->
<g id="edge1" class="edge">
<title>AppComponent&#45;&gt;AppModule</title>
<path fill="none" stroke="#000000" d="M903,-122.2843C903,-143.3211 903,-175 903,-175 903,-175 576.0077,-175 576.0077,-175"/>
<polygon fill="#000000" stroke="#000000" points="576.0077,-171.5001 566.0077,-175 576.0077,-178.5001 576.0077,-171.5001"/>
</g>
<!-- AppDeckComponent -->
<g id="node2" class="node">
<title>AppDeckComponent</title>
<polygon fill="#ffffb3" stroke="#000000" points="832.4748,-122 697.5252,-122 697.5252,-86 832.4748,-86 832.4748,-122"/>
<text text-anchor="middle" x="765" y="-99.8" font-family="Times,serif" font-size="14.00" fill="#000000">AppDeckComponent</text>
</g>
<!-- AppDeckComponent&#45;&gt;AppModule -->
<g id="edge2" class="edge">
<title>AppDeckComponent&#45;&gt;AppModule</title>
<path fill="none" stroke="#000000" d="M765,-122.0225C765,-139.3734 765,-163 765,-163 765,-163 575.7039,-163 575.7039,-163"/>
<polygon fill="#000000" stroke="#000000" points="575.7039,-159.5001 565.7039,-163 575.7038,-166.5001 575.7039,-159.5001"/>
</g>
<!-- AppLayoutComponent -->
<g id="node3" class="node">
<title>AppLayoutComponent</title>
<polygon fill="#ffffb3" stroke="#000000" points="679.5968,-122 534.4032,-122 534.4032,-86 679.5968,-86 679.5968,-122"/>
<text text-anchor="middle" x="607" y="-99.8" font-family="Times,serif" font-size="14.00" fill="#000000">AppLayoutComponent</text>
</g>
<!-- AppLayoutComponent&#45;&gt;AppModule -->
<g id="edge3" class="edge">
<title>AppLayoutComponent&#45;&gt;AppModule</title>
<path fill="none" stroke="#000000" d="M550.1399,-122.1061C550.1399,-122.1061 550.1399,-140.991 550.1399,-140.991"/>
<polygon fill="#000000" stroke="#000000" points="546.64,-140.9909 550.1399,-150.991 553.64,-140.991 546.64,-140.9909"/>
</g>
<!-- AppVolumeComponent -->
<g id="node4" class="node">
<title>AppVolumeComponent</title>
<polygon fill="#ffffb3" stroke="#000000" points="516.0421,-122 365.9579,-122 365.9579,-86 516.0421,-86 516.0421,-122"/>
<text text-anchor="middle" x="441" y="-99.8" font-family="Times,serif" font-size="14.00" fill="#000000">AppVolumeComponent</text>
</g>
<!-- AppVolumeComponent&#45;&gt;AppModule -->
<g id="edge4" class="edge">
<title>AppVolumeComponent&#45;&gt;AppModule</title>
<path fill="none" stroke="#000000" d="M499.2213,-122.1061C499.2213,-122.1061 499.2213,-140.991 499.2213,-140.991"/>
<polygon fill="#000000" stroke="#000000" points="495.7213,-140.9909 499.2213,-150.991 502.7213,-140.991 495.7213,-140.9909"/>
</g>
<!-- SliderControllerComponent -->
<g id="node5" class="node">
<title>SliderControllerComponent</title>
<polygon fill="#ffffb3" stroke="#000000" points="348.3159,-122 175.6841,-122 175.6841,-86 348.3159,-86 348.3159,-122"/>
<text text-anchor="middle" x="262" y="-99.8" font-family="Times,serif" font-size="14.00" fill="#000000">SliderControllerComponent</text>
</g>
<!-- SliderControllerComponent&#45;&gt;AppModule -->
<g id="edge5" class="edge">
<title>SliderControllerComponent&#45;&gt;AppModule</title>
<path fill="none" stroke="#000000" d="M262,-122.0225C262,-139.3734 262,-163 262,-163 262,-163 472.1956,-163 472.1956,-163"/>
<polygon fill="#000000" stroke="#000000" points="472.1956,-166.5001 482.1956,-163 472.1956,-159.5001 472.1956,-166.5001"/>
</g>
<!-- AppComponent  -->
<g id="node8" class="node">
<title>AppComponent </title>
<polygon fill="#80b1d3" stroke="#000000" points="578.439,-252 469.561,-252 469.561,-216 578.439,-216 578.439,-252"/>
<text text-anchor="middle" x="524" y="-229.8" font-family="Times,serif" font-size="14.00" fill="#000000">AppComponent </text>
</g>
<!-- AppModule&#45;&gt;AppComponent  -->
<g id="edge7" class="edge">
<title>AppModule&#45;&gt;AppComponent </title>
<path fill="none" stroke="#000000" stroke-dasharray="1,5" d="M524,-187.1061C524,-187.1061 524,-205.991 524,-205.991"/>
<polygon fill="#000000" stroke="#000000" points="520.5001,-205.9909 524,-215.991 527.5001,-205.991 520.5001,-205.9909"/>
</g>
<!-- AppRoutingModule -->
<g id="node7" class="node">
<title>AppRoutingModule</title>
<polygon fill="#8dd3c7" stroke="#000000" points="152.2744,-122 149.2744,-126 128.2744,-126 125.2744,-122 23.7256,-122 23.7256,-86 152.2744,-86 152.2744,-122"/>
<text text-anchor="middle" x="88" y="-99.8" font-family="Times,serif" font-size="14.00" fill="#000000">AppRoutingModule</text>
</g>
<!-- AppRoutingModule&#45;&gt;AppModule -->
<g id="edge6" class="edge">
<title>AppRoutingModule&#45;&gt;AppModule</title>
<path fill="none" stroke="#000000" d="M88,-122.2843C88,-143.3211 88,-175 88,-175 88,-175 472.1945,-175 472.1945,-175"/>
<polygon fill="#000000" stroke="#000000" points="472.1945,-178.5001 482.1945,-175 472.1945,-171.5001 472.1945,-178.5001"/>
</g>
</g>
</svg>
