<?xml version="1.0" encoding="UTF-8" standalone="no"?>
<!DOCTYPE svg PUBLIC "-//W3C//DTD SVG 1.1//EN"
 "http://www.w3.org/Graphics/SVG/1.1/DTD/svg11.dtd">
<!-- Generated by graphviz version 2.40.1 (20161225.0304)
 -->
<!-- Title: dependencies Pages: 1 -->
<svg width="2206pt" height="284pt"
 viewBox="0.00 0.00 2206.00 284.00" xmlns="http://www.w3.org/2000/svg" xmlns:xlink="http://www.w3.org/1999/xlink">
<g id="graph0" class="graph" transform="scale(1 1) rotate(0) translate(4 280)">
<title>dependencies</title>
<polygon fill="#ffffff" stroke="transparent" points="-4,4 -4,-280 2202,-280 2202,4 -4,4"/>
<text text-anchor="start" x="1078.0091" y="-42.4" font-family="sans-serif" font-weight="bold" font-size="14.00" fill="#000000">Legend</text>
<polygon fill="#ffffb3" stroke="transparent" points="865,-10 865,-30 885,-30 885,-10 865,-10"/>
<text text-anchor="start" x="888.629" y="-15.4" font-family="sans-serif" font-size="14.00" fill="#000000"> &#160;Declarations</text>
<polygon fill="#8dd3c7" stroke="transparent" points="978,-10 978,-30 998,-30 998,-10 978,-10"/>
<text text-anchor="start" x="1001.7251" y="-15.4" font-family="sans-serif" font-size="14.00" fill="#000000"> &#160;Module</text>
<polygon fill="#80b1d3" stroke="transparent" points="1064,-10 1064,-30 1084,-30 1084,-10 1064,-10"/>
<text text-anchor="start" x="1087.7812" y="-15.4" font-family="sans-serif" font-size="14.00" fill="#000000"> &#160;Bootstrap</text>
<polygon fill="#fdb462" stroke="transparent" points="1161,-10 1161,-30 1181,-30 1181,-10 1161,-10"/>
<text text-anchor="start" x="1184.6732" y="-15.4" font-family="sans-serif" font-size="14.00" fill="#000000"> &#160;Providers</text>
<polygon fill="#fb8072" stroke="transparent" points="1257,-10 1257,-30 1277,-30 1277,-10 1257,-10"/>
<text text-anchor="start" x="1280.7258" y="-15.4" font-family="sans-serif" font-size="14.00" fill="#000000"> &#160;Exports</text>
<g id="clust1" class="cluster">
<title>cluster_AppModule</title>
<polygon fill="none" stroke="#000000" stroke-dasharray="1,5" points="8,-70 8,-268 2190,-268 2190,-70 8,-70"/>
</g>
<g id="clust2" class="cluster">
<title>cluster_AppModule_declarations</title>
<polygon fill="none" stroke="#000000" points="168,-78 168,-130 2182,-130 2182,-78 168,-78"/>
</g>
<g id="clust15" class="cluster">
<title>cluster_AppModule_imports</title>
<polygon fill="none" stroke="#000000" points="16,-78 16,-130 160,-130 160,-78 16,-78"/>
</g>
<g id="clust17" class="cluster">
<title>cluster_AppModule_bootstrap</title>
<polygon fill="none" stroke="#000000" points="1077,-208 1077,-260 1201,-260 1201,-208 1077,-208"/>
</g>
<!-- AppAboutComponent -->
<g id="node1" class="node">
<title>AppAboutComponent</title>
<polygon fill="#ffffb3" stroke="#000000" points="2174.4369,-122 2033.5631,-122 2033.5631,-86 2174.4369,-86 2174.4369,-122"/>
<text text-anchor="middle" x="2104" y="-99.8" font-family="Times,serif" font-size="14.00" fill="#000000">AppAboutComponent</text>
</g>
<!-- AppModule -->
<g id="node13" class="node">
<title>AppModule</title>
<polygon fill="#8dd3c7" stroke="#000000" points="1180.6571,-187 1177.6571,-191 1156.6571,-191 1153.6571,-187 1097.3429,-187 1097.3429,-151 1180.6571,-151 1180.6571,-187"/>
<text text-anchor="middle" x="1139" y="-164.8" font-family="Times,serif" font-size="14.00" fill="#000000">AppModule</text>
</g>
<!-- AppAboutComponent&#45;&gt;AppModule -->
<g id="edge1" class="edge">
<title>AppAboutComponent&#45;&gt;AppModule</title>
<path fill="none" stroke="#000000" d="M2104,-122.0908C2104,-145.1328 2104,-182 2104,-182 2104,-182 1190.7746,-182 1190.7746,-182"/>
<polygon fill="#000000" stroke="#000000" points="1190.7746,-178.5001 1180.7746,-182 1190.7745,-185.5001 1190.7746,-178.5001"/>
</g>
<!-- AppComponent -->
<g id="node2" class="node">
<title>AppComponent</title>
<polygon fill="#ffffb3" stroke="#000000" points="2015.9399,-122 1910.0601,-122 1910.0601,-86 2015.9399,-86 2015.9399,-122"/>
<text text-anchor="middle" x="1963" y="-99.8" font-family="Times,serif" font-size="14.00" fill="#000000">AppComponent</text>
</g>
<!-- AppComponent&#45;&gt;AppModule -->
<g id="edge2" class="edge">
<title>AppComponent&#45;&gt;AppModule</title>
<path fill="none" stroke="#000000" d="M1963,-122.0449C1963,-143.6623 1963,-177 1963,-177 1963,-177 1190.7106,-177 1190.7106,-177"/>
<polygon fill="#000000" stroke="#000000" points="1190.7107,-173.5001 1180.7106,-177 1190.7106,-180.5001 1190.7107,-173.5001"/>
</g>
<!-- AppDeckComponent -->
<g id="node3" class="node">
<title>AppDeckComponent</title>
<polygon fill="#ffffb3" stroke="#000000" points="1892.4748,-122 1757.5252,-122 1757.5252,-86 1892.4748,-86 1892.4748,-122"/>
<text text-anchor="middle" x="1825" y="-99.8" font-family="Times,serif" font-size="14.00" fill="#000000">AppDeckComponent</text>
</g>
<!-- AppDeckComponent&#45;&gt;AppModule -->
<g id="edge3" class="edge">
<title>AppDeckComponent&#45;&gt;AppModule</title>
<path fill="none" stroke="#000000" d="M1825,-122.2228C1825,-142.3652 1825,-172 1825,-172 1825,-172 1190.8797,-172 1190.8797,-172"/>
<polygon fill="#000000" stroke="#000000" points="1190.8798,-168.5001 1180.8797,-172 1190.8797,-175.5001 1190.8798,-168.5001"/>
</g>
<!-- AppEffectsCreatorComponent -->
<g id="node4" class="node">
<title>AppEffectsCreatorComponent</title>
<polygon fill="#ffffb3" stroke="#000000" points="1739.5548,-122 1552.4452,-122 1552.4452,-86 1739.5548,-86 1739.5548,-122"/>
<text text-anchor="middle" x="1646" y="-99.8" font-family="Times,serif" font-size="14.00" fill="#000000">AppEffectsCreatorComponent</text>
</g>
<!-- AppEffectsCreatorComponent&#45;&gt;AppModule -->
<g id="edge4" class="edge">
<title>AppEffectsCreatorComponent&#45;&gt;AppModule</title>
<path fill="none" stroke="#000000" d="M1646,-122.2222C1646,-140.8285 1646,-167 1646,-167 1646,-167 1190.9213,-167 1190.9213,-167"/>
<polygon fill="#000000" stroke="#000000" points="1190.9213,-163.5001 1180.9213,-167 1190.9212,-170.5001 1190.9213,-163.5001"/>
</g>
<!-- AppHelpComponent -->
<g id="node5" class="node">
<title>AppHelpComponent</title>
<polygon fill="#ffffb3" stroke="#000000" points="1534.1513,-122 1401.8487,-122 1401.8487,-86 1534.1513,-86 1534.1513,-122"/>
<text text-anchor="middle" x="1468" y="-99.8" font-family="Times,serif" font-size="14.00" fill="#000000">AppHelpComponent</text>
</g>
<!-- AppHelpComponent&#45;&gt;AppModule -->
<g id="edge5" class="edge">
<title>AppHelpComponent&#45;&gt;AppModule</title>
<path fill="none" stroke="#000000" d="M1468,-122.0336C1468,-139.0597 1468,-162 1468,-162 1468,-162 1190.6681,-162 1190.6681,-162"/>
<polygon fill="#000000" stroke="#000000" points="1190.6681,-158.5001 1180.6681,-162 1190.668,-165.5001 1190.6681,-158.5001"/>
</g>
<!-- AppLayoutComponent -->
<g id="node6" class="node">
<title>AppLayoutComponent</title>
<polygon fill="#ffffb3" stroke="#000000" points="1383.5968,-122 1238.4032,-122 1238.4032,-86 1383.5968,-86 1383.5968,-122"/>
<text text-anchor="middle" x="1311" y="-99.8" font-family="Times,serif" font-size="14.00" fill="#000000">AppLayoutComponent</text>
</g>
<!-- AppLayoutComponent&#45;&gt;AppModule -->
<g id="edge6" class="edge">
<title>AppLayoutComponent&#45;&gt;AppModule</title>
<path fill="none" stroke="#000000" d="M1311,-122.2396C1311,-137.5706 1311,-157 1311,-157 1311,-157 1191.0759,-157 1191.0759,-157"/>
<polygon fill="#000000" stroke="#000000" points="1191.076,-153.5001 1181.0759,-157 1191.0759,-160.5001 1191.076,-153.5001"/>
</g>
<!-- AppMusicListComponent -->
<g id="node7" class="node">
<title>AppMusicListComponent</title>
<polygon fill="#ffffb3" stroke="#000000" points="1220.2119,-122 1057.7881,-122 1057.7881,-86 1220.2119,-86 1220.2119,-122"/>
<text text-anchor="middle" x="1139" y="-99.8" font-family="Times,serif" font-size="14.00" fill="#000000">AppMusicListComponent</text>
</g>
<!-- AppMusicListComponent&#45;&gt;AppModule -->
<g id="edge7" class="edge">
<title>AppMusicListComponent&#45;&gt;AppModule</title>
<path fill="none" stroke="#000000" d="M1139,-122.1061C1139,-122.1061 1139,-140.991 1139,-140.991"/>
<polygon fill="#000000" stroke="#000000" points="1135.5001,-140.9909 1139,-150.991 1142.5001,-140.991 1135.5001,-140.9909"/>
</g>
<!-- AppSettingsComponent -->
<g id="node8" class="node">
<title>AppSettingsComponent</title>
<polygon fill="#ffffb3" stroke="#000000" points="1040.0533,-122 889.9467,-122 889.9467,-86 1040.0533,-86 1040.0533,-122"/>
<text text-anchor="middle" x="965" y="-99.8" font-family="Times,serif" font-size="14.00" fill="#000000">AppSettingsComponent</text>
</g>
<!-- AppSettingsComponent&#45;&gt;AppModule -->
<g id="edge8" class="edge">
<title>AppSettingsComponent&#45;&gt;AppModule</title>
<path fill="none" stroke="#000000" d="M965,-122.2396C965,-137.5706 965,-157 965,-157 965,-157 1087.3227,-157 1087.3227,-157"/>
<polygon fill="#000000" stroke="#000000" points="1087.3227,-160.5001 1097.3227,-157 1087.3226,-153.5001 1087.3227,-160.5001"/>
</g>
<!-- AppTabsComponent -->
<g id="node9" class="node">
<title>AppTabsComponent</title>
<polygon fill="#ffffb3" stroke="#000000" points="871.1513,-122 738.8487,-122 738.8487,-86 871.1513,-86 871.1513,-122"/>
<text text-anchor="middle" x="805" y="-99.8" font-family="Times,serif" font-size="14.00" fill="#000000">AppTabsComponent</text>
</g>
<!-- AppTabsComponent&#45;&gt;AppModule -->
<g id="edge9" class="edge">
<title>AppTabsComponent&#45;&gt;AppModule</title>
<path fill="none" stroke="#000000" d="M805,-122.0336C805,-139.0597 805,-162 805,-162 805,-162 1087.0369,-162 1087.0369,-162"/>
<polygon fill="#000000" stroke="#000000" points="1087.0369,-165.5001 1097.0369,-162 1087.0368,-158.5001 1087.0369,-165.5001"/>
</g>
<!-- AppVolumeComponent -->
<g id="node10" class="node">
<title>AppVolumeComponent</title>
<polygon fill="#ffffb3" stroke="#000000" points="720.0421,-122 569.9579,-122 569.9579,-86 720.0421,-86 720.0421,-122"/>
<text text-anchor="middle" x="645" y="-99.8" font-family="Times,serif" font-size="14.00" fill="#000000">AppVolumeComponent</text>
</g>
<!-- AppVolumeComponent&#45;&gt;AppModule -->
<g id="edge10" class="edge">
<title>AppVolumeComponent&#45;&gt;AppModule</title>
<path fill="none" stroke="#000000" d="M645,-122.2222C645,-140.8285 645,-167 645,-167 645,-167 1087.3076,-167 1087.3076,-167"/>
<polygon fill="#000000" stroke="#000000" points="1087.3076,-170.5001 1097.3076,-167 1087.3076,-163.5001 1087.3076,-170.5001"/>
</g>
<!-- RouletteControllerComponent -->
<g id="node11" class="node">
<title>RouletteControllerComponent</title>
<polygon fill="#ffffb3" stroke="#000000" points="552.3145,-122 365.6855,-122 365.6855,-86 552.3145,-86 552.3145,-122"/>
<text text-anchor="middle" x="459" y="-99.8" font-family="Times,serif" font-size="14.00" fill="#000000">RouletteControllerComponent</text>
</g>
<!-- RouletteControllerComponent&#45;&gt;AppModule -->
<g id="edge11" class="edge">
<title>RouletteControllerComponent&#45;&gt;AppModule</title>
<path fill="none" stroke="#000000" d="M459,-122.2228C459,-142.3652 459,-172 459,-172 459,-172 1087.2317,-172 1087.2317,-172"/>
<polygon fill="#000000" stroke="#000000" points="1087.2317,-175.5001 1097.2317,-172 1087.2317,-168.5001 1087.2317,-175.5001"/>
</g>
<!-- SliderControllerComponent -->
<g id="node12" class="node">
<title>SliderControllerComponent</title>
<polygon fill="#ffffb3" stroke="#000000" points="348.3159,-122 175.6841,-122 175.6841,-86 348.3159,-86 348.3159,-122"/>
<text text-anchor="middle" x="262" y="-99.8" font-family="Times,serif" font-size="14.00" fill="#000000">SliderControllerComponent</text>
</g>
<!-- SliderControllerComponent&#45;&gt;AppModule -->
<g id="edge12" class="edge">
<title>SliderControllerComponent&#45;&gt;AppModule</title>
<path fill="none" stroke="#000000" d="M262,-122.0449C262,-143.6623 262,-177 262,-177 262,-177 1087.2905,-177 1087.2905,-177"/>
<polygon fill="#000000" stroke="#000000" points="1087.2905,-180.5001 1097.2905,-177 1087.2904,-173.5001 1087.2905,-180.5001"/>
</g>
<!-- AppComponent  -->
<g id="node15" class="node">
<title>AppComponent </title>
<polygon fill="#80b1d3" stroke="#000000" points="1193.439,-252 1084.561,-252 1084.561,-216 1193.439,-216 1193.439,-252"/>
<text text-anchor="middle" x="1139" y="-229.8" font-family="Times,serif" font-size="14.00" fill="#000000">AppComponent </text>
</g>
<!-- AppModule&#45;&gt;AppComponent  -->
<g id="edge14" class="edge">
<title>AppModule&#45;&gt;AppComponent </title>
<path fill="none" stroke="#000000" stroke-dasharray="1,5" d="M1139,-187.1061C1139,-187.1061 1139,-205.991 1139,-205.991"/>
<polygon fill="#000000" stroke="#000000" points="1135.5001,-205.9909 1139,-215.991 1142.5001,-205.991 1135.5001,-205.9909"/>
</g>
<!-- AppRoutingModule -->
<g id="node14" class="node">
<title>AppRoutingModule</title>
<polygon fill="#8dd3c7" stroke="#000000" points="152.2744,-122 149.2744,-126 128.2744,-126 125.2744,-122 23.7256,-122 23.7256,-86 152.2744,-86 152.2744,-122"/>
<text text-anchor="middle" x="88" y="-99.8" font-family="Times,serif" font-size="14.00" fill="#000000">AppRoutingModule</text>
</g>
<!-- AppRoutingModule&#45;&gt;AppModule -->
<g id="edge13" class="edge">
<title>AppRoutingModule&#45;&gt;AppModule</title>
<path fill="none" stroke="#000000" d="M88,-122.0908C88,-145.1328 88,-182 88,-182 88,-182 1087.151,-182 1087.151,-182"/>
<polygon fill="#000000" stroke="#000000" points="1087.151,-185.5001 1097.151,-182 1087.151,-178.5001 1087.151,-185.5001"/>
</g>
</g>
</svg>
