<?xml version="1.0" encoding="UTF-8" standalone="no"?><svg xmlns="http://www.w3.org/2000/svg" xmlns:xlink="http://www.w3.org/1999/xlink" contentScriptType="application/ecmascript" contentStyleType="text/css" height="666px" preserveAspectRatio="none" style="width:2180px;height:666px;" version="1.1" viewBox="0 0 2180 666" width="2180px" zoomAndPan="magnify"><defs><filter height="300%" id="f1n87j5h5khkx9" width="300%" x="-1" y="-1"><feGaussianBlur result="blurOut" stdDeviation="2.0"/><feColorMatrix in="blurOut" result="blurOut2" type="matrix" values="0 0 0 0 0 0 0 0 0 0 0 0 0 0 0 0 0 0 .4 0"/><feOffset dx="4.0" dy="4.0" in="blurOut2" result="blurOut3"/><feBlend in="SourceGraphic" in2="blurOut3" mode="normal"/></filter></defs><g><!--class app--><rect fill="#FEFECE" filter="url(#f1n87j5h5khkx9)" height="37.9375" id="app" style="stroke: #A80036; stroke-width: 1.5;" width="128" x="1338" y="8"/><ellipse cx="1353" cy="26.9688" fill="#00B500" rx="11" ry="11" style="stroke: #A80036; stroke-width: 1.0;"/><path d="M1355.9688,32.6094 Q1355.3906,32.9063 1354.75,33.0547 Q1354.1094,33.2031 1353.4063,33.2031 Q1350.9063,33.2031 1349.5859,31.5547 Q1348.2656,29.9063 1348.2656,26.7813 Q1348.2656,23.6563 1349.5859,22 Q1350.9063,20.3438 1353.4063,20.3438 Q1354.1094,20.3438 1354.7578,20.5 Q1355.4063,20.6563 1355.9688,20.9531 L1355.9688,23.6719 Q1355.3438,23.0938 1354.75,22.8203 Q1354.1563,22.5469 1353.5313,22.5469 Q1352.1875,22.5469 1351.5,23.6172 Q1350.8125,24.6875 1350.8125,26.7813 Q1350.8125,28.875 1351.5,29.9453 Q1352.1875,31.0156 1353.5313,31.0156 Q1354.1563,31.0156 1354.75,30.7422 Q1355.3438,30.4688 1355.9688,29.8906 L1355.9688,32.6094 Z "/><text fill="#000000" font-family="sans-serif" font-size="12" font-style="italic" lengthAdjust="spacingAndGlyphs" textLength="86" x="1372" y="24.1387">«Component»</text><text fill="#000000" font-family="sans-serif" font-size="12" lengthAdjust="spacingAndGlyphs" textLength="96" x="1367" y="38.1074">AppComponent</text><!--class layout--><rect fill="#FEFECE" filter="url(#f1n87j5h5khkx9)" height="37.9375" id="layout" style="stroke: #A80036; stroke-width: 1.5;" width="169" x="534.5" y="123"/><ellipse cx="549.5" cy="141.9688" fill="#00B500" rx="11" ry="11" style="stroke: #A80036; stroke-width: 1.0;"/><path d="M552.4688,147.6094 Q551.8906,147.9063 551.25,148.0547 Q550.6094,148.2031 549.9063,148.2031 Q547.4063,148.2031 546.0859,146.5547 Q544.7656,144.9063 544.7656,141.7813 Q544.7656,138.6563 546.0859,137 Q547.4063,135.3438 549.9063,135.3438 Q550.6094,135.3438 551.2578,135.5 Q551.9063,135.6563 552.4688,135.9531 L552.4688,138.6719 Q551.8438,138.0938 551.25,137.8203 Q550.6563,137.5469 550.0313,137.5469 Q548.6875,137.5469 548,138.6172 Q547.3125,139.6875 547.3125,141.7813 Q547.3125,143.875 548,144.9453 Q548.6875,146.0156 550.0313,146.0156 Q550.6563,146.0156 551.25,145.7422 Q551.8438,145.4688 552.4688,144.8906 L552.4688,147.6094 Z "/><text fill="#000000" font-family="sans-serif" font-size="12" font-style="italic" lengthAdjust="spacingAndGlyphs" textLength="86" x="589" y="139.1387">«Component»</text><text fill="#000000" font-family="sans-serif" font-size="12" lengthAdjust="spacingAndGlyphs" textLength="137" x="563.5" y="153.1074">AppLayoutComponent</text><!--class deck--><rect fill="#FEFECE" filter="url(#f1n87j5h5khkx9)" height="37.9375" id="deck" style="stroke: #A80036; stroke-width: 1.5;" width="159" x="406.5" y="321"/><ellipse cx="421.5" cy="339.9688" fill="#00B500" rx="11" ry="11" style="stroke: #A80036; stroke-width: 1.0;"/><path d="M424.4688,345.6094 Q423.8906,345.9063 423.25,346.0547 Q422.6094,346.2031 421.9063,346.2031 Q419.4063,346.2031 418.0859,344.5547 Q416.7656,342.9063 416.7656,339.7813 Q416.7656,336.6563 418.0859,335 Q419.4063,333.3438 421.9063,333.3438 Q422.6094,333.3438 423.2578,333.5 Q423.9063,333.6563 424.4688,333.9531 L424.4688,336.6719 Q423.8438,336.0938 423.25,335.8203 Q422.6563,335.5469 422.0313,335.5469 Q420.6875,335.5469 420,336.6172 Q419.3125,337.6875 419.3125,339.7813 Q419.3125,341.875 420,342.9453 Q420.6875,344.0156 422.0313,344.0156 Q422.6563,344.0156 423.25,343.7422 Q423.8438,343.4688 424.4688,342.8906 L424.4688,345.6094 Z "/><text fill="#000000" font-family="sans-serif" font-size="12" font-style="italic" lengthAdjust="spacingAndGlyphs" textLength="86" x="456" y="337.1387">«Component»</text><text fill="#000000" font-family="sans-serif" font-size="12" lengthAdjust="spacingAndGlyphs" textLength="127" x="435.5" y="351.1074">AppDeckComponent</text><!--class volume--><rect fill="#FEFECE" filter="url(#f1n87j5h5khkx9)" height="37.9375" id="volume" style="stroke: #A80036; stroke-width: 1.5;" width="174" x="6" y="321"/><ellipse cx="21" cy="339.9688" fill="#00B500" rx="11" ry="11" style="stroke: #A80036; stroke-width: 1.0;"/><path d="M23.9688,345.6094 Q23.3906,345.9063 22.75,346.0547 Q22.1094,346.2031 21.4063,346.2031 Q18.9063,346.2031 17.5859,344.5547 Q16.2656,342.9063 16.2656,339.7813 Q16.2656,336.6563 17.5859,335 Q18.9063,333.3438 21.4063,333.3438 Q22.1094,333.3438 22.7578,333.5 Q23.4063,333.6563 23.9688,333.9531 L23.9688,336.6719 Q23.3438,336.0938 22.75,335.8203 Q22.1563,335.5469 21.5313,335.5469 Q20.1875,335.5469 19.5,336.6172 Q18.8125,337.6875 18.8125,339.7813 Q18.8125,341.875 19.5,342.9453 Q20.1875,344.0156 21.5313,344.0156 Q22.1563,344.0156 22.75,343.7422 Q23.3438,343.4688 23.9688,342.8906 L23.9688,345.6094 Z "/><text fill="#000000" font-family="sans-serif" font-size="12" font-style="italic" lengthAdjust="spacingAndGlyphs" textLength="86" x="63" y="337.1387">«Component»</text><text fill="#000000" font-family="sans-serif" font-size="12" lengthAdjust="spacingAndGlyphs" textLength="142" x="35" y="351.1074">AppVolumeComponent</text><!--class tabs--><rect fill="#FEFECE" filter="url(#f1n87j5h5khkx9)" height="37.9375" id="tabs" style="stroke: #A80036; stroke-width: 1.5;" width="158" x="898" y="222"/><ellipse cx="913" cy="240.9688" fill="#00B500" rx="11" ry="11" style="stroke: #A80036; stroke-width: 1.0;"/><path d="M915.9688,246.6094 Q915.3906,246.9063 914.75,247.0547 Q914.1094,247.2031 913.4063,247.2031 Q910.9063,247.2031 909.5859,245.5547 Q908.2656,243.9063 908.2656,240.7813 Q908.2656,237.6563 909.5859,236 Q910.9063,234.3438 913.4063,234.3438 Q914.1094,234.3438 914.7578,234.5 Q915.4063,234.6563 915.9688,234.9531 L915.9688,237.6719 Q915.3438,237.0938 914.75,236.8203 Q914.1563,236.5469 913.5313,236.5469 Q912.1875,236.5469 911.5,237.6172 Q910.8125,238.6875 910.8125,240.7813 Q910.8125,242.875 911.5,243.9453 Q912.1875,245.0156 913.5313,245.0156 Q914.1563,245.0156 914.75,244.7422 Q915.3438,244.4688 915.9688,243.8906 L915.9688,246.6094 Z "/><text fill="#000000" font-family="sans-serif" font-size="12" font-style="italic" lengthAdjust="spacingAndGlyphs" textLength="86" x="947" y="238.1387">«Component»</text><text fill="#000000" font-family="sans-serif" font-size="12" lengthAdjust="spacingAndGlyphs" textLength="126" x="927" y="252.1074">AppTabsComponent</text><!--class musicList--><rect fill="#FEFECE" filter="url(#f1n87j5h5khkx9)" height="37.9375" id="musicList" style="stroke: #A80036; stroke-width: 1.5;" width="184" x="672" y="321"/><ellipse cx="687" cy="339.9688" fill="#00B500" rx="11" ry="11" style="stroke: #A80036; stroke-width: 1.0;"/><path d="M689.9688,345.6094 Q689.3906,345.9063 688.75,346.0547 Q688.1094,346.2031 687.4063,346.2031 Q684.9063,346.2031 683.5859,344.5547 Q682.2656,342.9063 682.2656,339.7813 Q682.2656,336.6563 683.5859,335 Q684.9063,333.3438 687.4063,333.3438 Q688.1094,333.3438 688.7578,333.5 Q689.4063,333.6563 689.9688,333.9531 L689.9688,336.6719 Q689.3438,336.0938 688.75,335.8203 Q688.1563,335.5469 687.5313,335.5469 Q686.1875,335.5469 685.5,336.6172 Q684.8125,337.6875 684.8125,339.7813 Q684.8125,341.875 685.5,342.9453 Q686.1875,344.0156 687.5313,344.0156 Q688.1563,344.0156 688.75,343.7422 Q689.3438,343.4688 689.9688,342.8906 L689.9688,345.6094 Z "/><text fill="#000000" font-family="sans-serif" font-size="12" font-style="italic" lengthAdjust="spacingAndGlyphs" textLength="86" x="734" y="337.1387">«Component»</text><text fill="#000000" font-family="sans-serif" font-size="12" lengthAdjust="spacingAndGlyphs" textLength="152" x="701" y="351.1074">AppMusicListComponent</text><!--class settings--><rect fill="#FEFECE" filter="url(#f1n87j5h5khkx9)" height="37.9375" id="settings" style="stroke: #A80036; stroke-width: 1.5;" width="180" x="1234" y="321"/><ellipse cx="1249" cy="339.9688" fill="#00B500" rx="11" ry="11" style="stroke: #A80036; stroke-width: 1.0;"/><path d="M1251.9688,345.6094 Q1251.3906,345.9063 1250.75,346.0547 Q1250.1094,346.2031 1249.4063,346.2031 Q1246.9063,346.2031 1245.5859,344.5547 Q1244.2656,342.9063 1244.2656,339.7813 Q1244.2656,336.6563 1245.5859,335 Q1246.9063,333.3438 1249.4063,333.3438 Q1250.1094,333.3438 1250.7578,333.5 Q1251.4063,333.6563 1251.9688,333.9531 L1251.9688,336.6719 Q1251.3438,336.0938 1250.75,335.8203 Q1250.1563,335.5469 1249.5313,335.5469 Q1248.1875,335.5469 1247.5,336.6172 Q1246.8125,337.6875 1246.8125,339.7813 Q1246.8125,341.875 1247.5,342.9453 Q1248.1875,344.0156 1249.5313,344.0156 Q1250.1563,344.0156 1250.75,343.7422 Q1251.3438,343.4688 1251.9688,342.8906 L1251.9688,345.6094 Z "/><text fill="#000000" font-family="sans-serif" font-size="12" font-style="italic" lengthAdjust="spacingAndGlyphs" textLength="86" x="1294" y="337.1387">«Component»</text><text fill="#000000" font-family="sans-serif" font-size="12" lengthAdjust="spacingAndGlyphs" textLength="148" x="1263" y="351.1074">AppSettingsComponent</text><!--class effSelector--><rect fill="#FEFECE" filter="url(#f1n87j5h5khkx9)" height="37.9375" id="effSelector" style="stroke: #A80036; stroke-width: 1.5;" width="223" x="1353.5" y="420"/><ellipse cx="1368.5" cy="438.9688" fill="#00B500" rx="11" ry="11" style="stroke: #A80036; stroke-width: 1.0;"/><path d="M1371.4688,444.6094 Q1370.8906,444.9063 1370.25,445.0547 Q1369.6094,445.2031 1368.9063,445.2031 Q1366.4063,445.2031 1365.0859,443.5547 Q1363.7656,441.9063 1363.7656,438.7813 Q1363.7656,435.6563 1365.0859,434 Q1366.4063,432.3438 1368.9063,432.3438 Q1369.6094,432.3438 1370.2578,432.5 Q1370.9063,432.6563 1371.4688,432.9531 L1371.4688,435.6719 Q1370.8438,435.0938 1370.25,434.8203 Q1369.6563,434.5469 1369.0313,434.5469 Q1367.6875,434.5469 1367,435.6172 Q1366.3125,436.6875 1366.3125,438.7813 Q1366.3125,440.875 1367,441.9453 Q1367.6875,443.0156 1369.0313,443.0156 Q1369.6563,443.0156 1370.25,442.7422 Q1370.8438,442.4688 1371.4688,441.8906 L1371.4688,444.6094 Z "/><text fill="#000000" font-family="sans-serif" font-size="12" font-style="italic" lengthAdjust="spacingAndGlyphs" textLength="86" x="1435" y="436.1387">«Component»</text><text fill="#000000" font-family="sans-serif" font-size="12" lengthAdjust="spacingAndGlyphs" textLength="191" x="1382.5" y="450.1074">AppEffectsSelectorComponent</text><!--class about--><rect fill="#FEFECE" filter="url(#f1n87j5h5khkx9)" height="37.9375" id="about" style="stroke: #A80036; stroke-width: 1.5;" width="165" x="962.5" y="321"/><ellipse cx="977.5" cy="339.9688" fill="#00B500" rx="11" ry="11" style="stroke: #A80036; stroke-width: 1.0;"/><path d="M980.4688,345.6094 Q979.8906,345.9063 979.25,346.0547 Q978.6094,346.2031 977.9063,346.2031 Q975.4063,346.2031 974.0859,344.5547 Q972.7656,342.9063 972.7656,339.7813 Q972.7656,336.6563 974.0859,335 Q975.4063,333.3438 977.9063,333.3438 Q978.6094,333.3438 979.2578,333.5 Q979.9063,333.6563 980.4688,333.9531 L980.4688,336.6719 Q979.8438,336.0938 979.25,335.8203 Q978.6563,335.5469 978.0313,335.5469 Q976.6875,335.5469 976,336.6172 Q975.3125,337.6875 975.3125,339.7813 Q975.3125,341.875 976,342.9453 Q976.6875,344.0156 978.0313,344.0156 Q978.6563,344.0156 979.25,343.7422 Q979.8438,343.4688 980.4688,342.8906 L980.4688,345.6094 Z "/><text fill="#000000" font-family="sans-serif" font-size="12" font-style="italic" lengthAdjust="spacingAndGlyphs" textLength="86" x="1015" y="337.1387">«Component»</text><text fill="#000000" font-family="sans-serif" font-size="12" lengthAdjust="spacingAndGlyphs" textLength="133" x="991.5" y="351.1074">AppAboutComponent</text><!--class effCreator--><rect fill="#FEFECE" filter="url(#f1n87j5h5khkx9)" height="37.9375" id="effCreator" style="stroke: #A80036; stroke-width: 1.5;" width="218" x="916" y="420"/><ellipse cx="931" cy="438.9688" fill="#00B500" rx="11" ry="11" style="stroke: #A80036; stroke-width: 1.0;"/><path d="M933.9688,444.6094 Q933.3906,444.9063 932.75,445.0547 Q932.1094,445.2031 931.4063,445.2031 Q928.9063,445.2031 927.5859,443.5547 Q926.2656,441.9063 926.2656,438.7813 Q926.2656,435.6563 927.5859,434 Q928.9063,432.3438 931.4063,432.3438 Q932.1094,432.3438 932.7578,432.5 Q933.4063,432.6563 933.9688,432.9531 L933.9688,435.6719 Q933.3438,435.0938 932.75,434.8203 Q932.1563,434.5469 931.5313,434.5469 Q930.1875,434.5469 929.5,435.6172 Q928.8125,436.6875 928.8125,438.7813 Q928.8125,440.875 929.5,441.9453 Q930.1875,443.0156 931.5313,443.0156 Q932.1563,443.0156 932.75,442.7422 Q933.3438,442.4688 933.9688,441.8906 L933.9688,444.6094 Z "/><text fill="#000000" font-family="sans-serif" font-size="12" font-style="italic" lengthAdjust="spacingAndGlyphs" textLength="86" x="995" y="436.1387">«Component»</text><text fill="#000000" font-family="sans-serif" font-size="12" lengthAdjust="spacingAndGlyphs" textLength="186" x="945" y="450.1074">AppEffectsCreatorComponent</text><!--class help--><rect fill="#FEFECE" filter="url(#f1n87j5h5khkx9)" height="37.9375" id="help" style="stroke: #A80036; stroke-width: 1.5;" width="156" x="215" y="321"/><ellipse cx="230" cy="339.9688" fill="#00B500" rx="11" ry="11" style="stroke: #A80036; stroke-width: 1.0;"/><path d="M232.9688,345.6094 Q232.3906,345.9063 231.75,346.0547 Q231.1094,346.2031 230.4063,346.2031 Q227.9063,346.2031 226.5859,344.5547 Q225.2656,342.9063 225.2656,339.7813 Q225.2656,336.6563 226.5859,335 Q227.9063,333.3438 230.4063,333.3438 Q231.1094,333.3438 231.7578,333.5 Q232.4063,333.6563 232.9688,333.9531 L232.9688,336.6719 Q232.3438,336.0938 231.75,335.8203 Q231.1563,335.5469 230.5313,335.5469 Q229.1875,335.5469 228.5,336.6172 Q227.8125,337.6875 227.8125,339.7813 Q227.8125,341.875 228.5,342.9453 Q229.1875,344.0156 230.5313,344.0156 Q231.1563,344.0156 231.75,343.7422 Q232.3438,343.4688 232.9688,342.8906 L232.9688,345.6094 Z "/><text fill="#000000" font-family="sans-serif" font-size="12" font-style="italic" lengthAdjust="spacingAndGlyphs" textLength="86" x="263" y="337.1387">«Component»</text><text fill="#000000" font-family="sans-serif" font-size="12" lengthAdjust="spacingAndGlyphs" textLength="124" x="244" y="351.1074">AppHelpComponent</text><!--class slider--><rect fill="#FEFECE" filter="url(#f1n87j5h5khkx9)" height="37.9375" id="slider" style="stroke: #A80036; stroke-width: 1.5;" width="200" x="1726" y="123"/><ellipse cx="1741" cy="141.9688" fill="#00B500" rx="11" ry="11" style="stroke: #A80036; stroke-width: 1.0;"/><path d="M1743.9688,147.6094 Q1743.3906,147.9063 1742.75,148.0547 Q1742.1094,148.2031 1741.4063,148.2031 Q1738.9063,148.2031 1737.5859,146.5547 Q1736.2656,144.9063 1736.2656,141.7813 Q1736.2656,138.6563 1737.5859,137 Q1738.9063,135.3438 1741.4063,135.3438 Q1742.1094,135.3438 1742.7578,135.5 Q1743.4063,135.6563 1743.9688,135.9531 L1743.9688,138.6719 Q1743.3438,138.0938 1742.75,137.8203 Q1742.1563,137.5469 1741.5313,137.5469 Q1740.1875,137.5469 1739.5,138.6172 Q1738.8125,139.6875 1738.8125,141.7813 Q1738.8125,143.875 1739.5,144.9453 Q1740.1875,146.0156 1741.5313,146.0156 Q1742.1563,146.0156 1742.75,145.7422 Q1743.3438,145.4688 1743.9688,144.8906 L1743.9688,147.6094 Z "/><text fill="#000000" font-family="sans-serif" font-size="12" font-style="italic" lengthAdjust="spacingAndGlyphs" textLength="86" x="1796" y="139.1387">«Component»</text><text fill="#000000" font-family="sans-serif" font-size="12" lengthAdjust="spacingAndGlyphs" textLength="168" x="1755" y="153.1074">SliderControllerComponent</text><!--class roulette--><rect fill="#FEFECE" filter="url(#f1n87j5h5khkx9)" height="37.9375" id="roulette" style="stroke: #A80036; stroke-width: 1.5;" width="218" x="1717" y="8"/><ellipse cx="1732" cy="26.9688" fill="#00B500" rx="11" ry="11" style="stroke: #A80036; stroke-width: 1.0;"/><path d="M1734.9688,32.6094 Q1734.3906,32.9063 1733.75,33.0547 Q1733.1094,33.2031 1732.4063,33.2031 Q1729.9063,33.2031 1728.5859,31.5547 Q1727.2656,29.9063 1727.2656,26.7813 Q1727.2656,23.6563 1728.5859,22 Q1729.9063,20.3438 1732.4063,20.3438 Q1733.1094,20.3438 1733.7578,20.5 Q1734.4063,20.6563 1734.9688,20.9531 L1734.9688,23.6719 Q1734.3438,23.0938 1733.75,22.8203 Q1733.1563,22.5469 1732.5313,22.5469 Q1731.1875,22.5469 1730.5,23.6172 Q1729.8125,24.6875 1729.8125,26.7813 Q1729.8125,28.875 1730.5,29.9453 Q1731.1875,31.0156 1732.5313,31.0156 Q1733.1563,31.0156 1733.75,30.7422 Q1734.3438,30.4688 1734.9688,29.8906 L1734.9688,32.6094 Z "/><text fill="#000000" font-family="sans-serif" font-size="12" font-style="italic" lengthAdjust="spacingAndGlyphs" textLength="86" x="1796" y="24.1387">«Component»</text><text fill="#000000" font-family="sans-serif" font-size="12" lengthAdjust="spacingAndGlyphs" textLength="186" x="1746" y="38.1074">RouletteControllerComponent</text><!--class eqServ--><rect fill="#FEFECE" filter="url(#f1n87j5h5khkx9)" height="37.9375" id="eqServ" style="stroke: #A80036; stroke-width: 1.5;" width="94" x="350" y="618"/><ellipse cx="365" cy="636.9688" fill="#FF7700" rx="11" ry="11" style="stroke: #A80036; stroke-width: 1.0;"/><path d="M364.4844,637.5313 Q362.625,636.8281 361.9766,636.0547 Q361.3281,635.2813 361.3281,633.9688 Q361.3281,632.2813 362.4063,631.3125 Q363.4844,630.3438 365.3594,630.3438 Q366.2188,630.3438 367.0703,630.5391 Q367.9219,630.7344 368.7656,631.125 L368.7656,633.5156 Q367.9844,632.9531 367.1641,632.6641 Q366.3438,632.375 365.5469,632.375 Q364.6719,632.375 364.1953,632.7344 Q363.7188,633.0938 363.7188,633.75 Q363.7188,634.2656 364.0625,634.6016 Q364.4063,634.9375 365.5,635.3438 L366.5625,635.75 Q368.0469,636.2969 368.7578,637.2031 Q369.4688,638.1094 369.4688,639.4844 Q369.4688,641.3594 368.3594,642.2813 Q367.25,643.2031 365,643.2031 Q364.0781,643.2031 363.1563,642.9844 Q362.2344,642.7656 361.375,642.3438 L361.375,639.8125 Q362.3438,640.5 363.2656,640.8438 Q364.1875,641.1875 365.0781,641.1875 Q365.9844,641.1875 366.4844,640.7734 Q366.9844,640.3594 366.9844,639.625 Q366.9844,639.0625 366.6484,638.6484 Q366.3125,638.2344 365.6875,637.9844 L364.4844,637.5313 Z "/><text fill="#000000" font-family="sans-serif" font-size="12" font-style="italic" lengthAdjust="spacingAndGlyphs" textLength="59" x="380.5" y="634.1387">«Service»</text><text fill="#000000" font-family="sans-serif" font-size="12" lengthAdjust="spacingAndGlyphs" textLength="62" x="379" y="648.1074">EQService</text><!--class helpServ--><rect fill="#FEFECE" filter="url(#f1n87j5h5khkx9)" height="37.9375" id="helpServ" style="stroke: #A80036; stroke-width: 1.5;" width="105" x="240.5" y="420"/><ellipse cx="255.5" cy="438.9688" fill="#FF7700" rx="11" ry="11" style="stroke: #A80036; stroke-width: 1.0;"/><path d="M254.9844,439.5313 Q253.125,438.8281 252.4766,438.0547 Q251.8281,437.2813 251.8281,435.9688 Q251.8281,434.2813 252.9063,433.3125 Q253.9844,432.3438 255.8594,432.3438 Q256.7188,432.3438 257.5703,432.5391 Q258.4219,432.7344 259.2656,433.125 L259.2656,435.5156 Q258.4844,434.9531 257.6641,434.6641 Q256.8438,434.375 256.0469,434.375 Q255.1719,434.375 254.6953,434.7344 Q254.2188,435.0938 254.2188,435.75 Q254.2188,436.2656 254.5625,436.6016 Q254.9063,436.9375 256,437.3438 L257.0625,437.75 Q258.5469,438.2969 259.2578,439.2031 Q259.9688,440.1094 259.9688,441.4844 Q259.9688,443.3594 258.8594,444.2813 Q257.75,445.2031 255.5,445.2031 Q254.5781,445.2031 253.6563,444.9844 Q252.7344,444.7656 251.875,444.3438 L251.875,441.8125 Q252.8438,442.5 253.7656,442.8438 Q254.6875,443.1875 255.5781,443.1875 Q256.4844,443.1875 256.9844,442.7734 Q257.4844,442.3594 257.4844,441.625 Q257.4844,441.0625 257.1484,440.6484 Q256.8125,440.2344 256.1875,439.9844 L254.9844,439.5313 Z "/><text fill="#000000" font-family="sans-serif" font-size="12" font-style="italic" lengthAdjust="spacingAndGlyphs" textLength="59" x="276.5" y="436.1387">«Service»</text><text fill="#000000" font-family="sans-serif" font-size="12" lengthAdjust="spacingAndGlyphs" textLength="73" x="269.5" y="450.1074">HelpService</text><!--class musicServ--><rect fill="#FEFECE" filter="url(#f1n87j5h5khkx9)" height="37.9375" id="musicServ" style="stroke: #A80036; stroke-width: 1.5;" width="155" x="569.5" y="420"/><ellipse cx="584.5" cy="438.9688" fill="#FF7700" rx="11" ry="11" style="stroke: #A80036; stroke-width: 1.0;"/><path d="M583.9844,439.5313 Q582.125,438.8281 581.4766,438.0547 Q580.8281,437.2813 580.8281,435.9688 Q580.8281,434.2813 581.9063,433.3125 Q582.9844,432.3438 584.8594,432.3438 Q585.7188,432.3438 586.5703,432.5391 Q587.4219,432.7344 588.2656,433.125 L588.2656,435.5156 Q587.4844,434.9531 586.6641,434.6641 Q585.8438,434.375 585.0469,434.375 Q584.1719,434.375 583.6953,434.7344 Q583.2188,435.0938 583.2188,435.75 Q583.2188,436.2656 583.5625,436.6016 Q583.9063,436.9375 585,437.3438 L586.0625,437.75 Q587.5469,438.2969 588.2578,439.2031 Q588.9688,440.1094 588.9688,441.4844 Q588.9688,443.3594 587.8594,444.2813 Q586.75,445.2031 584.5,445.2031 Q583.5781,445.2031 582.6563,444.9844 Q581.7344,444.7656 580.875,444.3438 L580.875,441.8125 Q581.8438,442.5 582.7656,442.8438 Q583.6875,443.1875 584.5781,443.1875 Q585.4844,443.1875 585.9844,442.7734 Q586.4844,442.3594 586.4844,441.625 Q586.4844,441.0625 586.1484,440.6484 Q585.8125,440.2344 585.1875,439.9844 L583.9844,439.5313 Z "/><text fill="#000000" font-family="sans-serif" font-size="12" font-style="italic" lengthAdjust="spacingAndGlyphs" textLength="59" x="630.5" y="436.1387">«Service»</text><text fill="#000000" font-family="sans-serif" font-size="12" lengthAdjust="spacingAndGlyphs" textLength="123" x="598.5" y="450.1074">MusicLoaderService</text><!--class playerServ--><rect fill="#FEFECE" filter="url(#f1n87j5h5khkx9)" height="37.9375" id="playerServ" style="stroke: #A80036; stroke-width: 1.5;" width="115" x="589.5" y="519"/><ellipse cx="604.5" cy="537.9688" fill="#FF7700" rx="11" ry="11" style="stroke: #A80036; stroke-width: 1.0;"/><path d="M603.9844,538.5313 Q602.125,537.8281 601.4766,537.0547 Q600.8281,536.2813 600.8281,534.9688 Q600.8281,533.2813 601.9063,532.3125 Q602.9844,531.3438 604.8594,531.3438 Q605.7188,531.3438 606.5703,531.5391 Q607.4219,531.7344 608.2656,532.125 L608.2656,534.5156 Q607.4844,533.9531 606.6641,533.6641 Q605.8438,533.375 605.0469,533.375 Q604.1719,533.375 603.6953,533.7344 Q603.2188,534.0938 603.2188,534.75 Q603.2188,535.2656 603.5625,535.6016 Q603.9063,535.9375 605,536.3438 L606.0625,536.75 Q607.5469,537.2969 608.2578,538.2031 Q608.9688,539.1094 608.9688,540.4844 Q608.9688,542.3594 607.8594,543.2813 Q606.75,544.2031 604.5,544.2031 Q603.5781,544.2031 602.6563,543.9844 Q601.7344,543.7656 600.875,543.3438 L600.875,540.8125 Q601.8438,541.5 602.7656,541.8438 Q603.6875,542.1875 604.5781,542.1875 Q605.4844,542.1875 605.9844,541.7734 Q606.4844,541.3594 606.4844,540.625 Q606.4844,540.0625 606.1484,539.6484 Q605.8125,539.2344 605.1875,538.9844 L603.9844,538.5313 Z "/><text fill="#000000" font-family="sans-serif" font-size="12" font-style="italic" lengthAdjust="spacingAndGlyphs" textLength="59" x="630.5" y="535.1387">«Service»</text><text fill="#000000" font-family="sans-serif" font-size="12" lengthAdjust="spacingAndGlyphs" textLength="83" x="618.5" y="549.1074">PlayerService</text><!--class sizeServ--><rect fill="#FEFECE" filter="url(#f1n87j5h5khkx9)" height="37.9375" id="sizeServ" style="stroke: #A80036; stroke-width: 1.5;" width="101" x="772.5" y="420"/><ellipse cx="787.5" cy="438.9688" fill="#FF7700" rx="11" ry="11" style="stroke: #A80036; stroke-width: 1.0;"/><path d="M786.9844,439.5313 Q785.125,438.8281 784.4766,438.0547 Q783.8281,437.2813 783.8281,435.9688 Q783.8281,434.2813 784.9063,433.3125 Q785.9844,432.3438 787.8594,432.3438 Q788.7188,432.3438 789.5703,432.5391 Q790.4219,432.7344 791.2656,433.125 L791.2656,435.5156 Q790.4844,434.9531 789.6641,434.6641 Q788.8438,434.375 788.0469,434.375 Q787.1719,434.375 786.6953,434.7344 Q786.2188,435.0938 786.2188,435.75 Q786.2188,436.2656 786.5625,436.6016 Q786.9063,436.9375 788,437.3438 L789.0625,437.75 Q790.5469,438.2969 791.2578,439.2031 Q791.9688,440.1094 791.9688,441.4844 Q791.9688,443.3594 790.8594,444.2813 Q789.75,445.2031 787.5,445.2031 Q786.5781,445.2031 785.6563,444.9844 Q784.7344,444.7656 783.875,444.3438 L783.875,441.8125 Q784.8438,442.5 785.7656,442.8438 Q786.6875,443.1875 787.5781,443.1875 Q788.4844,443.1875 788.9844,442.7734 Q789.4844,442.3594 789.4844,441.625 Q789.4844,441.0625 789.1484,440.6484 Q788.8125,440.2344 788.1875,439.9844 L786.9844,439.5313 Z "/><text fill="#000000" font-family="sans-serif" font-size="12" font-style="italic" lengthAdjust="spacingAndGlyphs" textLength="59" x="806.5" y="436.1387">«Service»</text><text fill="#000000" font-family="sans-serif" font-size="12" lengthAdjust="spacingAndGlyphs" textLength="69" x="801.5" y="450.1074">SizeService</text><!--class trServ--><rect fill="#FEFECE" filter="url(#f1n87j5h5khkx9)" height="37.9375" id="trServ" style="stroke: #A80036; stroke-width: 1.5;" width="147" x="1171.5" y="420"/><ellipse cx="1186.5" cy="438.9688" fill="#FF7700" rx="11" ry="11" style="stroke: #A80036; stroke-width: 1.0;"/><path d="M1185.9844,439.5313 Q1184.125,438.8281 1183.4766,438.0547 Q1182.8281,437.2813 1182.8281,435.9688 Q1182.8281,434.2813 1183.9063,433.3125 Q1184.9844,432.3438 1186.8594,432.3438 Q1187.7188,432.3438 1188.5703,432.5391 Q1189.4219,432.7344 1190.2656,433.125 L1190.2656,435.5156 Q1189.4844,434.9531 1188.6641,434.6641 Q1187.8438,434.375 1187.0469,434.375 Q1186.1719,434.375 1185.6953,434.7344 Q1185.2188,435.0938 1185.2188,435.75 Q1185.2188,436.2656 1185.5625,436.6016 Q1185.9063,436.9375 1187,437.3438 L1188.0625,437.75 Q1189.5469,438.2969 1190.2578,439.2031 Q1190.9688,440.1094 1190.9688,441.4844 Q1190.9688,443.3594 1189.8594,444.2813 Q1188.75,445.2031 1186.5,445.2031 Q1185.5781,445.2031 1184.6563,444.9844 Q1183.7344,444.7656 1182.875,444.3438 L1182.875,441.8125 Q1183.8438,442.5 1184.7656,442.8438 Q1185.6875,443.1875 1186.5781,443.1875 Q1187.4844,443.1875 1187.9844,442.7734 Q1188.4844,442.3594 1188.4844,441.625 Q1188.4844,441.0625 1188.1484,440.6484 Q1187.8125,440.2344 1187.1875,439.9844 L1185.9844,439.5313 Z "/><text fill="#000000" font-family="sans-serif" font-size="12" font-style="italic" lengthAdjust="spacingAndGlyphs" textLength="59" x="1228.5" y="436.1387">«Service»</text><text fill="#000000" font-family="sans-serif" font-size="12" lengthAdjust="spacingAndGlyphs" textLength="115" x="1200.5" y="450.1074">TranslationService</text><!--class effServ--><rect fill="#FEFECE" filter="url(#f1n87j5h5khkx9)" height="37.9375" id="effServ" style="stroke: #A80036; stroke-width: 1.5;" width="120" x="965" y="618"/><ellipse cx="980" cy="636.9688" fill="#FF7700" rx="11" ry="11" style="stroke: #A80036; stroke-width: 1.0;"/><path d="M979.4844,637.5313 Q977.625,636.8281 976.9766,636.0547 Q976.3281,635.2813 976.3281,633.9688 Q976.3281,632.2813 977.4063,631.3125 Q978.4844,630.3438 980.3594,630.3438 Q981.2188,630.3438 982.0703,630.5391 Q982.9219,630.7344 983.7656,631.125 L983.7656,633.5156 Q982.9844,632.9531 982.1641,632.6641 Q981.3438,632.375 980.5469,632.375 Q979.6719,632.375 979.1953,632.7344 Q978.7188,633.0938 978.7188,633.75 Q978.7188,634.2656 979.0625,634.6016 Q979.4063,634.9375 980.5,635.3438 L981.5625,635.75 Q983.0469,636.2969 983.7578,637.2031 Q984.4688,638.1094 984.4688,639.4844 Q984.4688,641.3594 983.3594,642.2813 Q982.25,643.2031 980,643.2031 Q979.0781,643.2031 978.1563,642.9844 Q977.2344,642.7656 976.375,642.3438 L976.375,639.8125 Q977.3438,640.5 978.2656,640.8438 Q979.1875,641.1875 980.0781,641.1875 Q980.9844,641.1875 981.4844,640.7734 Q981.9844,640.3594 981.9844,639.625 Q981.9844,639.0625 981.6484,638.6484 Q981.3125,638.2344 980.6875,637.9844 L979.4844,637.5313 Z "/><text fill="#000000" font-family="sans-serif" font-size="12" font-style="italic" lengthAdjust="spacingAndGlyphs" textLength="59" x="1008.5" y="634.1387">«Service»</text><text fill="#000000" font-family="sans-serif" font-size="12" lengthAdjust="spacingAndGlyphs" textLength="88" x="994" y="648.1074">EffectsService</text><!--class ngDragDir--><rect fill="#FEFECE" filter="url(#f1n87j5h5khkx9)" height="37.9375" id="ngDragDir" style="stroke: #A80036; stroke-width: 1.5;" width="199" x="1970.5" y="8"/><ellipse cx="1985.5" cy="26.9688" fill="#4286F4" rx="11" ry="11" style="stroke: #A80036; stroke-width: 1.0;"/><path d="M1985.0938,22.7813 L1985.0938,30.7656 L1985.75,30.7656 Q1987.1875,30.7656 1987.8047,29.8516 Q1988.4219,28.9375 1988.4219,26.7656 Q1988.4219,24.5938 1987.8047,23.6875 Q1987.1875,22.7813 1985.75,22.7813 L1985.0938,22.7813 Z M1982.6406,20.5781 L1985.2656,20.5781 Q1988.2969,20.5781 1989.6328,22.0234 Q1990.9688,23.4688 1990.9688,26.7656 Q1990.9688,30.0625 1989.6328,31.5156 Q1988.2969,32.9688 1985.2656,32.9688 L1982.6406,32.9688 L1982.6406,20.5781 Z "/><text fill="#000000" font-family="sans-serif" font-size="12" font-style="italic" lengthAdjust="spacingAndGlyphs" textLength="68" x="2049" y="24.1387">«Directive»</text><text fill="#000000" font-family="sans-serif" font-size="12" lengthAdjust="spacingAndGlyphs" textLength="167" x="1999.5" y="38.1074">AngularDraggableDirective</text><!--link app to layout--><path d="M1376,59.2361 C1376,59.2361 1376,136 1376,136 C1376,136 901.1705,136 703.634,136 " fill="none" id="app-layout" style="stroke: #A80036; stroke-width: 1.0;"/><polygon fill="#A80036" points="1376,46.2361,1372,52.2361,1376,58.2361,1380,52.2361,1376,46.2361" style="stroke: #A80036; stroke-width: 1.0;"/><text fill="#000000" font-family="sans-serif" font-size="13" lengthAdjust="spacingAndGlyphs" textLength="8" x="1359.5625" y="65.85">1</text><text fill="#000000" font-family="sans-serif" font-size="13" lengthAdjust="spacingAndGlyphs" textLength="8" x="711.528" y="131.8732">1</text><!--link layout to deck--><path d="M550,174.3456 C550,174.3456 550,320.8674 550,320.8674 " fill="none" id="layout-deck" style="stroke: #A80036; stroke-width: 1.0;"/><polygon fill="#A80036" points="550,161.3456,546,167.3456,550,173.3456,554,167.3456,550,161.3456" style="stroke: #A80036; stroke-width: 1.0;"/><text fill="#000000" font-family="sans-serif" font-size="13" lengthAdjust="spacingAndGlyphs" textLength="8" x="521.4688" y="180.9903">1</text><text fill="#000000" font-family="sans-serif" font-size="13" lengthAdjust="spacingAndGlyphs" textLength="8" x="560.375" y="309.808">2</text><!--link layout to volume--><path d="M521.489,142 C521.489,142 93,142 93,142 C93,142 93,270.8325 93,320.6544 " fill="none" id="layout-volume" style="stroke: #A80036; stroke-width: 1.0;"/><polygon fill="#A80036" points="534.489,142,528.489,138,522.489,142,528.489,146,534.489,142" style="stroke: #A80036; stroke-width: 1.0;"/><text fill="#000000" font-family="sans-serif" font-size="13" lengthAdjust="spacingAndGlyphs" textLength="8" x="518.606" y="138.4076">1</text><text fill="#000000" font-family="sans-serif" font-size="13" lengthAdjust="spacingAndGlyphs" textLength="8" x="83.825" y="309.8641">1</text><!--link layout to tabs--><path d="M687.75,174.0867 C687.75,174.0867 687.75,232 687.75,232 C687.75,232 812.3196,232 897.9612,232 " fill="none" id="layout-tabs" style="stroke: #A80036; stroke-width: 1.0;"/><polygon fill="#A80036" points="687.75,161.0867,683.75,167.0867,687.75,173.0867,691.75,167.0867,687.75,161.0867" style="stroke: #A80036; stroke-width: 1.0;"/><text fill="#000000" font-family="sans-serif" font-size="13" lengthAdjust="spacingAndGlyphs" textLength="8" x="698.7703" y="180.9921">1</text><text fill="#000000" font-family="sans-serif" font-size="13" lengthAdjust="spacingAndGlyphs" textLength="8" x="882.0466" y="227.5035">1</text><!--link deck to musicServ--><path d="M565.5532,340 C594.7272,340 620.75,340 620.75,340 C620.75,340 620.75,391.1436 620.75,419.9118 " fill="none" id="deck-musicServ" style="stroke: #A80036; stroke-width: 1.0;"/><text fill="#000000" font-family="sans-serif" font-size="13" lengthAdjust="spacingAndGlyphs" textLength="8" x="573.5169" y="336.3614">1</text><text fill="#000000" font-family="sans-serif" font-size="13" lengthAdjust="spacingAndGlyphs" textLength="8" x="603.4859" y="408.866">1</text><!--link deck to playerServ--><path d="M525,359.1624 C525,407.2117 525,529 525,529 C525,529 557.6822,529 589.2155,529 " fill="none" id="deck-playerServ" style="stroke: #A80036; stroke-width: 1.0;"/><text fill="#000000" font-family="sans-serif" font-size="13" lengthAdjust="spacingAndGlyphs" textLength="8" x="527.2813" y="379.0901">1</text><text fill="#000000" font-family="sans-serif" font-size="13" lengthAdjust="spacingAndGlyphs" textLength="8" x="573.6855" y="524.0679">1</text><!--link deck to helpServ--><path d="M431.5,359.0882 C431.5,387.8564 431.5,439 431.5,439 C431.5,439 384.896,439 345.756,439 " fill="none" id="deck-helpServ" style="stroke: #A80036; stroke-width: 1.0;"/><text fill="#000000" font-family="sans-serif" font-size="13" lengthAdjust="spacingAndGlyphs" textLength="8" x="406.3156" y="378.9941">1</text><text fill="#000000" font-family="sans-serif" font-size="13" lengthAdjust="spacingAndGlyphs" textLength="8" x="353.3826" y="435.0722">1</text><!--link deck to trServ--><path d="M484.5,359.1385 C484.5,367.3096 484.5,375 484.5,375 C484.5,375 1192.3333,375 1192.3333,375 C1192.3333,375 1192.3333,400.9463 1192.3333,419.7979 " fill="none" id="deck-trServ" style="stroke: #A80036; stroke-width: 1.0;"/><text fill="#000000" font-family="sans-serif" font-size="13" lengthAdjust="spacingAndGlyphs" textLength="8" x="474.8844" y="379.0591">1</text><text fill="#000000" font-family="sans-serif" font-size="13" lengthAdjust="spacingAndGlyphs" textLength="8" x="1167.6875" y="409.0497">1</text><!--link tabs to musicList--><path d="M907,273.0882 C907,273.0882 907,340 907,340 C907,340 883.8511,340 856.1809,340 " fill="none" id="tabs-musicList" style="stroke: #A80036; stroke-width: 1.0;"/><polygon fill="#A80036" points="907,260.0882,903,266.0882,907,272.0882,911,266.0882,907,260.0882" style="stroke: #A80036; stroke-width: 1.0;"/><text fill="#000000" font-family="sans-serif" font-size="13" lengthAdjust="spacingAndGlyphs" textLength="8" x="881.8875" y="278.3262">1</text><text fill="#000000" font-family="sans-serif" font-size="13" lengthAdjust="spacingAndGlyphs" textLength="8" x="864.1459" y="336.4539">1</text><!--link tabs to settings--><path d="M1069.1739,248 C1069.1739,248 1286,248 1286,248 C1286,248 1286,293.9902 1286,320.9375 " fill="none" id="tabs-settings" style="stroke: #A80036; stroke-width: 1.0;"/><polygon fill="#A80036" points="1056.1739,248,1062.1739,252,1068.1739,248,1062.1739,244,1056.1739,248" style="stroke: #A80036; stroke-width: 1.0;"/><text fill="#000000" font-family="sans-serif" font-size="13" lengthAdjust="spacingAndGlyphs" textLength="8" x="1064.1014" y="245.0285">1</text><text fill="#000000" font-family="sans-serif" font-size="13" lengthAdjust="spacingAndGlyphs" textLength="8" x="1265.1375" y="309.8995">1</text><!--link tabs to effSelector--><path d="M1069.0665,235 C1069.0665,235 1440,235 1440,235 C1440,235 1440,369.0252 1440,419.8082 " fill="none" id="tabs-effSelector" style="stroke: #A80036; stroke-width: 1.0;"/><polygon fill="#A80036" points="1056.0665,235,1062.0665,239,1068.0665,235,1062.0665,231,1056.0665,235" style="stroke: #A80036; stroke-width: 1.0;"/><text fill="#000000" font-family="sans-serif" font-size="13" lengthAdjust="spacingAndGlyphs" textLength="8" x="1063.9838" y="230.7895">1</text><text fill="#000000" font-family="sans-serif" font-size="13" lengthAdjust="spacingAndGlyphs" textLength="8" x="1423.4813" y="409.0631">1</text><!--link tabs to about--><path d="M1009.25,273.0882 C1009.25,273.0882 1009.25,320.9704 1009.25,320.9704 " fill="none" id="tabs-about" style="stroke: #A80036; stroke-width: 1.0;"/><polygon fill="#A80036" points="1009.25,260.0882,1005.25,266.0882,1009.25,272.0882,1013.25,266.0882,1009.25,260.0882" style="stroke: #A80036; stroke-width: 1.0;"/><text fill="#000000" font-family="sans-serif" font-size="13" lengthAdjust="spacingAndGlyphs" textLength="8" x="1009.5484" y="279.9941">1</text><text fill="#000000" font-family="sans-serif" font-size="13" lengthAdjust="spacingAndGlyphs" textLength="8" x="989.0766" y="309.9425">1</text><!--link tabs to effCreator--><path d="M939.25,273.3456 C939.25,273.3456 939.25,419.8674 939.25,419.8674 " fill="none" id="tabs-effCreator" style="stroke: #A80036; stroke-width: 1.0;"/><polygon fill="#A80036" points="939.25,260.3456,935.25,266.3456,939.25,272.3456,943.25,266.3456,939.25,260.3456" style="stroke: #A80036; stroke-width: 1.0;"/><text fill="#000000" font-family="sans-serif" font-size="13" lengthAdjust="spacingAndGlyphs" textLength="8" x="919.5078" y="279.9903">1</text><text fill="#000000" font-family="sans-serif" font-size="13" lengthAdjust="spacingAndGlyphs" textLength="8" x="903.7641" y="408.808">1</text><!--link tabs to help--><path d="M884.8683,241 C884.8683,241 293,241 293,241 C293,241 293,292.1436 293,320.9118 " fill="none" id="tabs-help" style="stroke: #A80036; stroke-width: 1.0;"/><polygon fill="#A80036" points="897.8683,241,891.8683,237,885.8683,241,891.8683,245,897.8683,241" style="stroke: #A80036; stroke-width: 1.0;"/><text fill="#000000" font-family="sans-serif" font-size="13" lengthAdjust="spacingAndGlyphs" textLength="8" x="881.9448" y="253.791">1</text><text fill="#000000" font-family="sans-serif" font-size="13" lengthAdjust="spacingAndGlyphs" textLength="8" x="283.775" y="309.866">1</text><!--link app to trServ--><path d="M1337.8062,27 C1283.0631,27 1213.1667,27 1213.1667,27 C1213.1667,27 1213.1667,338.9268 1213.1667,419.9547 " fill="none" id="app-trServ" style="stroke: #A80036; stroke-width: 1.0;"/><text fill="#000000" font-family="sans-serif" font-size="13" lengthAdjust="spacingAndGlyphs" textLength="8" x="1321.9213" y="23.211">1</text><text fill="#000000" font-family="sans-serif" font-size="13" lengthAdjust="spacingAndGlyphs" textLength="8" x="1194.1928" y="408.922">1</text><!--link effCreator to effServ--><path d="M1025,458.3456 C1025,496.2959 1025,580.0893 1025,617.8674 " fill="none" id="effCreator-effServ" style="stroke: #A80036; stroke-width: 1.0;"/><text fill="#000000" font-family="sans-serif" font-size="13" lengthAdjust="spacingAndGlyphs" textLength="8" x="1015.875" y="477.9903">1</text><text fill="#000000" font-family="sans-serif" font-size="13" lengthAdjust="spacingAndGlyphs" textLength="8" x="1015.775" y="606.808">1</text><!--link effCreator to playerServ--><path d="M940.5,458.2697 C940.5,485.5099 940.5,532 940.5,532 C940.5,532 790.111,532 704.636,532 " fill="none" id="effCreator-playerServ" style="stroke: #A80036; stroke-width: 1.0;"/><text fill="#000000" font-family="sans-serif" font-size="13" lengthAdjust="spacingAndGlyphs" textLength="8" x="907.6094" y="477.893">1</text><text fill="#000000" font-family="sans-serif" font-size="13" lengthAdjust="spacingAndGlyphs" textLength="8" x="712.5331" y="527.3497">1</text><!--link effSelector to effServ--><path d="M1502.1667,458.3456 C1502.1667,508.1675 1502.1667,637 1502.1667,637 C1502.1667,637 1213.8324,637 1085.4335,637 " fill="none" id="effSelector-effServ" style="stroke: #A80036; stroke-width: 1.0;"/><text fill="#000000" font-family="sans-serif" font-size="13" lengthAdjust="spacingAndGlyphs" textLength="8" x="1503.4948" y="477.9903">1</text><text fill="#000000" font-family="sans-serif" font-size="13" lengthAdjust="spacingAndGlyphs" textLength="8" x="1092.8836" y="633.211">1</text><!--link effSelector to playerServ--><path d="M1427.8333,458.442 C1427.8333,489.0433 1427.8333,545 1427.8333,545 C1427.8333,545 885.3761,545 704.7336,545 " fill="none" id="effSelector-playerServ" style="stroke: #A80036; stroke-width: 1.0;"/><text fill="#000000" font-family="sans-serif" font-size="13" lengthAdjust="spacingAndGlyphs" textLength="8" x="1408.2552" y="478.1138">1</text><text fill="#000000" font-family="sans-serif" font-size="13" lengthAdjust="spacingAndGlyphs" textLength="8" x="712.6432" y="542.0153">1</text><!--link help to helpServ--><path d="M293,359.0882 C293,376.6188 293,402.4583 293,419.9704 " fill="none" id="help-helpServ" style="stroke: #A80036; stroke-width: 1.0;"/><text fill="#000000" font-family="sans-serif" font-size="13" lengthAdjust="spacingAndGlyphs" textLength="8" x="283.825" y="378.9941">1</text><text fill="#000000" font-family="sans-serif" font-size="13" lengthAdjust="spacingAndGlyphs" textLength="8" x="283.775" y="408.9425">1</text><!--link layout to sizeServ--><path d="M703.5904,149 C773.6719,149 861.8333,149 861.8333,149 C861.8333,149 861.8333,355.4551 861.8333,419.9723 " fill="none" id="layout-sizeServ" style="stroke: #A80036; stroke-width: 1.0;"/><text fill="#000000" font-family="sans-serif" font-size="13" lengthAdjust="spacingAndGlyphs" textLength="8" x="711.4805" y="162.367">1</text><text fill="#000000" font-family="sans-serif" font-size="13" lengthAdjust="spacingAndGlyphs" textLength="8" x="864.501" y="408.945">1</text><!--link musicList to musicServ--><path d="M698.25,359.0882 C698.25,376.6188 698.25,402.4583 698.25,419.9704 " fill="none" id="musicList-musicServ" style="stroke: #A80036; stroke-width: 1.0;"/><text fill="#000000" font-family="sans-serif" font-size="13" lengthAdjust="spacingAndGlyphs" textLength="8" x="669.7609" y="378.9941">1</text><text fill="#000000" font-family="sans-serif" font-size="13" lengthAdjust="spacingAndGlyphs" textLength="8" x="704.7203" y="408.9425">1</text><!--link settings to sizeServ--><path d="M1262.1667,359.1506 C1262.1667,378.324 1262.1667,405 1262.1667,405 C1262.1667,405 867.6667,405 867.6667,405 C867.6667,405 867.6667,411.981 867.6667,419.6164 " fill="none" id="settings-sizeServ" style="stroke: #A80036; stroke-width: 1.0;"/><text fill="#000000" font-family="sans-serif" font-size="13" lengthAdjust="spacingAndGlyphs" textLength="8" x="1234.8282" y="379.0748">1</text><text fill="#000000" font-family="sans-serif" font-size="13" lengthAdjust="spacingAndGlyphs" textLength="8" x="881.3542" y="409.1497">1</text><!--link settings to trServ--><path d="M1290.3333,359.0882 C1290.3333,376.6188 1290.3333,402.4583 1290.3333,419.9704 " fill="none" id="settings-trServ" style="stroke: #A80036; stroke-width: 1.0;"/><text fill="#000000" font-family="sans-serif" font-size="13" lengthAdjust="spacingAndGlyphs" textLength="8" x="1271.2687" y="378.9941">1</text><text fill="#000000" font-family="sans-serif" font-size="13" lengthAdjust="spacingAndGlyphs" textLength="8" x="1294.9916" y="408.9425">1</text><!--link tabs to musicServ--><path d="M897.8071,251 C799.9946,251 646.375,251 646.375,251 C646.375,251 646.375,372.1439 646.375,419.939 " fill="none" id="tabs-musicServ" style="stroke: #A80036; stroke-width: 1.0;"/><text fill="#000000" font-family="sans-serif" font-size="13" lengthAdjust="spacingAndGlyphs" textLength="8" x="881.8778" y="264.7442">1</text><text fill="#000000" font-family="sans-serif" font-size="13" lengthAdjust="spacingAndGlyphs" textLength="8" x="636.9586" y="408.9015">1</text><!--link volume to musicServ--><path d="M110.4,359.1883 C110.4,373.2886 110.4,390 110.4,390 C110.4,390 595.125,390 595.125,390 C595.125,390 595.125,406.1566 595.125,419.915 " fill="none" id="volume-musicServ" style="stroke: #A80036; stroke-width: 1.0;"/><text fill="#000000" font-family="sans-serif" font-size="13" lengthAdjust="spacingAndGlyphs" textLength="8" x="106.3363" y="379.1236">1</text><text fill="#000000" font-family="sans-serif" font-size="13" lengthAdjust="spacingAndGlyphs" textLength="8" x="570.0133" y="408.8701">1</text><!--link volume to eqServ--><path d="M40.8,359.0305 C40.8,424.5815 40.8,637 40.8,637 C40.8,637 252.806,637 349.6994,637 " fill="none" id="volume-eqServ" style="stroke: #A80036; stroke-width: 1.0;"/><text fill="#000000" font-family="sans-serif" font-size="13" lengthAdjust="spacingAndGlyphs" textLength="8" x="16.2912" y="378.9194">1</text><text fill="#000000" font-family="sans-serif" font-size="13" lengthAdjust="spacingAndGlyphs" textLength="8" x="333.844" y="632.9334">1</text><!--link volume to playerServ--><path d="M75.6,359.3456 C75.6,409.1675 75.6,538 75.6,538 C75.6,538 444.2482,538 589.3314,538 " fill="none" id="volume-playerServ" style="stroke: #A80036; stroke-width: 1.0;"/><text fill="#000000" font-family="sans-serif" font-size="13" lengthAdjust="spacingAndGlyphs" textLength="8" x="61.5813" y="378.9903">1</text><text fill="#000000" font-family="sans-serif" font-size="13" lengthAdjust="spacingAndGlyphs" textLength="8" x="573.4301" y="551.0403">1</text><!--link volume to helpServ--><path d="M145.2,359.0882 C145.2,387.8564 145.2,439 145.2,439 C145.2,439 197.9931,439 240.4751,439 " fill="none" id="volume-helpServ" style="stroke: #A80036; stroke-width: 1.0;"/><text fill="#000000" font-family="sans-serif" font-size="13" lengthAdjust="spacingAndGlyphs" textLength="8" x="151.3588" y="378.9941">1</text><text fill="#000000" font-family="sans-serif" font-size="13" lengthAdjust="spacingAndGlyphs" textLength="8" x="224.5263" y="435.0259">1</text><!--link musicServ to playerServ--><path d="M647,458.0882 C647,475.6188 647,501.4583 647,518.9704 " fill="none" id="musicServ-playerServ" style="stroke: #A80036; stroke-width: 1.0;"/><text fill="#000000" font-family="sans-serif" font-size="13" lengthAdjust="spacingAndGlyphs" textLength="8" x="637.825" y="477.9941">1</text><text fill="#000000" font-family="sans-serif" font-size="13" lengthAdjust="spacingAndGlyphs" textLength="8" x="637.775" y="507.9425">1</text><!--link playerServ to effServ--><path d="M647,557.0882 C647,585.8564 647,637 647,637 C647,637 857.9671,637 964.6868,637 " fill="none" id="playerServ-effServ" style="stroke: #A80036; stroke-width: 1.0;"/><text fill="#000000" font-family="sans-serif" font-size="13" lengthAdjust="spacingAndGlyphs" textLength="8" x="637.825" y="576.9941">1</text><text fill="#000000" font-family="sans-serif" font-size="13" lengthAdjust="spacingAndGlyphs" textLength="8" x="948.8486" y="633.1647">1</text><!--link playerServ to eqServ--><path d="M589.466,548 C521.9229,548 419,548 419,548 C419,548 419,591.5127 419,617.6883 " fill="none" id="playerServ-eqServ" style="stroke: #A80036; stroke-width: 1.0;"/><text fill="#000000" font-family="sans-serif" font-size="13" lengthAdjust="spacingAndGlyphs" textLength="8" x="573.582" y="562.3216">1</text><text fill="#000000" font-family="sans-serif" font-size="13" lengthAdjust="spacingAndGlyphs" textLength="8" x="416.2875" y="606.9079">1</text><!--link roulette to slider--><path d="M1826,46.2484 C1826,67.4768 1826,101.4354 1826,122.6888 " fill="none" id="roulette-slider" style="stroke: #A80036; stroke-width: 1.0;"/><text fill="#000000" font-family="sans-serif" font-size="13" lengthAdjust="spacingAndGlyphs" textLength="54" x="1827" y="89.0669">contains</text><polygon fill="#000000" points="1849.5,98.1328,1852.5,104.1328,1855.5,98.1328,1849.5,98.1328" style="stroke: #000000; stroke-width: 1.0;"/><text fill="#000000" font-family="sans-serif" font-size="13" lengthAdjust="spacingAndGlyphs" textLength="8" x="1816.875" y="65.8657">1</text><text fill="#000000" font-family="sans-serif" font-size="13" lengthAdjust="spacingAndGlyphs" textLength="8" x="1816.825" y="111.9086">1</text><!--
@startuml VirtualDJ
skinparam linetype ortho
hide empty members
class "AppComponent" as app <<(C,#00b500) Component>>
class "AppLayoutComponent" as layout <<(C,#00b500) Component>>
class "AppDeckComponent" as deck <<(C,#00b500) Component>>
class "AppVolumeComponent" as volume <<(C,#00b500) Component>>
class "AppTabsComponent" as tabs <<(C,#00b500) Component>>
class "AppMusicListComponent" as musicList <<(C,#00b500) Component>>
class "AppSettingsComponent" as settings <<(C,#00b500) Component>>
class "AppEffectsSelectorComponent" as effSelector <<(C,#00b500) Component>>
class "AppAboutComponent" as about <<(C,#00b500) Component>>
class "AppEffectsCreatorComponent" as effCreator <<(C,#00b500) Component>>
class "AppHelpComponent" as help <<(C,#00b500) Component>>
class "SliderControllerComponent" as slider <<(C,#00b500) Component>>
class "RouletteControllerComponent" as roulette <<(C,#00b500) Component>>
class "EQService" as eqServ <<(S,#FF7700) Service>>
class "HelpService" as helpServ <<(S,#FF7700) Service>>
class "MusicLoaderService" as musicServ <<(S,#FF7700) Service>>
class "PlayerService" as playerServ <<(S,#FF7700) Service>>
class "SizeService" as sizeServ <<(S,#FF7700) Service>>
class "TranslationService" as trServ <<(S,#FF7700) Service>>
class "EffectsService" as effServ <<(S,#FF7700) Service>>
class "AngularDraggableDirective" as ngDragDir <<(D,#4286f4) Directive>>
app "1" *- - "1" layout
layout "1" *- - "2" deck
layout "1" *- - "1" volume
layout "1" *- - "1" tabs
deck "1" - - "1" musicServ 
deck "1" - - "1" playerServ 
deck "1" - - "1" helpServ 
deck "1" - - "1" trServ 
tabs "1" *- - "1" musicList
tabs "1" *- - "1" settings
tabs "1" *- - "1" effSelector
tabs "1" *- - "1" about
tabs "1" *- - "1" effCreator
tabs "1" *- - "1" help
app "1" - - "1" trServ
effCreator "1" - - "1" effServ
effCreator "1" - - "1" playerServ
effSelector "1" - - "1" effServ
effSelector "1" - - "1" playerServ
help "1" - - "1" helpServ
layout "1" - - "1" sizeServ
musicList "1" - - "1" musicServ
settings "1" - - "1" sizeServ
settings "1" - - "1" trServ
tabs "1" - - "1" musicServ
volume "1" - - "1" musicServ
volume "1" - - "1" eqServ
volume "1" - - "1" playerServ
volume "1" - - "1" helpServ
musicServ "1" - - "1" playerServ
playerServ "1" - - "1" effServ
playerServ "1" - - "1" eqServ
roulette "1" - - "1" slider: contains >
@enduml

PlantUML version 1.2018.12(Sun Oct 21 12:15:15 CEST 2018)
(GPL source distribution)
Java Runtime: Java(TM) SE Runtime Environment
JVM: Java HotSpot(TM) 64-Bit Server VM
Java Version: 1.8.0_201-b09
Operating System: Linux
OS Version: 4.15.0-45-generic
Default Encoding: UTF-8
Language: es
Country: ES
--></g></svg>