<?xml version="1.0" encoding="UTF-8" standalone="no"?>
<!DOCTYPE svg PUBLIC "-//W3C//DTD SVG 1.1//EN"
 "http://www.w3.org/Graphics/SVG/1.1/DTD/svg11.dtd">
<!-- Generated by graphviz version 2.40.1 (20161225.0304)
 -->
<!-- Title: dependencies Pages: 1 -->
<svg width="630pt" height="284pt"
 viewBox="0.00 0.00 630.00 284.00" xmlns="http://www.w3.org/2000/svg" xmlns:xlink="http://www.w3.org/1999/xlink">
<g id="graph0" class="graph" transform="scale(1 1) rotate(0) translate(4 280)">
<title>dependencies</title>
<polygon fill="#ffffff" stroke="transparent" points="-4,4 -4,-280 626,-280 626,4 -4,4"/>
<text text-anchor="start" x="290.0091" y="-42.4" font-family="sans-serif" font-weight="bold" font-size="14.00" fill="#000000">Legend</text>
<polygon fill="#ffffb3" stroke="transparent" points="77,-10 77,-30 97,-30 97,-10 77,-10"/>
<text text-anchor="start" x="100.629" y="-15.4" font-family="sans-serif" font-size="14.00" fill="#000000"> &#160;Declarations</text>
<polygon fill="#8dd3c7" stroke="transparent" points="190,-10 190,-30 210,-30 210,-10 190,-10"/>
<text text-anchor="start" x="213.7251" y="-15.4" font-family="sans-serif" font-size="14.00" fill="#000000"> &#160;Module</text>
<polygon fill="#80b1d3" stroke="transparent" points="276,-10 276,-30 296,-30 296,-10 276,-10"/>
<text text-anchor="start" x="299.7812" y="-15.4" font-family="sans-serif" font-size="14.00" fill="#000000"> &#160;Bootstrap</text>
<polygon fill="#fdb462" stroke="transparent" points="373,-10 373,-30 393,-30 393,-10 373,-10"/>
<text text-anchor="start" x="396.6732" y="-15.4" font-family="sans-serif" font-size="14.00" fill="#000000"> &#160;Providers</text>
<polygon fill="#fb8072" stroke="transparent" points="469,-10 469,-30 489,-30 489,-10 469,-10"/>
<text text-anchor="start" x="492.7258" y="-15.4" font-family="sans-serif" font-size="14.00" fill="#000000"> &#160;Exports</text>
<g id="clust1" class="cluster">
<title>cluster_AppModule</title>
<polygon fill="none" stroke="#000000" stroke-dasharray="1,5" points="8,-70 8,-268 614,-268 614,-70 8,-70"/>
</g>
<g id="clust2" class="cluster">
<title>cluster_AppModule_declarations</title>
<polygon fill="none" stroke="#000000" points="168,-78 168,-130 606,-130 606,-78 168,-78"/>
</g>
<g id="clust6" class="cluster">
<title>cluster_AppModule_imports</title>
<polygon fill="none" stroke="#000000" points="16,-78 16,-130 160,-130 160,-78 16,-78"/>
</g>
<g id="clust8" class="cluster">
<title>cluster_AppModule_bootstrap</title>
<polygon fill="none" stroke="#000000" points="266,-208 266,-260 390,-260 390,-208 266,-208"/>
</g>
<!-- AppComponent -->
<g id="node1" class="node">
<title>AppComponent</title>
<polygon fill="#ffffb3" stroke="#000000" points="597.9399,-122 492.0601,-122 492.0601,-86 597.9399,-86 597.9399,-122"/>
<text text-anchor="middle" x="545" y="-99.8" font-family="Times,serif" font-size="14.00" fill="#000000">AppComponent</text>
</g>
<!-- AppModule -->
<g id="node4" class="node">
<title>AppModule</title>
<polygon fill="#8dd3c7" stroke="#000000" points="369.6571,-187 366.6571,-191 345.6571,-191 342.6571,-187 286.3429,-187 286.3429,-151 369.6571,-151 369.6571,-187"/>
<text text-anchor="middle" x="328" y="-164.8" font-family="Times,serif" font-size="14.00" fill="#000000">AppModule</text>
</g>
<!-- AppComponent&#45;&gt;AppModule -->
<g id="edge1" class="edge">
<title>AppComponent&#45;&gt;AppModule</title>
<path fill="none" stroke="#000000" d="M545,-122.1061C545,-141.3391 545,-169 545,-169 545,-169 379.8398,-169 379.8398,-169"/>
<polygon fill="#000000" stroke="#000000" points="379.8398,-165.5001 369.8398,-169 379.8397,-172.5001 379.8398,-165.5001"/>
</g>
<!-- AppDeckComponent -->
<g id="node2" class="node">
<title>AppDeckComponent</title>
<polygon fill="#ffffb3" stroke="#000000" points="474.4748,-122 339.5252,-122 339.5252,-86 474.4748,-86 474.4748,-122"/>
<text text-anchor="middle" x="407" y="-99.8" font-family="Times,serif" font-size="14.00" fill="#000000">AppDeckComponent</text>
</g>
<!-- AppDeckComponent&#45;&gt;AppModule -->
<g id="edge2" class="edge">
<title>AppDeckComponent&#45;&gt;AppModule</title>
<path fill="none" stroke="#000000" d="M354.6704,-122.1061C354.6704,-122.1061 354.6704,-140.991 354.6704,-140.991"/>
<polygon fill="#000000" stroke="#000000" points="351.1705,-140.9909 354.6704,-150.991 358.1705,-140.991 351.1705,-140.9909"/>
</g>
<!-- AppLayoutComponent -->
<g id="node3" class="node">
<title>AppLayoutComponent</title>
<polygon fill="#ffffb3" stroke="#000000" points="321.5968,-122 176.4032,-122 176.4032,-86 321.5968,-86 321.5968,-122"/>
<text text-anchor="middle" x="249" y="-99.8" font-family="Times,serif" font-size="14.00" fill="#000000">AppLayoutComponent</text>
</g>
<!-- AppLayoutComponent&#45;&gt;AppModule -->
<g id="edge3" class="edge">
<title>AppLayoutComponent&#45;&gt;AppModule</title>
<path fill="none" stroke="#000000" d="M303.8601,-122.1061C303.8601,-122.1061 303.8601,-140.991 303.8601,-140.991"/>
<polygon fill="#000000" stroke="#000000" points="300.3602,-140.9909 303.8601,-150.991 307.3602,-140.991 300.3602,-140.9909"/>
</g>
<!-- AppComponent  -->
<g id="node6" class="node">
<title>AppComponent </title>
<polygon fill="#80b1d3" stroke="#000000" points="382.439,-252 273.561,-252 273.561,-216 382.439,-216 382.439,-252"/>
<text text-anchor="middle" x="328" y="-229.8" font-family="Times,serif" font-size="14.00" fill="#000000">AppComponent </text>
</g>
<!-- AppModule&#45;&gt;AppComponent  -->
<g id="edge5" class="edge">
<title>AppModule&#45;&gt;AppComponent </title>
<path fill="none" stroke="#000000" stroke-dasharray="1,5" d="M328,-187.1061C328,-187.1061 328,-205.991 328,-205.991"/>
<polygon fill="#000000" stroke="#000000" points="324.5001,-205.9909 328,-215.991 331.5001,-205.991 324.5001,-205.9909"/>
</g>
<!-- AppRoutingModule -->
<g id="node5" class="node">
<title>AppRoutingModule</title>
<polygon fill="#8dd3c7" stroke="#000000" points="152.2744,-122 149.2744,-126 128.2744,-126 125.2744,-122 23.7256,-122 23.7256,-86 152.2744,-86 152.2744,-122"/>
<text text-anchor="middle" x="88" y="-99.8" font-family="Times,serif" font-size="14.00" fill="#000000">AppRoutingModule</text>
</g>
<!-- AppRoutingModule&#45;&gt;AppModule -->
<g id="edge4" class="edge">
<title>AppRoutingModule&#45;&gt;AppModule</title>
<path fill="none" stroke="#000000" d="M88,-122.1061C88,-141.3391 88,-169 88,-169 88,-169 276.1952,-169 276.1952,-169"/>
<polygon fill="#000000" stroke="#000000" points="276.1952,-172.5001 286.1952,-169 276.1952,-165.5001 276.1952,-172.5001"/>
</g>
</g>
</svg>
