<?xml version="1.0" encoding="UTF-8" standalone="no"?>
<!DOCTYPE svg PUBLIC "-//W3C//DTD SVG 1.1//EN"
 "http://www.w3.org/Graphics/SVG/1.1/DTD/svg11.dtd">
<!-- Generated by graphviz version 2.40.1 (20161225.0304)
 -->
<!-- Title: dependencies Pages: 1 -->
<svg width="2415pt" height="284pt"
 viewBox="0.00 0.00 2415.00 284.00" xmlns="http://www.w3.org/2000/svg" xmlns:xlink="http://www.w3.org/1999/xlink">
<g id="graph0" class="graph" transform="scale(1 1) rotate(0) translate(4 280)">
<title>dependencies</title>
<polygon fill="#ffffff" stroke="transparent" points="-4,4 -4,-280 2411,-280 2411,4 -4,4"/>
<text text-anchor="start" x="1182.5091" y="-42.4" font-family="sans-serif" font-weight="bold" font-size="14.00" fill="#000000">Legend</text>
<polygon fill="#ffffb3" stroke="transparent" points="969.5,-10 969.5,-30 989.5,-30 989.5,-10 969.5,-10"/>
<text text-anchor="start" x="993.129" y="-15.4" font-family="sans-serif" font-size="14.00" fill="#000000"> &#160;Declarations</text>
<polygon fill="#8dd3c7" stroke="transparent" points="1082.5,-10 1082.5,-30 1102.5,-30 1102.5,-10 1082.5,-10"/>
<text text-anchor="start" x="1106.2251" y="-15.4" font-family="sans-serif" font-size="14.00" fill="#000000"> &#160;Module</text>
<polygon fill="#80b1d3" stroke="transparent" points="1168.5,-10 1168.5,-30 1188.5,-30 1188.5,-10 1168.5,-10"/>
<text text-anchor="start" x="1192.2812" y="-15.4" font-family="sans-serif" font-size="14.00" fill="#000000"> &#160;Bootstrap</text>
<polygon fill="#fdb462" stroke="transparent" points="1265.5,-10 1265.5,-30 1285.5,-30 1285.5,-10 1265.5,-10"/>
<text text-anchor="start" x="1289.1732" y="-15.4" font-family="sans-serif" font-size="14.00" fill="#000000"> &#160;Providers</text>
<polygon fill="#fb8072" stroke="transparent" points="1361.5,-10 1361.5,-30 1381.5,-30 1381.5,-10 1361.5,-10"/>
<text text-anchor="start" x="1385.2258" y="-15.4" font-family="sans-serif" font-size="14.00" fill="#000000"> &#160;Exports</text>
<g id="clust1" class="cluster">
<title>cluster_AppModule</title>
<polygon fill="none" stroke="#000000" stroke-dasharray="1,5" points="8,-70 8,-268 2399,-268 2399,-70 8,-70"/>
</g>
<g id="clust2" class="cluster">
<title>cluster_AppModule_declarations</title>
<polygon fill="none" stroke="#000000" points="168,-78 168,-130 2391,-130 2391,-78 168,-78"/>
</g>
<g id="clust16" class="cluster">
<title>cluster_AppModule_imports</title>
<polygon fill="none" stroke="#000000" points="16,-78 16,-130 160,-130 160,-78 16,-78"/>
</g>
<g id="clust18" class="cluster">
<title>cluster_AppModule_bootstrap</title>
<polygon fill="none" stroke="#000000" points="1163,-208 1163,-260 1287,-260 1287,-208 1163,-208"/>
</g>
<!-- AppAboutComponent -->
<g id="node1" class="node">
<title>AppAboutComponent</title>
<polygon fill="#ffffb3" stroke="#000000" points="2383.4369,-122 2242.5631,-122 2242.5631,-86 2383.4369,-86 2383.4369,-122"/>
<text text-anchor="middle" x="2313" y="-99.8" font-family="Times,serif" font-size="14.00" fill="#000000">AppAboutComponent</text>
</g>
<!-- AppModule -->
<g id="node14" class="node">
<title>AppModule</title>
<polygon fill="#8dd3c7" stroke="#000000" points="1266.6571,-187 1263.6571,-191 1242.6571,-191 1239.6571,-187 1183.3429,-187 1183.3429,-151 1266.6571,-151 1266.6571,-187"/>
<text text-anchor="middle" x="1225" y="-164.8" font-family="Times,serif" font-size="14.00" fill="#000000">AppModule</text>
</g>
<!-- AppAboutComponent&#45;&gt;AppModule -->
<g id="edge1" class="edge">
<title>AppAboutComponent&#45;&gt;AppModule</title>
<path fill="none" stroke="#000000" d="M2313,-122.0908C2313,-145.1328 2313,-182 2313,-182 2313,-182 1276.9842,-182 1276.9842,-182"/>
<polygon fill="#000000" stroke="#000000" points="1276.9843,-178.5001 1266.9842,-182 1276.9842,-185.5001 1276.9843,-178.5001"/>
</g>
<!-- AppComponent -->
<g id="node2" class="node">
<title>AppComponent</title>
<polygon fill="#ffffb3" stroke="#000000" points="2224.9399,-122 2119.0601,-122 2119.0601,-86 2224.9399,-86 2224.9399,-122"/>
<text text-anchor="middle" x="2172" y="-99.8" font-family="Times,serif" font-size="14.00" fill="#000000">AppComponent</text>
</g>
<!-- AppComponent&#45;&gt;AppModule -->
<g id="edge2" class="edge">
<title>AppComponent&#45;&gt;AppModule</title>
<path fill="none" stroke="#000000" d="M2172,-122.0449C2172,-143.6623 2172,-177 2172,-177 2172,-177 1276.9133,-177 1276.9133,-177"/>
<polygon fill="#000000" stroke="#000000" points="1276.9134,-173.5001 1266.9133,-177 1276.9133,-180.5001 1276.9134,-173.5001"/>
</g>
<!-- AppDeckComponent -->
<g id="node3" class="node">
<title>AppDeckComponent</title>
<polygon fill="#ffffb3" stroke="#000000" points="2101.4748,-122 1966.5252,-122 1966.5252,-86 2101.4748,-86 2101.4748,-122"/>
<text text-anchor="middle" x="2034" y="-99.8" font-family="Times,serif" font-size="14.00" fill="#000000">AppDeckComponent</text>
</g>
<!-- AppDeckComponent&#45;&gt;AppModule -->
<g id="edge3" class="edge">
<title>AppDeckComponent&#45;&gt;AppModule</title>
<path fill="none" stroke="#000000" d="M2034,-122.2228C2034,-142.3652 2034,-172 2034,-172 2034,-172 1276.7918,-172 1276.7918,-172"/>
<polygon fill="#000000" stroke="#000000" points="1276.7918,-168.5001 1266.7918,-172 1276.7918,-175.5001 1276.7918,-168.5001"/>
</g>
<!-- AppEffectsCreatorComponent -->
<g id="node4" class="node">
<title>AppEffectsCreatorComponent</title>
<polygon fill="#ffffb3" stroke="#000000" points="1948.5548,-122 1761.4452,-122 1761.4452,-86 1948.5548,-86 1948.5548,-122"/>
<text text-anchor="middle" x="1855" y="-99.8" font-family="Times,serif" font-size="14.00" fill="#000000">AppEffectsCreatorComponent</text>
</g>
<!-- AppEffectsCreatorComponent&#45;&gt;AppModule -->
<g id="edge4" class="edge">
<title>AppEffectsCreatorComponent&#45;&gt;AppModule</title>
<path fill="none" stroke="#000000" d="M1855,-122.2222C1855,-140.8285 1855,-167 1855,-167 1855,-167 1276.824,-167 1276.824,-167"/>
<polygon fill="#000000" stroke="#000000" points="1276.824,-163.5001 1266.824,-167 1276.8239,-170.5001 1276.824,-163.5001"/>
</g>
<!-- AppEffectsSelectorComponent -->
<g id="node5" class="node">
<title>AppEffectsSelectorComponent</title>
<polygon fill="#ffffb3" stroke="#000000" points="1743.4454,-122 1552.5546,-122 1552.5546,-86 1743.4454,-86 1743.4454,-122"/>
<text text-anchor="middle" x="1648" y="-99.8" font-family="Times,serif" font-size="14.00" fill="#000000">AppEffectsSelectorComponent</text>
</g>
<!-- AppEffectsSelectorComponent&#45;&gt;AppModule -->
<g id="edge5" class="edge">
<title>AppEffectsSelectorComponent&#45;&gt;AppModule</title>
<path fill="none" stroke="#000000" d="M1648,-122.0336C1648,-139.0597 1648,-162 1648,-162 1648,-162 1276.7165,-162 1276.7165,-162"/>
<polygon fill="#000000" stroke="#000000" points="1276.7166,-158.5001 1266.7165,-162 1276.7165,-165.5001 1276.7166,-158.5001"/>
</g>
<!-- AppHelpComponent -->
<g id="node6" class="node">
<title>AppHelpComponent</title>
<polygon fill="#ffffb3" stroke="#000000" points="1534.1513,-122 1401.8487,-122 1401.8487,-86 1534.1513,-86 1534.1513,-122"/>
<text text-anchor="middle" x="1468" y="-99.8" font-family="Times,serif" font-size="14.00" fill="#000000">AppHelpComponent</text>
</g>
<!-- AppHelpComponent&#45;&gt;AppModule -->
<g id="edge6" class="edge">
<title>AppHelpComponent&#45;&gt;AppModule</title>
<path fill="none" stroke="#000000" d="M1468,-122.2396C1468,-137.5706 1468,-157 1468,-157 1468,-157 1276.7732,-157 1276.7732,-157"/>
<polygon fill="#000000" stroke="#000000" points="1276.7732,-153.5001 1266.7732,-157 1276.7732,-160.5001 1276.7732,-153.5001"/>
</g>
<!-- AppLayoutComponent -->
<g id="node7" class="node">
<title>AppLayoutComponent</title>
<polygon fill="#ffffb3" stroke="#000000" points="1383.5968,-122 1238.4032,-122 1238.4032,-86 1383.5968,-86 1383.5968,-122"/>
<text text-anchor="middle" x="1311" y="-99.8" font-family="Times,serif" font-size="14.00" fill="#000000">AppLayoutComponent</text>
</g>
<!-- AppLayoutComponent&#45;&gt;AppModule -->
<g id="edge7" class="edge">
<title>AppLayoutComponent&#45;&gt;AppModule</title>
<path fill="none" stroke="#000000" d="M1252.6399,-122.1061C1252.6399,-122.1061 1252.6399,-140.991 1252.6399,-140.991"/>
<polygon fill="#000000" stroke="#000000" points="1249.14,-140.9909 1252.6399,-150.991 1256.14,-140.991 1249.14,-140.9909"/>
</g>
<!-- AppMusicListComponent -->
<g id="node8" class="node">
<title>AppMusicListComponent</title>
<polygon fill="#ffffb3" stroke="#000000" points="1220.2119,-122 1057.7881,-122 1057.7881,-86 1220.2119,-86 1220.2119,-122"/>
<text text-anchor="middle" x="1139" y="-99.8" font-family="Times,serif" font-size="14.00" fill="#000000">AppMusicListComponent</text>
</g>
<!-- AppMusicListComponent&#45;&gt;AppModule -->
<g id="edge8" class="edge">
<title>AppMusicListComponent&#45;&gt;AppModule</title>
<path fill="none" stroke="#000000" d="M1201.6389,-122.1061C1201.6389,-122.1061 1201.6389,-140.991 1201.6389,-140.991"/>
<polygon fill="#000000" stroke="#000000" points="1198.1389,-140.9909 1201.6389,-150.991 1205.1389,-140.991 1198.1389,-140.9909"/>
</g>
<!-- AppSettingsComponent -->
<g id="node9" class="node">
<title>AppSettingsComponent</title>
<polygon fill="#ffffb3" stroke="#000000" points="1040.0533,-122 889.9467,-122 889.9467,-86 1040.0533,-86 1040.0533,-122"/>
<text text-anchor="middle" x="965" y="-99.8" font-family="Times,serif" font-size="14.00" fill="#000000">AppSettingsComponent</text>
</g>
<!-- AppSettingsComponent&#45;&gt;AppModule -->
<g id="edge9" class="edge">
<title>AppSettingsComponent&#45;&gt;AppModule</title>
<path fill="none" stroke="#000000" d="M965,-122.2396C965,-137.5706 965,-157 965,-157 965,-157 1173.2265,-157 1173.2265,-157"/>
<polygon fill="#000000" stroke="#000000" points="1173.2265,-160.5001 1183.2265,-157 1173.2265,-153.5001 1173.2265,-160.5001"/>
</g>
<!-- AppTabsComponent -->
<g id="node10" class="node">
<title>AppTabsComponent</title>
<polygon fill="#ffffb3" stroke="#000000" points="871.1513,-122 738.8487,-122 738.8487,-86 871.1513,-86 871.1513,-122"/>
<text text-anchor="middle" x="805" y="-99.8" font-family="Times,serif" font-size="14.00" fill="#000000">AppTabsComponent</text>
</g>
<!-- AppTabsComponent&#45;&gt;AppModule -->
<g id="edge10" class="edge">
<title>AppTabsComponent&#45;&gt;AppModule</title>
<path fill="none" stroke="#000000" d="M805,-122.0336C805,-139.0597 805,-162 805,-162 805,-162 1173.1933,-162 1173.1933,-162"/>
<polygon fill="#000000" stroke="#000000" points="1173.1933,-165.5001 1183.1933,-162 1173.1933,-158.5001 1173.1933,-165.5001"/>
</g>
<!-- AppVolumeComponent -->
<g id="node11" class="node">
<title>AppVolumeComponent</title>
<polygon fill="#ffffb3" stroke="#000000" points="720.0421,-122 569.9579,-122 569.9579,-86 720.0421,-86 720.0421,-122"/>
<text text-anchor="middle" x="645" y="-99.8" font-family="Times,serif" font-size="14.00" fill="#000000">AppVolumeComponent</text>
</g>
<!-- AppVolumeComponent&#45;&gt;AppModule -->
<g id="edge11" class="edge">
<title>AppVolumeComponent&#45;&gt;AppModule</title>
<path fill="none" stroke="#000000" d="M645,-122.2222C645,-140.8285 645,-167 645,-167 645,-167 1173.2878,-167 1173.2878,-167"/>
<polygon fill="#000000" stroke="#000000" points="1173.2879,-170.5001 1183.2878,-167 1173.2878,-163.5001 1173.2879,-170.5001"/>
</g>
<!-- RouletteControllerComponent -->
<g id="node12" class="node">
<title>RouletteControllerComponent</title>
<polygon fill="#ffffb3" stroke="#000000" points="552.3145,-122 365.6855,-122 365.6855,-86 552.3145,-86 552.3145,-122"/>
<text text-anchor="middle" x="459" y="-99.8" font-family="Times,serif" font-size="14.00" fill="#000000">RouletteControllerComponent</text>
</g>
<!-- RouletteControllerComponent&#45;&gt;AppModule -->
<g id="edge12" class="edge">
<title>RouletteControllerComponent&#45;&gt;AppModule</title>
<path fill="none" stroke="#000000" d="M459,-122.2228C459,-142.3652 459,-172 459,-172 459,-172 1173.2725,-172 1173.2725,-172"/>
<polygon fill="#000000" stroke="#000000" points="1173.2726,-175.5001 1183.2725,-172 1173.2725,-168.5001 1173.2726,-175.5001"/>
</g>
<!-- SliderControllerComponent -->
<g id="node13" class="node">
<title>SliderControllerComponent</title>
<polygon fill="#ffffb3" stroke="#000000" points="348.3159,-122 175.6841,-122 175.6841,-86 348.3159,-86 348.3159,-122"/>
<text text-anchor="middle" x="262" y="-99.8" font-family="Times,serif" font-size="14.00" fill="#000000">SliderControllerComponent</text>
</g>
<!-- SliderControllerComponent&#45;&gt;AppModule -->
<g id="edge13" class="edge">
<title>SliderControllerComponent&#45;&gt;AppModule</title>
<path fill="none" stroke="#000000" d="M262,-122.0449C262,-143.6623 262,-177 262,-177 262,-177 1173.312,-177 1173.312,-177"/>
<polygon fill="#000000" stroke="#000000" points="1173.312,-180.5001 1183.312,-177 1173.312,-173.5001 1173.312,-180.5001"/>
</g>
<!-- AppComponent  -->
<g id="node16" class="node">
<title>AppComponent </title>
<polygon fill="#80b1d3" stroke="#000000" points="1279.439,-252 1170.561,-252 1170.561,-216 1279.439,-216 1279.439,-252"/>
<text text-anchor="middle" x="1225" y="-229.8" font-family="Times,serif" font-size="14.00" fill="#000000">AppComponent </text>
</g>
<!-- AppModule&#45;&gt;AppComponent  -->
<g id="edge15" class="edge">
<title>AppModule&#45;&gt;AppComponent </title>
<path fill="none" stroke="#000000" stroke-dasharray="1,5" d="M1225,-187.1061C1225,-187.1061 1225,-205.991 1225,-205.991"/>
<polygon fill="#000000" stroke="#000000" points="1221.5001,-205.9909 1225,-215.991 1228.5001,-205.991 1221.5001,-205.9909"/>
</g>
<!-- AppRoutingModule -->
<g id="node15" class="node">
<title>AppRoutingModule</title>
<polygon fill="#8dd3c7" stroke="#000000" points="152.2744,-122 149.2744,-126 128.2744,-126 125.2744,-122 23.7256,-122 23.7256,-86 152.2744,-86 152.2744,-122"/>
<text text-anchor="middle" x="88" y="-99.8" font-family="Times,serif" font-size="14.00" fill="#000000">AppRoutingModule</text>
</g>
<!-- AppRoutingModule&#45;&gt;AppModule -->
<g id="edge14" class="edge">
<title>AppRoutingModule&#45;&gt;AppModule</title>
<path fill="none" stroke="#000000" d="M88,-122.0908C88,-145.1328 88,-182 88,-182 88,-182 1173.1851,-182 1173.1851,-182"/>
<polygon fill="#000000" stroke="#000000" points="1173.1852,-185.5001 1183.1851,-182 1173.1851,-178.5001 1173.1852,-185.5001"/>
</g>
</g>
</svg>
