<?xml version="1.0" encoding="UTF-8" standalone="no"?>
<!DOCTYPE svg PUBLIC "-//W3C//DTD SVG 1.1//EN"
 "http://www.w3.org/Graphics/SVG/1.1/DTD/svg11.dtd">
<!-- Generated by graphviz version 2.40.1 (20161225.0304)
 -->
<!-- Title: dependencies Pages: 1 -->
<svg width="2605pt" height="284pt"
 viewBox="0.00 0.00 2605.00 284.00" xmlns="http://www.w3.org/2000/svg" xmlns:xlink="http://www.w3.org/1999/xlink">
<g id="graph0" class="graph" transform="scale(1 1) rotate(0) translate(4 280)">
<title>dependencies</title>
<polygon fill="#ffffff" stroke="transparent" points="-4,4 -4,-280 2601,-280 2601,4 -4,4"/>
<text text-anchor="start" x="1277.5091" y="-42.4" font-family="sans-serif" font-weight="bold" font-size="14.00" fill="#000000">Legend</text>
<polygon fill="#ffffb3" stroke="transparent" points="1064.5,-10 1064.5,-30 1084.5,-30 1084.5,-10 1064.5,-10"/>
<text text-anchor="start" x="1088.129" y="-15.4" font-family="sans-serif" font-size="14.00" fill="#000000"> &#160;Declarations</text>
<polygon fill="#8dd3c7" stroke="transparent" points="1177.5,-10 1177.5,-30 1197.5,-30 1197.5,-10 1177.5,-10"/>
<text text-anchor="start" x="1201.2251" y="-15.4" font-family="sans-serif" font-size="14.00" fill="#000000"> &#160;Module</text>
<polygon fill="#80b1d3" stroke="transparent" points="1263.5,-10 1263.5,-30 1283.5,-30 1283.5,-10 1263.5,-10"/>
<text text-anchor="start" x="1287.2812" y="-15.4" font-family="sans-serif" font-size="14.00" fill="#000000"> &#160;Bootstrap</text>
<polygon fill="#fdb462" stroke="transparent" points="1360.5,-10 1360.5,-30 1380.5,-30 1380.5,-10 1360.5,-10"/>
<text text-anchor="start" x="1384.1732" y="-15.4" font-family="sans-serif" font-size="14.00" fill="#000000"> &#160;Providers</text>
<polygon fill="#fb8072" stroke="transparent" points="1456.5,-10 1456.5,-30 1476.5,-30 1476.5,-10 1456.5,-10"/>
<text text-anchor="start" x="1480.2258" y="-15.4" font-family="sans-serif" font-size="14.00" fill="#000000"> &#160;Exports</text>
<g id="clust1" class="cluster">
<title>cluster_AppModule</title>
<polygon fill="none" stroke="#000000" stroke-dasharray="1,5" points="8,-70 8,-268 2589,-268 2589,-70 8,-70"/>
</g>
<g id="clust2" class="cluster">
<title>cluster_AppModule_declarations</title>
<polygon fill="none" stroke="#000000" points="168,-78 168,-130 2581,-130 2581,-78 168,-78"/>
</g>
<g id="clust17" class="cluster">
<title>cluster_AppModule_imports</title>
<polygon fill="none" stroke="#000000" points="16,-78 16,-130 160,-130 160,-78 16,-78"/>
</g>
<g id="clust19" class="cluster">
<title>cluster_AppModule_bootstrap</title>
<polygon fill="none" stroke="#000000" points="1249,-208 1249,-260 1373,-260 1373,-208 1249,-208"/>
</g>
<!-- AngularDraggableDirective -->
<g id="node1" class="node">
<title>AngularDraggableDirective</title>
<polygon fill="#ffffb3" stroke="#000000" points="2573.257,-122 2400.743,-122 2400.743,-86 2573.257,-86 2573.257,-122"/>
<text text-anchor="middle" x="2487" y="-99.8" font-family="Times,serif" font-size="14.00" fill="#000000">AngularDraggableDirective</text>
</g>
<!-- AppModule -->
<g id="node15" class="node">
<title>AppModule</title>
<polygon fill="#8dd3c7" stroke="#000000" points="1352.6571,-187 1349.6571,-191 1328.6571,-191 1325.6571,-187 1269.3429,-187 1269.3429,-151 1352.6571,-151 1352.6571,-187"/>
<text text-anchor="middle" x="1311" y="-164.8" font-family="Times,serif" font-size="14.00" fill="#000000">AppModule</text>
</g>
<!-- AngularDraggableDirective&#45;&gt;AppModule -->
<g id="edge1" class="edge">
<title>AngularDraggableDirective&#45;&gt;AppModule</title>
<path fill="none" stroke="#000000" d="M2487,-122.3228C2487,-145.6602 2487,-183 2487,-183 2487,-183 1362.8545,-183 1362.8545,-183"/>
<polygon fill="#000000" stroke="#000000" points="1362.8545,-179.5001 1352.8545,-183 1362.8544,-186.5001 1362.8545,-179.5001"/>
</g>
<!-- AppAboutComponent -->
<g id="node2" class="node">
<title>AppAboutComponent</title>
<polygon fill="#ffffb3" stroke="#000000" points="2383.4369,-122 2242.5631,-122 2242.5631,-86 2383.4369,-86 2383.4369,-122"/>
<text text-anchor="middle" x="2313" y="-99.8" font-family="Times,serif" font-size="14.00" fill="#000000">AppAboutComponent</text>
</g>
<!-- AppAboutComponent&#45;&gt;AppModule -->
<g id="edge2" class="edge">
<title>AppAboutComponent&#45;&gt;AppModule</title>
<path fill="none" stroke="#000000" d="M2313,-122.2921C2313,-144.2057 2313,-178 2313,-178 2313,-178 1362.779,-178 1362.779,-178"/>
<polygon fill="#000000" stroke="#000000" points="1362.779,-174.5001 1352.779,-178 1362.779,-181.5001 1362.779,-174.5001"/>
</g>
<!-- AppComponent -->
<g id="node3" class="node">
<title>AppComponent</title>
<polygon fill="#ffffb3" stroke="#000000" points="2224.9399,-122 2119.0601,-122 2119.0601,-86 2224.9399,-86 2224.9399,-122"/>
<text text-anchor="middle" x="2172" y="-99.8" font-family="Times,serif" font-size="14.00" fill="#000000">AppComponent</text>
</g>
<!-- AppComponent&#45;&gt;AppModule -->
<g id="edge3" class="edge">
<title>AppComponent&#45;&gt;AppModule</title>
<path fill="none" stroke="#000000" d="M2172,-122.0267C2172,-142.7672 2172,-174 2172,-174 2172,-174 1362.8188,-174 1362.8188,-174"/>
<polygon fill="#000000" stroke="#000000" points="1362.8188,-170.5001 1352.8188,-174 1362.8188,-177.5001 1362.8188,-170.5001"/>
</g>
<!-- AppDeckComponent -->
<g id="node4" class="node">
<title>AppDeckComponent</title>
<polygon fill="#ffffb3" stroke="#000000" points="2101.4748,-122 1966.5252,-122 1966.5252,-86 2101.4748,-86 2101.4748,-122"/>
<text text-anchor="middle" x="2034" y="-99.8" font-family="Times,serif" font-size="14.00" fill="#000000">AppDeckComponent</text>
</g>
<!-- AppDeckComponent&#45;&gt;AppModule -->
<g id="edge4" class="edge">
<title>AppDeckComponent&#45;&gt;AppModule</title>
<path fill="none" stroke="#000000" d="M2034,-122.1061C2034,-141.3391 2034,-169 2034,-169 2034,-169 1362.7321,-169 1362.7321,-169"/>
<polygon fill="#000000" stroke="#000000" points="1362.7322,-165.5001 1352.7321,-169 1362.7321,-172.5001 1362.7322,-165.5001"/>
</g>
<!-- AppEffectsCreatorComponent -->
<g id="node5" class="node">
<title>AppEffectsCreatorComponent</title>
<polygon fill="#ffffb3" stroke="#000000" points="1948.5548,-122 1761.4452,-122 1761.4452,-86 1948.5548,-86 1948.5548,-122"/>
<text text-anchor="middle" x="1855" y="-99.8" font-family="Times,serif" font-size="14.00" fill="#000000">AppEffectsCreatorComponent</text>
</g>
<!-- AppEffectsCreatorComponent&#45;&gt;AppModule -->
<g id="edge5" class="edge">
<title>AppEffectsCreatorComponent&#45;&gt;AppModule</title>
<path fill="none" stroke="#000000" d="M1855,-122.302C1855,-140.2699 1855,-165 1855,-165 1855,-165 1362.7835,-165 1362.7835,-165"/>
<polygon fill="#000000" stroke="#000000" points="1362.7835,-161.5001 1352.7835,-165 1362.7834,-168.5001 1362.7835,-161.5001"/>
</g>
<!-- AppEffectsSelectorComponent -->
<g id="node6" class="node">
<title>AppEffectsSelectorComponent</title>
<polygon fill="#ffffb3" stroke="#000000" points="1743.4454,-122 1552.5546,-122 1552.5546,-86 1743.4454,-86 1743.4454,-122"/>
<text text-anchor="middle" x="1648" y="-99.8" font-family="Times,serif" font-size="14.00" fill="#000000">AppEffectsSelectorComponent</text>
</g>
<!-- AppEffectsSelectorComponent&#45;&gt;AppModule -->
<g id="edge6" class="edge">
<title>AppEffectsSelectorComponent&#45;&gt;AppModule</title>
<path fill="none" stroke="#000000" d="M1648,-122.027C1648,-138.3976 1648,-160 1648,-160 1648,-160 1362.6608,-160 1362.6608,-160"/>
<polygon fill="#000000" stroke="#000000" points="1362.6608,-156.5001 1352.6608,-160 1362.6608,-163.5001 1362.6608,-156.5001"/>
</g>
<!-- AppHelpComponent -->
<g id="node7" class="node">
<title>AppHelpComponent</title>
<polygon fill="#ffffb3" stroke="#000000" points="1534.1513,-122 1401.8487,-122 1401.8487,-86 1534.1513,-86 1534.1513,-122"/>
<text text-anchor="middle" x="1468" y="-99.8" font-family="Times,serif" font-size="14.00" fill="#000000">AppHelpComponent</text>
</g>
<!-- AppHelpComponent&#45;&gt;AppModule -->
<g id="edge7" class="edge">
<title>AppHelpComponent&#45;&gt;AppModule</title>
<path fill="none" stroke="#000000" d="M1468,-122.1871C1468,-137.1824 1468,-156 1468,-156 1468,-156 1362.6609,-156 1362.6609,-156"/>
<polygon fill="#000000" stroke="#000000" points="1362.661,-152.5001 1352.6609,-156 1362.6609,-159.5001 1362.661,-152.5001"/>
</g>
<!-- AppLayoutComponent -->
<g id="node8" class="node">
<title>AppLayoutComponent</title>
<polygon fill="#ffffb3" stroke="#000000" points="1383.5968,-122 1238.4032,-122 1238.4032,-86 1383.5968,-86 1383.5968,-122"/>
<text text-anchor="middle" x="1311" y="-99.8" font-family="Times,serif" font-size="14.00" fill="#000000">AppLayoutComponent</text>
</g>
<!-- AppLayoutComponent&#45;&gt;AppModule -->
<g id="edge8" class="edge">
<title>AppLayoutComponent&#45;&gt;AppModule</title>
<path fill="none" stroke="#000000" d="M1311,-122.1061C1311,-122.1061 1311,-140.991 1311,-140.991"/>
<polygon fill="#000000" stroke="#000000" points="1307.5001,-140.9909 1311,-150.991 1314.5001,-140.991 1307.5001,-140.9909"/>
</g>
<!-- AppMusicListComponent -->
<g id="node9" class="node">
<title>AppMusicListComponent</title>
<polygon fill="#ffffb3" stroke="#000000" points="1220.2119,-122 1057.7881,-122 1057.7881,-86 1220.2119,-86 1220.2119,-122"/>
<text text-anchor="middle" x="1139" y="-99.8" font-family="Times,serif" font-size="14.00" fill="#000000">AppMusicListComponent</text>
</g>
<!-- AppMusicListComponent&#45;&gt;AppModule -->
<g id="edge9" class="edge">
<title>AppMusicListComponent&#45;&gt;AppModule</title>
<path fill="none" stroke="#000000" d="M1139,-122.1871C1139,-137.1824 1139,-156 1139,-156 1139,-156 1258.9241,-156 1258.9241,-156"/>
<polygon fill="#000000" stroke="#000000" points="1258.9241,-159.5001 1268.9241,-156 1258.924,-152.5001 1258.9241,-159.5001"/>
</g>
<!-- AppSettingsComponent -->
<g id="node10" class="node">
<title>AppSettingsComponent</title>
<polygon fill="#ffffb3" stroke="#000000" points="1040.0533,-122 889.9467,-122 889.9467,-86 1040.0533,-86 1040.0533,-122"/>
<text text-anchor="middle" x="965" y="-99.8" font-family="Times,serif" font-size="14.00" fill="#000000">AppSettingsComponent</text>
</g>
<!-- AppSettingsComponent&#45;&gt;AppModule -->
<g id="edge10" class="edge">
<title>AppSettingsComponent&#45;&gt;AppModule</title>
<path fill="none" stroke="#000000" d="M965,-122.027C965,-138.3976 965,-160 965,-160 965,-160 1259.2643,-160 1259.2643,-160"/>
<polygon fill="#000000" stroke="#000000" points="1259.2644,-163.5001 1269.2643,-160 1259.2643,-156.5001 1259.2644,-163.5001"/>
</g>
<!-- AppTabsComponent -->
<g id="node11" class="node">
<title>AppTabsComponent</title>
<polygon fill="#ffffb3" stroke="#000000" points="871.1513,-122 738.8487,-122 738.8487,-86 871.1513,-86 871.1513,-122"/>
<text text-anchor="middle" x="805" y="-99.8" font-family="Times,serif" font-size="14.00" fill="#000000">AppTabsComponent</text>
</g>
<!-- AppTabsComponent&#45;&gt;AppModule -->
<g id="edge11" class="edge">
<title>AppTabsComponent&#45;&gt;AppModule</title>
<path fill="none" stroke="#000000" d="M805,-122.302C805,-140.2699 805,-165 805,-165 805,-165 1259.1614,-165 1259.1614,-165"/>
<polygon fill="#000000" stroke="#000000" points="1259.1614,-168.5001 1269.1614,-165 1259.1614,-161.5001 1259.1614,-168.5001"/>
</g>
<!-- AppVolumeComponent -->
<g id="node12" class="node">
<title>AppVolumeComponent</title>
<polygon fill="#ffffb3" stroke="#000000" points="720.0421,-122 569.9579,-122 569.9579,-86 720.0421,-86 720.0421,-122"/>
<text text-anchor="middle" x="645" y="-99.8" font-family="Times,serif" font-size="14.00" fill="#000000">AppVolumeComponent</text>
</g>
<!-- AppVolumeComponent&#45;&gt;AppModule -->
<g id="edge12" class="edge">
<title>AppVolumeComponent&#45;&gt;AppModule</title>
<path fill="none" stroke="#000000" d="M645,-122.1061C645,-141.3391 645,-169 645,-169 645,-169 1259.3387,-169 1259.3387,-169"/>
<polygon fill="#000000" stroke="#000000" points="1259.3388,-172.5001 1269.3387,-169 1259.3387,-165.5001 1259.3388,-172.5001"/>
</g>
<!-- RouletteControllerComponent -->
<g id="node13" class="node">
<title>RouletteControllerComponent</title>
<polygon fill="#ffffb3" stroke="#000000" points="552.3145,-122 365.6855,-122 365.6855,-86 552.3145,-86 552.3145,-122"/>
<text text-anchor="middle" x="459" y="-99.8" font-family="Times,serif" font-size="14.00" fill="#000000">RouletteControllerComponent</text>
</g>
<!-- RouletteControllerComponent&#45;&gt;AppModule -->
<g id="edge13" class="edge">
<title>RouletteControllerComponent&#45;&gt;AppModule</title>
<path fill="none" stroke="#000000" d="M459,-122.0267C459,-142.7672 459,-174 459,-174 459,-174 1259.3295,-174 1259.3295,-174"/>
<polygon fill="#000000" stroke="#000000" points="1259.3295,-177.5001 1269.3295,-174 1259.3295,-170.5001 1259.3295,-177.5001"/>
</g>
<!-- SliderControllerComponent -->
<g id="node14" class="node">
<title>SliderControllerComponent</title>
<polygon fill="#ffffb3" stroke="#000000" points="348.3159,-122 175.6841,-122 175.6841,-86 348.3159,-86 348.3159,-122"/>
<text text-anchor="middle" x="262" y="-99.8" font-family="Times,serif" font-size="14.00" fill="#000000">SliderControllerComponent</text>
</g>
<!-- SliderControllerComponent&#45;&gt;AppModule -->
<g id="edge14" class="edge">
<title>SliderControllerComponent&#45;&gt;AppModule</title>
<path fill="none" stroke="#000000" d="M262,-122.2921C262,-144.2057 262,-178 262,-178 262,-178 1259.2306,-178 1259.2306,-178"/>
<polygon fill="#000000" stroke="#000000" points="1259.2307,-181.5001 1269.2306,-178 1259.2306,-174.5001 1259.2307,-181.5001"/>
</g>
<!-- AppComponent  -->
<g id="node17" class="node">
<title>AppComponent </title>
<polygon fill="#80b1d3" stroke="#000000" points="1365.439,-252 1256.561,-252 1256.561,-216 1365.439,-216 1365.439,-252"/>
<text text-anchor="middle" x="1311" y="-229.8" font-family="Times,serif" font-size="14.00" fill="#000000">AppComponent </text>
</g>
<!-- AppModule&#45;&gt;AppComponent  -->
<g id="edge16" class="edge">
<title>AppModule&#45;&gt;AppComponent </title>
<path fill="none" stroke="#000000" stroke-dasharray="1,5" d="M1311,-187.1061C1311,-187.1061 1311,-205.991 1311,-205.991"/>
<polygon fill="#000000" stroke="#000000" points="1307.5001,-205.9909 1311,-215.991 1314.5001,-205.991 1307.5001,-205.9909"/>
</g>
<!-- AppRoutingModule -->
<g id="node16" class="node">
<title>AppRoutingModule</title>
<polygon fill="#8dd3c7" stroke="#000000" points="152.2744,-122 149.2744,-126 128.2744,-126 125.2744,-122 23.7256,-122 23.7256,-86 152.2744,-86 152.2744,-122"/>
<text text-anchor="middle" x="88" y="-99.8" font-family="Times,serif" font-size="14.00" fill="#000000">AppRoutingModule</text>
</g>
<!-- AppRoutingModule&#45;&gt;AppModule -->
<g id="edge15" class="edge">
<title>AppRoutingModule&#45;&gt;AppModule</title>
<path fill="none" stroke="#000000" d="M88,-122.3228C88,-145.6602 88,-183 88,-183 88,-183 1259.2554,-183 1259.2554,-183"/>
<polygon fill="#000000" stroke="#000000" points="1259.2554,-186.5001 1269.2554,-183 1259.2553,-179.5001 1259.2554,-186.5001"/>
</g>
</g>
</svg>
